<?xml version="1.0" encoding="UTF-8" standalone="no"?>
<!-- Created with Inkscape (http://www.inkscape.org/) -->

<svg
   width="210mm"
   height="297mm"
   viewBox="0 0 210 297"
   version="1.1"
   id="svg1"
   inkscape:version="1.4 (86a8ad7, 2024-10-11)"
   sodipodi:docname="logo3.svg"
   inkscape:export-filename="logo3.png"
   inkscape:export-xdpi="96"
   inkscape:export-ydpi="96"
   xmlns:inkscape="http://www.inkscape.org/namespaces/inkscape"
   xmlns:sodipodi="http://sodipodi.sourceforge.net/DTD/sodipodi-0.dtd"
   xmlns:xlink="http://www.w3.org/1999/xlink"
   xmlns="http://www.w3.org/2000/svg"
   xmlns:svg="http://www.w3.org/2000/svg">
  <sodipodi:namedview
     id="namedview1"
     pagecolor="#ffffff"
     bordercolor="#000000"
     borderopacity="0.25"
     inkscape:showpageshadow="2"
     inkscape:pageopacity="0.0"
     inkscape:pagecheckerboard="0"
     inkscape:deskcolor="#d1d1d1"
     inkscape:document-units="mm"
     inkscape:zoom="0.62805135"
     inkscape:cx="496.77467"
     inkscape:cy="331.18311"
     inkscape:window-width="1407"
     inkscape:window-height="762"
     inkscape:window-x="497"
     inkscape:window-y="279"
     inkscape:window-maximized="0"
     inkscape:current-layer="layer1" />
  <defs
     id="defs1">
    <linearGradient
       id="linearGradient12"
       inkscape:collect="always">
      <stop
         style="stop-color:#000000;stop-opacity:1"
         offset="0"
         id="stop12" />
      <stop
         style="stop-color:#ffffff;stop-opacity:1"
         offset="1"
         id="stop13" />
    </linearGradient>
    <linearGradient
       id="linearGradient20"
       inkscape:collect="always">
      <stop
         style="stop-color:#c83737;stop-opacity:1"
         offset="0"
         id="stop20" />
      <stop
         style="stop-color:#ffd5d5;stop-opacity:1"
         offset="1"
         id="stop21" />
    </linearGradient>
    <rect
       x="229.28062"
       y="391.68772"
       width="305.70749"
       height="211.76612"
       id="rect1" />
    <linearGradient
       inkscape:collect="always"
       xlink:href="#linearGradient20"
       id="linearGradient21"
       x1="96.051056"
       y1="53.923401"
       x2="98.999992"
       y2="185.78296"
       gradientUnits="userSpaceOnUse"
       gradientTransform="translate(0,7.5829787)" />
    <linearGradient
       inkscape:collect="always"
       xlink:href="#linearGradient12"
       id="linearGradient13"
       x1="91.417023"
       y1="152.9234"
       x2="92.259575"
       y2="82.148933"
       gradientUnits="userSpaceOnUse" />
  </defs>
  <g
     inkscape:label="Capa 1"
     inkscape:groupmode="layer"
     id="layer1">
    <path
       id="path11"
       style="font-weight:800;font-size:88.1944px;font-family:Purgatory;-inkscape-font-specification:'Purgatory Ultra-Bold';fill:url(#linearGradient13);fill-opacity:1;stroke-width:0.391"
       sodipodi:type="inkscape:offset"
       inkscape:radius="3.5993884"
       inkscape:original="M 97.964844 83.837891 L 97.964844 107.42578 L 97.435547 107.42578 L 78.125 107.42578 L 72.037109 99.361328 L 96.201172 99.361328 L 84.03125 86.132812 L 57.660156 86.132812 L 51.134766 93.892578 L 61.669922 107.42578 L 61.140625 107.42578 L 41.707031 107.42578 L 41.707031 111.63867 L 64.419922 111.63867 L 80.775391 111.63867 L 97.435547 111.63867 L 112.16602 111.63867 L 125.67188 111.63867 L 142.47461 111.63867 L 160.50586 111.63867 L 160.50586 107.42578 L 139.89453 107.42578 L 122.48438 83.837891 L 97.964844 83.837891 z M 112.69531 93.628906 L 123.04297 107.42578 L 122.51367 107.42578 L 112.69531 107.42578 L 112.69531 93.628906 z M 124.6543 113.33398 C 124.18625 113.33398 123.76546 113.36758 123.40039 113.42578 C 123.02596 113.49228 122.71718 113.60139 122.45508 113.76758 C 122.19297 113.93377 121.99629 114.14912 121.86523 114.43164 C 121.73415 114.71415 121.66797 115.07963 121.66797 115.51172 L 121.66797 117.30664 C 121.66797 117.75535 121.73415 118.112 121.86523 118.39453 C 121.99629 118.67705 122.19297 118.89436 122.45508 119.06055 C 122.71718 119.22674 123.02596 119.33445 123.40039 119.39258 C 123.76546 119.45898 124.18625 119.48438 124.6543 119.48438 L 127.98633 119.48438 C 128.45437 119.48438 128.86579 119.45898 129.24023 119.39258 C 129.6053 119.33438 129.91562 119.22674 130.17773 119.06055 C 130.43982 118.89436 130.63653 118.67705 130.76758 118.39453 C 130.89858 118.112 130.97266 117.75535 130.97266 117.30664 L 130.97266 115.51172 C 130.97266 115.07963 130.89866 114.71415 130.76758 114.43164 C 130.63653 114.14912 130.43982 113.93377 130.17773 113.76758 C 129.91562 113.60139 129.6053 113.4923 129.24023 113.42578 C 128.86579 113.36768 128.45437 113.33398 127.98633 113.33398 L 124.6543 113.33398 z M 42.962891 113.40039 L 46.716797 117.32422 L 46.716797 119.41797 L 48.794922 119.41797 L 48.794922 117.32422 L 52.548828 113.40039 L 50.039062 113.40039 L 47.755859 115.86133 L 45.470703 113.40039 L 42.962891 113.40039 z M 75.660156 113.40039 L 75.660156 119.41797 L 77.738281 119.41797 L 77.738281 117.85547 L 81.003906 117.85547 C 81.322172 117.85547 81.548231 117.92079 81.669922 118.03711 C 81.791607 118.16175 81.857422 118.37956 81.857422 118.69531 L 81.857422 119.41797 L 83.935547 119.41797 L 83.935547 118.39453 C 83.935547 118.14524 83.897957 117.94694 83.841797 117.78906 C 83.785637 117.63118 83.70062 117.49816 83.597656 117.39844 C 83.494687 117.29874 83.373238 117.23149 83.242188 117.18164 C 83.101776 117.13184 82.952506 117.09968 82.802734 117.06641 L 82.802734 117.04883 C 83.036753 116.99893 83.233041 116.9327 83.382812 116.84961 C 83.532585 116.76651 83.654039 116.65784 83.738281 116.5332 C 83.822531 116.41687 83.87857 116.27556 83.916016 116.10938 C 83.944096 115.95149 83.962891 115.76973 83.962891 115.57031 L 83.962891 115.1875 C 83.962891 114.9216 83.925311 114.67308 83.869141 114.45703 C 83.803621 114.24099 83.690788 114.05046 83.541016 113.89258 C 83.391244 113.74301 83.185929 113.61826 82.923828 113.53516 C 82.661726 113.45206 82.324793 113.40234 81.931641 113.40234 L 75.660156 113.40039 z M 117.85938 113.40039 L 117.85938 115.96094 L 117.83984 115.96094 C 117.80244 115.79475 117.73619 115.66075 117.64258 115.55273 C 117.53961 115.4447 117.4193 115.35362 117.26953 115.28711 C 117.11976 115.22071 116.95129 115.17927 116.77344 115.1543 C 116.59558 115.1293 116.41767 115.11328 116.23047 115.11328 L 115.69727 115.11328 C 115.12626 115.11328 114.67488 115.16296 114.33789 115.24609 C 114.0009 115.32919 113.74035 115.45345 113.5625 115.61133 C 113.38465 115.76921 113.27099 115.96169 113.21484 116.17773 C 113.15854 116.40209 113.14062 116.65011 113.14062 116.91602 L 113.14062 117.67969 C 113.14062 117.95391 113.15874 118.20388 113.21484 118.41992 C 113.27104 118.64428 113.38465 118.83626 113.5625 118.99414 C 113.74035 119.15201 114.0009 119.27628 114.33789 119.35938 C 114.67488 119.44248 115.12626 119.48437 115.69727 119.48438 L 116.2207 119.48438 C 116.48279 119.48438 116.71553 119.46738 116.91211 119.42578 C 117.10868 119.39258 117.27756 119.33457 117.41797 119.25977 C 117.54903 119.18497 117.66182 119.09385 117.74609 118.99414 C 117.83029 118.89444 117.89503 118.76967 117.95117 118.63672 L 117.9707 118.63672 L 117.9707 119.41797 L 119.65625 119.41797 L 119.65625 113.40039 L 117.85938 113.40039 z M 139.875 113.40039 L 139.875 119.41797 L 141.67188 119.41797 L 141.67188 113.40039 L 139.875 113.40039 z M 143.11328 113.40039 L 143.11328 114.64844 L 144.91016 114.64844 L 144.91016 113.40039 L 143.11328 113.40039 z M 125.10352 114.88086 L 127.53711 114.88086 C 127.80858 114.88086 128.03268 114.91299 128.20117 114.96289 C 128.36967 115.02109 128.50209 115.10537 128.5957 115.20508 C 128.6893 115.3131 128.74573 115.43637 128.7832 115.58594 C 128.8207 115.73551 128.83789 115.90313 128.83789 116.08594 L 128.83789 116.73438 C 128.83789 116.95042 128.81912 117.13949 128.79102 117.28906 C 128.75362 117.44694 128.69755 117.57267 128.61328 117.66406 C 128.51968 117.76376 128.39782 117.82954 128.24805 117.87109 C 128.08892 117.92099 127.89377 117.93945 127.65039 117.93945 L 124.99219 117.93945 C 124.7488 117.93945 124.54235 117.92099 124.39258 117.87109 C 124.23344 117.82949 124.11162 117.76378 124.02734 117.66406 C 123.93374 117.57266 123.87773 117.44694 123.84961 117.28906 C 123.81231 117.13949 123.80273 116.95042 123.80273 116.73438 L 123.80273 116.08594 C 123.80273 115.90313 123.81261 115.73551 123.84961 115.58594 C 123.88701 115.43637 123.9513 115.3131 124.04492 115.20508 C 124.13852 115.10538 124.27095 115.02102 124.43945 114.96289 C 124.60794 114.91299 124.82271 114.88086 125.10352 114.88086 z M 77.738281 114.89648 L 80.986328 114.89648 C 81.313955 114.89648 81.557259 114.93888 81.707031 115.01367 C 81.856809 115.09677 81.941406 115.2634 81.941406 115.5293 L 81.941406 115.72852 C 81.941406 115.94456 81.875996 116.10927 81.763672 116.20898 C 81.651343 116.30868 81.454652 116.35938 81.173828 116.35938 L 77.738281 116.35938 L 77.738281 114.89648 z M 55.085938 115.11328 C 54.851918 115.11328 54.616831 115.13819 54.382812 115.17969 C 54.148793 115.22959 53.93331 115.31335 53.746094 115.42969 C 53.558879 115.55433 53.399439 115.72732 53.287109 115.94336 C 53.165423 116.15941 53.109375 116.44203 53.109375 116.79102 L 53.109375 117.80469 C 53.109375 118.15368 53.165423 118.44606 53.287109 118.66211 C 53.399439 118.87815 53.558879 119.05164 53.746094 119.16797 C 53.93331 119.29261 54.148794 119.37642 54.382812 119.41797 C 54.616832 119.46777 54.851919 119.48438 55.085938 119.48438 L 57.771484 119.48438 C 57.996143 119.48438 58.230825 119.46777 58.464844 119.41797 C 58.698863 119.37637 58.914347 119.29261 59.101562 119.16797 C 59.288778 119.05164 59.446669 118.87815 59.568359 118.66211 C 59.680683 118.44606 59.746094 118.15368 59.746094 117.80469 L 59.746094 116.79102 C 59.746094 116.44203 59.680686 116.15941 59.568359 115.94336 C 59.446669 115.72732 59.288778 115.55433 59.101562 115.42969 C 58.914347 115.31335 58.698863 115.22953 58.464844 115.17969 C 58.230825 115.13829 57.996143 115.11328 57.771484 115.11328 L 55.085938 115.11328 z M 71.943359 115.11328 C 71.737423 115.11328 71.54073 115.1293 71.353516 115.1543 C 71.1663 115.1875 70.989616 115.22844 70.839844 115.29492 C 70.680711 115.36142 70.549828 115.45397 70.4375 115.57031 C 70.32517 115.68664 70.240165 115.82014 70.193359 115.98633 L 70.173828 115.98633 L 70.173828 115.17969 L 68.490234 115.17969 L 68.490234 119.41797 L 70.287109 119.41797 L 70.287109 117.07422 C 70.287109 116.82494 70.379598 116.64172 70.576172 116.52539 C 70.763388 116.41734 71.017672 116.35938 71.335938 116.35938 C 71.513791 116.35938 71.663062 116.37696 71.775391 116.41016 C 71.887721 116.44336 71.97158 116.49204 72.037109 116.55859 C 72.093269 116.62509 72.13948 116.70888 72.158203 116.80859 C 72.176923 116.90829 72.197266 117.0233 72.197266 117.15625 L 73.75 117.15625 C 73.75 117.08145 73.759766 117.01516 73.759766 116.95703 C 73.759766 116.89883 73.769531 116.84133 73.769531 116.7832 C 73.769531 116.20154 73.62848 115.77762 73.347656 115.51172 C 73.066833 115.24582 72.598613 115.11328 71.943359 115.11328 z M 87.267578 115.11328 C 86.93059 115.11328 86.631242 115.14551 86.369141 115.19531 C 86.097679 115.24521 85.862591 115.34507 85.666016 115.48633 C 85.469439 115.6359 85.319762 115.83666 85.216797 116.08594 C 85.104471 116.34353 85.058594 116.66755 85.058594 117.06641 L 85.058594 117.47266 C 85.058594 117.92968 85.123663 118.28683 85.273438 118.55273 C 85.413849 118.81864 85.601918 119.02721 85.835938 119.16016 C 86.060596 119.30142 86.321144 119.39252 86.611328 119.42578 C 86.901512 119.46738 87.202409 119.48437 87.501953 119.48438 L 88.849609 119.48438 C 89.167875 119.48438 89.477395 119.46689 89.767578 119.43359 C 90.048402 119.40039 90.300327 119.33404 90.515625 119.23438 C 90.730923 119.14298 90.9002 119.00993 91.03125 118.84375 C 91.152936 118.67756 91.216797 118.4534 91.216797 118.1875 L 91.216797 118.00391 L 89.533203 118.00391 C 89.533203 118.07041 89.522616 118.12937 89.503906 118.1875 C 89.485176 118.2457 89.448338 118.29634 89.382812 118.33789 C 89.317283 118.38779 89.215035 118.4203 89.083984 118.44531 C 88.943573 118.47841 88.755099 118.48633 88.511719 118.48633 L 87.960938 118.48633 C 87.586507 118.48633 87.304808 118.45416 87.126953 118.37109 C 86.939733 118.29629 86.855469 118.14672 86.855469 117.91406 L 86.855469 117.65625 L 91.216797 117.65625 L 91.216797 116.94141 C 91.216797 116.5758 91.161557 116.27614 91.058594 116.03516 C 90.955625 115.80251 90.795376 115.61147 90.580078 115.47852 C 90.36478 115.34557 90.085035 115.24515 89.748047 115.19531 C 89.401699 115.14551 88.989522 115.11328 88.521484 115.11328 L 87.267578 115.11328 z M 94.212891 115.11328 C 93.875903 115.11328 93.576554 115.14551 93.314453 115.19531 C 93.04299 115.24521 92.809857 115.34507 92.613281 115.48633 C 92.416705 115.6359 92.265073 115.83666 92.162109 116.08594 C 92.049782 116.34353 92.003906 116.66755 92.003906 117.06641 L 92.003906 117.47266 C 92.003906 117.92968 92.06898 118.28683 92.21875 118.55273 C 92.359162 118.81864 92.547231 119.02721 92.78125 119.16016 C 93.005908 119.30142 93.266458 119.39252 93.556641 119.42578 C 93.846825 119.46738 94.147722 119.48438 94.447266 119.48438 L 96.28125 119.48438 C 96.533991 119.48438 96.788275 119.46777 97.041016 119.41797 C 97.293756 119.37637 97.518267 119.30188 97.714844 119.18555 C 97.91142 119.06922 98.069715 118.91964 98.191406 118.72852 C 98.313092 118.54572 98.378906 118.304 98.378906 118.02148 L 98.378906 117.64844 L 96.636719 117.64844 L 96.636719 117.74805 C 96.636719 117.84775 96.608904 117.93015 96.552734 117.98828 C 96.496564 118.05478 96.431494 118.10541 96.337891 118.13867 C 96.244281 118.18027 96.141627 118.2041 96.029297 118.2207 C 95.916968 118.2373 95.795517 118.23633 95.673828 118.23633 L 94.755859 118.23633 C 94.475035 118.23633 94.242307 118.18764 94.064453 118.08789 C 93.886594 117.98819 93.800781 117.80597 93.800781 117.52344 L 93.800781 116.95703 C 93.800781 116.72437 93.885048 116.55869 94.072266 116.45898 C 94.25012 116.35928 94.531819 116.31055 94.90625 116.31055 L 95.597656 116.31055 C 95.990809 116.31055 96.262337 116.36025 96.412109 116.44336 C 96.561887 116.53476 96.636719 116.68434 96.636719 116.90039 L 98.378906 116.90039 L 98.378906 116.51758 C 98.378906 116.03563 98.181072 115.67748 97.806641 115.45312 C 97.422849 115.22877 96.898989 115.11328 96.234375 115.11328 L 94.212891 115.11328 z M 101.24219 115.11328 C 101.00817 115.11328 100.77504 115.13819 100.54102 115.17969 C 100.307 115.22959 100.09151 115.31335 99.904297 115.42969 C 99.717082 115.55433 99.55764 115.72732 99.445312 115.94336 C 99.323624 116.15941 99.267578 116.44203 99.267578 116.79102 L 99.267578 117.80469 C 99.267578 118.15368 99.323625 118.44606 99.445312 118.66211 C 99.557641 118.87815 99.717082 119.05164 99.904297 119.16797 C 100.09151 119.29261 100.307 119.37642 100.54102 119.41797 C 100.77504 119.46777 101.00817 119.48438 101.24219 119.48438 L 103.92969 119.48438 C 104.15435 119.48438 104.38707 119.46777 104.62109 119.41797 C 104.85511 119.37637 105.0706 119.29261 105.25781 119.16797 C 105.44503 119.05164 105.60487 118.87815 105.72656 118.66211 C 105.83888 118.44606 105.9043 118.15368 105.9043 117.80469 L 105.9043 116.79102 C 105.9043 116.44203 105.83893 116.15941 105.72656 115.94336 C 105.60487 115.72732 105.44503 115.55433 105.25781 115.42969 C 105.0706 115.31335 104.85511 115.22953 104.62109 115.17969 C 104.38707 115.13829 104.15435 115.11328 103.92969 115.11328 L 101.24219 115.11328 z M 110.47266 115.11328 C 110.26672 115.11328 110.07003 115.1293 109.88281 115.1543 C 109.69559 115.1875 109.51697 115.22844 109.36719 115.29492 C 109.20806 115.36142 109.07717 115.45397 108.96484 115.57031 C 108.85252 115.68664 108.76946 115.82014 108.72266 115.98633 L 108.70312 115.98633 L 108.70312 115.17969 L 107.01953 115.17969 L 107.01953 119.41797 L 108.81641 119.41797 L 108.81641 117.07422 C 108.81641 116.82494 108.90886 116.64172 109.10547 116.52539 C 109.29268 116.41734 109.54501 116.35938 109.86328 116.35938 C 110.04113 116.35938 110.19237 116.37696 110.30469 116.41016 C 110.41702 116.44336 110.50092 116.49204 110.56641 116.55859 C 110.62261 116.62509 110.66882 116.70888 110.6875 116.80859 C 110.7063 116.90829 110.72461 117.0233 110.72461 117.15625 L 112.2793 117.15625 C 112.2793 117.08145 112.28711 117.01516 112.28711 116.95703 C 112.28711 116.89883 112.29883 116.84133 112.29883 116.7832 C 112.29883 116.20154 112.15778 115.77762 111.87695 115.51172 C 111.59613 115.24582 111.12792 115.11328 110.47266 115.11328 z M 135.86914 115.11328 C 135.38238 115.11328 134.98819 115.17175 134.66992 115.27148 C 134.35166 115.37118 134.10875 115.5705 133.95898 115.86133 L 133.93945 115.86133 L 133.93945 115.17969 L 132.14258 115.17969 L 132.14258 119.41797 L 133.93945 119.41797 L 133.93945 117.28125 C 133.93945 116.98211 134.04251 116.74968 134.25781 116.5918 C 134.4731 116.44223 134.77287 116.35937 135.16602 116.35938 L 135.57812 116.35938 C 136.34571 116.35938 136.73828 116.56695 136.73828 116.98242 L 136.73828 119.41797 L 138.53711 119.41797 L 138.53711 116.98242 C 138.53711 116.68328 138.48892 116.42503 138.41406 116.20898 C 138.32986 116.00125 138.21699 115.82681 138.08594 115.68555 C 137.95489 115.5526 137.797 115.44638 137.61914 115.36328 C 137.43192 115.28848 137.2454 115.22857 137.04883 115.19531 C 136.85225 115.16211 136.65514 115.13926 136.44922 115.13086 C 136.24328 115.12286 136.05636 115.11328 135.86914 115.11328 z M 149.97461 115.11328 C 149.48785 115.11328 149.0956 115.17175 148.77734 115.27148 C 148.45907 115.37118 148.21423 115.5705 148.06445 115.86133 L 148.04688 115.86133 L 148.04688 115.17969 L 146.25 115.17969 L 146.25 119.41797 L 148.04688 119.41797 L 148.04688 117.28125 C 148.04688 116.98211 148.14993 116.74968 148.36523 116.5918 C 148.58052 116.44223 148.88029 116.35937 149.27344 116.35938 L 149.68555 116.35938 C 150.45313 116.35938 150.8457 116.56695 150.8457 116.98242 L 150.8457 119.41797 L 152.64258 119.41797 L 152.64258 116.98242 C 152.64258 116.68328 152.59632 116.42503 152.52148 116.20898 C 152.43718 116.00125 152.32441 115.82681 152.19336 115.68555 C 152.06231 115.5526 151.90441 115.44638 151.72656 115.36328 C 151.53935 115.28848 151.35088 115.22857 151.1543 115.19531 C 150.95772 115.16211 150.76257 115.13926 150.55664 115.13086 C 150.3507 115.12286 150.16183 115.11328 149.97461 115.11328 z M 155.86328 115.11328 C 155.52629 115.11328 155.22694 115.14551 154.96484 115.19531 C 154.69339 115.24521 154.4583 115.34507 154.26172 115.48633 C 154.06514 115.6359 153.91546 115.83666 153.8125 116.08594 C 153.70018 116.34353 153.6543 116.66755 153.6543 117.06641 L 153.6543 117.47266 C 153.6543 117.92968 153.71937 118.28683 153.86914 118.55273 C 154.00956 118.81864 154.19762 119.02721 154.43164 119.16016 C 154.65631 119.30142 154.9188 119.39252 155.20898 119.42578 C 155.49917 119.46738 155.79812 119.48437 156.09766 119.48438 L 157.44531 119.48438 C 157.76358 119.48438 158.07309 119.46689 158.36328 119.43359 C 158.6441 119.40039 158.89603 119.33404 159.11133 119.23438 C 159.32663 119.14298 159.49395 119.00993 159.625 118.84375 C 159.74673 118.67756 159.81445 118.4534 159.81445 118.1875 L 159.81445 118.00391 L 158.12891 118.00391 C 158.12891 118.07041 158.11851 118.12937 158.09961 118.1875 C 158.08091 118.2457 158.04398 118.29634 157.97852 118.33789 C 157.91302 118.38779 157.81074 118.4203 157.67969 118.44531 C 157.53927 118.47841 157.3508 118.48633 157.10742 118.48633 L 156.55664 118.48633 C 156.18222 118.48633 155.90052 118.45416 155.72266 118.37109 C 155.53548 118.29629 155.45117 118.14672 155.45117 117.91406 L 155.45117 117.65625 L 159.81445 117.65625 L 159.81445 116.94141 C 159.81445 116.5758 159.75726 116.27614 159.6543 116.03516 C 159.55132 115.80251 159.39302 115.61147 159.17773 115.47852 C 158.96243 115.34557 158.68074 115.24515 158.34375 115.19531 C 157.9974 115.14551 157.58523 115.11328 157.11719 115.11328 L 155.86328 115.11328 z M 60.861328 115.17969 L 60.861328 117.61328 C 60.861328 117.92073 60.898176 118.17898 60.982422 118.38672 C 61.057312 118.60276 61.169729 118.77721 61.300781 118.91016 C 61.431832 119.05142 61.590129 119.15957 61.777344 119.23438 C 61.955198 119.31748 62.143268 119.37494 62.339844 119.4082 C 62.536421 119.4414 62.733516 119.46611 62.939453 119.47461 C 63.145389 119.48261 63.342083 119.48242 63.529297 119.48242 C 64.006697 119.48242 64.398531 119.43372 64.716797 119.33398 C 65.035063 119.23428 65.269006 119.03546 65.4375 118.73633 L 65.457031 118.73633 L 65.457031 119.41797 L 67.253906 119.41797 L 67.253906 115.17969 L 65.457031 115.17969 L 65.457031 117.31445 C 65.457031 117.6219 65.344203 117.85434 65.128906 118.00391 C 64.913607 118.16177 64.61426 118.23633 64.230469 118.23633 L 63.818359 118.23633 C 63.041415 118.23633 62.658203 118.02875 62.658203 117.61328 L 62.658203 115.17969 L 60.861328 115.17969 z M 143.11328 115.17969 L 143.11328 119.41797 L 144.91016 119.41797 L 144.91016 115.17969 L 143.11328 115.17969 z M 88.166016 116.10938 C 88.428117 116.10938 88.644007 116.11797 88.8125 116.13477 C 88.980994 116.15137 89.111879 116.17725 89.214844 116.21875 C 89.308454 116.26865 89.382476 116.32559 89.419922 116.40039 C 89.457362 116.48349 89.476562 116.58434 89.476562 116.70898 L 86.855469 116.70898 C 86.855469 116.58434 86.864468 116.48349 86.892578 116.40039 C 86.920658 116.32559 86.976705 116.26859 87.070312 116.21875 C 87.163922 116.17715 87.29635 116.15137 87.464844 116.13477 C 87.633338 116.11827 87.866471 116.10938 88.166016 116.10938 z M 156.76172 116.10938 C 157.02383 116.10938 157.2397 116.11797 157.4082 116.13477 C 157.57669 116.15137 157.70759 116.17725 157.81055 116.21875 C 157.90415 116.26865 157.97817 116.32559 158.01562 116.40039 C 158.05312 116.48349 158.07227 116.58434 158.07227 116.70898 L 155.45117 116.70898 C 155.45117 116.58434 155.46058 116.48349 155.48828 116.40039 C 155.51638 116.32559 155.57235 116.26859 155.66602 116.21875 C 155.75962 116.17715 155.89206 116.15137 156.06055 116.13477 C 156.22905 116.11827 156.46218 116.10938 156.76172 116.10938 z M 56.132812 116.31055 L 56.564453 116.31055 C 56.845277 116.31055 57.078411 116.3252 57.265625 116.3418 C 57.44348 116.3584 57.584536 116.40137 57.6875 116.45117 C 57.790473 116.50107 57.855133 116.57463 57.892578 116.66602 C 57.930028 116.75742 57.949219 116.87486 57.949219 117.00781 L 57.949219 117.58984 C 57.949219 117.7394 57.930028 117.85635 57.892578 117.93945 C 57.855138 118.03085 57.790464 118.10445 57.6875 118.1543 C 57.584531 118.2042 57.44348 118.24512 57.265625 118.26172 C 57.078411 118.27822 56.845277 118.28711 56.564453 118.28711 L 56.132812 118.28711 C 55.720939 118.28711 55.412967 118.23738 55.207031 118.12109 C 55.00109 118.01307 54.908203 117.8055 54.908203 117.49805 L 54.908203 117.09961 C 54.908203 116.80047 55.001098 116.59095 55.207031 116.47461 C 55.412967 116.36656 55.720938 116.31055 56.132812 116.31055 z M 102.29102 116.31055 L 102.72266 116.31055 C 103.00348 116.31055 103.23661 116.3252 103.42383 116.3418 C 103.60168 116.3584 103.74274 116.40137 103.8457 116.45117 C 103.94867 116.50107 104.01334 116.57463 104.05078 116.66602 C 104.08818 116.75742 104.10742 116.87486 104.10742 117.00781 L 104.10742 117.58984 C 104.10742 117.7394 104.08818 117.85635 104.05078 117.93945 C 104.01338 118.03085 103.94867 118.10445 103.8457 118.1543 C 103.74273 118.2042 103.60168 118.24512 103.42383 118.26172 C 103.23661 118.27822 103.00348 118.28711 102.72266 118.28711 L 102.29102 118.28711 C 101.87915 118.28711 101.57117 118.23738 101.36523 118.12109 C 101.15929 118.01307 101.06445 117.8055 101.06445 117.49805 L 101.06445 117.09961 C 101.06445 116.80047 101.15931 116.59095 101.36523 116.47461 C 101.57117 116.36656 101.87915 116.31055 102.29102 116.31055 z M 115.82617 116.31055 L 116.88477 116.31055 C 117.05326 116.31055 117.21311 116.3252 117.35352 116.3418 C 117.48457 116.3667 117.59584 116.40866 117.68945 116.4668 C 117.78305 116.525 117.84967 116.60146 117.89648 116.70117 C 117.94328 116.80087 117.9707 116.93196 117.9707 117.08984 L 117.9707 117.50586 C 117.9707 117.67204 117.94328 117.79677 117.89648 117.89648 C 117.84968 117.99618 117.78307 118.07859 117.68945 118.13672 C 117.59585 118.19492 117.48457 118.23733 117.35352 118.25391 C 117.21311 118.27871 117.05326 118.28711 116.88477 118.28711 L 115.82617 118.28711 C 115.60151 118.28711 115.43419 118.26953 115.3125 118.23633 C 115.18145 118.20313 115.0874 118.16208 115.03125 118.0957 C 114.96565 118.0375 114.92884 117.96299 114.91016 117.86328 C 114.89166 117.77188 114.88281 117.66516 114.88281 117.54883 L 114.88281 117.04883 C 114.88281 116.93249 114.89126 116.83408 114.91016 116.73438 C 114.92886 116.64298 114.96571 116.56652 115.03125 116.5 C 115.08745 116.4418 115.18145 116.39263 115.3125 116.35938 C 115.43419 116.32608 115.60151 116.31055 115.82617 116.31055 z M 41.707031 121.32812 L 41.707031 125.54102 L 75.244141 125.54102 L 81.296875 133.31641 L 62.777344 133.13867 L 54.574219 147.86719 L 84.736328 147.86719 L 95.142578 130.66992 L 91.271484 125.54102 L 97.435547 125.54102 L 97.435547 147.7793 L 144.00391 147.7793 L 156.26172 130.31836 L 152.73633 125.54102 L 160.50586 125.54102 L 160.50586 121.32812 L 149.62695 121.32812 L 132.93945 121.32812 L 112.16602 121.32812 L 97.435547 121.32812 L 88.089844 121.32812 L 71.964844 121.32812 L 41.707031 121.32812 z M 112.16602 125.54102 L 136.09961 125.54102 L 141.5332 132.78711 L 112.16602 132.78711 L 112.16602 125.54102 z "
       d="m 97.964844,80.238281 a 3.5997483,3.5997483 0 0 0 -3.59961,3.59961 v 8.210937 L 86.679687,83.695312 A 3.5997483,3.5997483 0 0 0 84.03125,82.533203 H 57.660156 a 3.5997483,3.5997483 0 0 0 -2.753906,1.283203 l -6.525391,7.759766 a 3.5997483,3.5997483 0 0 0 -0.08594,4.527344 l 6.011719,7.722654 h -12.59961 a 3.5997483,3.5997483 0 0 0 -3.599609,3.59961 v 4.21289 a 3.5997483,3.5997483 0 0 0 2.017578,2.94336 3.5997483,3.5997483 0 0 0 0.236328,1.30664 l 1.759766,1.83985 h -0.414063 a 3.5997483,3.5997483 0 0 0 -3.599609,3.59961 v 4.21289 a 3.5997483,3.5997483 0 0 0 3.599609,3.5996 h 31.777344 l 0.392578,0.50391 -11.064453,-0.10547 a 3.5997483,3.5997483 0 0 0 -3.179688,1.84766 l -8.203125,14.72851 a 3.5997483,3.5997483 0 0 0 3.144532,5.35157 h 30.162109 a 3.5997483,3.5997483 0 0 0 3.080078,-1.73633 l 6.019531,-9.94727 v 7.9961 a 3.5997483,3.5997483 0 0 0 3.59961,3.59961 h 46.568363 a 3.5997483,3.5997483 0 0 0 2.94531,-1.53125 l 12.25781,-17.46094 a 3.5997483,3.5997483 0 0 0 0.44922,-3.2461 h 0.84961 a 3.5997483,3.5997483 0 0 0 3.59961,-3.5996 v -4.21289 a 3.5997483,3.5997483 0 0 0 -0.8457,-2.04297 c 0.0841,-0.3738 0.15429,-0.75009 0.15429,-1.09766 v -0.18359 a 3.5997483,3.5997483 0 0 0 -0.0723,-0.17383 3.5997483,3.5997483 0 0 0 0.0723,-0.17383 v -0.71484 c 0,-0.74097 -0.11189,-1.53079 -0.44922,-2.32032 a 3.5997483,3.5997483 0 0 0 -0.0195,-0.043 c -0.043,-0.0972 -0.17318,-0.16093 -0.22461,-0.25782 a 3.5997483,3.5997483 0 0 0 1.38477,-2.68164 v -4.21289 a 3.5997483,3.5997483 0 0 0 -3.59961,-3.59961 H 141.71094 L 125.38086,81.701172 a 3.5997483,3.5997483 0 0 0 -2.89648,-1.462891 z M 79.265625,102.96094 h 15.099609 v 0.86523 H 79.917969 Z m 13.398437,8.69336 c -0.0042,7.7e-4 -0.0075,0.005 -0.01172,0.006 -0.0029,5.5e-4 -0.0068,-5.6e-4 -0.0098,0 z m 61.650388,0 c -0.004,7.7e-4 -0.008,0.005 -0.0117,0.006 -0.003,5.5e-4 -0.007,-5.6e-4 -0.01,0 z m -98.499997,3.58398 h 1.341797 c 0.04137,0.0332 0.06609,0.0794 0.105469,0.11524 v 2.25976 c 0,0.0323 0.02117,0.0823 0.02148,0.11524 H 54.5 c -0.04246,-0.16037 -0.07783,-0.30238 -0.08594,-0.41407 0.0039,-0.16911 0.0085,-0.35941 0.177735,-0.77148 0.214266,-0.49557 0.732648,-0.95252 1.222656,-1.30469 z m 22.625,0 h 1.777344 l 0.388672,0.39063 -1.541016,1.54101 c -0.414682,-0.61636 -0.680976,-1.22441 -0.699219,-1.5625 0.0044,-0.10182 0.05264,-0.24451 0.07422,-0.36914 z m 9.269531,0 h 0.996094 c 0.01393,0.007 0.025,0.0273 0.03906,0.0352 -0.180582,0.64494 -0.339844,1.29296 -0.339844,1.79297 v 0.40625 c 0,0.0775 0.01973,0.1752 0.02148,0.25586 h -0.335937 -0.666016 c -0.02389,-0.2013 -0.05348,-0.39855 -0.09961,-0.59571 0.01867,-0.07 0.08877,-0.167 0.103515,-0.23242 a 3.5997483,3.5997483 0 0 0 0.03125,-0.16016 c 0.06298,-0.35413 0.103516,-0.74434 0.103516,-1.16992 v -0.26367 c 0.06447,-0.0333 0.09272,-0.0463 0.146484,-0.0684 z m 14.263676,0 h 1.34179 c 0.0413,0.0331 0.0661,0.0794 0.10547,0.11524 v 2.375 h -1.4414 v -0.0801 a 3.5997483,3.5997483 0 0 0 -0.1543,-0.375 3.5997483,3.5997483 0 0 0 0.1543,-0.37305 v -0.38281 c 0,-0.3119 -0.19677,-0.65334 -0.2793,-0.98828 0.10494,-0.0959 0.16414,-0.21252 0.27344,-0.29102 z m 13.67773,0 h 1.47852 c 0.12037,0.0835 0.2388,0.17937 0.37109,0.30469 0.30025,0.31 0.41143,0.64019 0.56836,0.99414 v 0.76953 c 0,0.13005 0.0794,0.2876 0.0859,0.42188 h -2.51172 a 3.5997483,3.5997483 0 0 0 0.23633,-0.57227 c 0,0.17575 0.008,0.18131 0.008,-0.19922 0,0.42502 0.0117,0.3681 0.0117,-0.17383 0,-0.46293 -0.11035,-1.00701 -0.24805,-1.54492 z m 10.30859,0 h 0.66016 c 0.003,0.003 0.005,0.001 0.008,0.004 0.40874,0.46805 0.61454,0.9536 0.6875,1.26953 -0.0942,0.33489 -0.30135,0.76524 -0.54882,1.05078 l -0.0957,0.10547 c -0.0324,0.0345 -0.0593,0.029 -0.0918,0.0606 h -0.51563 c -0.0326,-0.0316 -0.0593,-0.026 -0.0918,-0.0606 l -0.0957,-0.10547 c -0.32503,-0.37511 -0.52773,-0.87701 -0.58398,-1.10156 -5.5e-4,-0.002 5.3e-4,-0.002 0,-0.004 0.0495,-0.20852 0.19056,-0.6935 0.66796,-1.21875 z m 29.9961,0 h 0.16211 a 3.5997483,3.5997483 0 0 0 -0.15039,0.0625 c -0.006,-0.0203 -0.006,-0.0423 -0.0117,-0.0625 z m 0.34765,0 h 0.99805 c 0.46268,0.24819 1.0058,0.60637 1.32031,1.14258 0.25839,0.44053 0.2579,0.74562 0.29883,1.06445 -0.0147,0.0517 0.002,0.0356 -0.0176,0.0937 l -0.0449,0.12696 c -0.0114,0.0303 -0.0421,0.0326 -0.0547,0.0625 h -2.56054 v -0.7461 c 0,-0.54745 -0.11902,-1.07558 -0.26172,-1.59375 0.17199,-0.11001 0.20399,-0.10187 0.32226,-0.15039 z m -1.11523,1.17969 a 3.5997483,3.5997483 0 0 0 -0.50781,1.2207 c -0.0321,-0.0973 -0.0348,-0.15761 -0.0547,-0.24609 0.0216,-0.10393 0.0214,-0.22532 0.0488,-0.31055 0.0815,-0.25201 0.34526,-0.4133 0.51367,-0.66406 z M 86.244141,116.86914 86.349609,117 a 3.5997483,3.5997483 0 0 0 -0.09766,0.23242 l -0.201172,0.25196 c -0.009,-0.0344 -0.01403,-0.0587 -0.02148,-0.0918 0.0214,-0.10188 0.02285,-0.22787 0.04883,-0.3086 0.02606,-0.081 0.128971,-0.13185 0.166016,-0.21484 z m -34.492188,5.29492 c 0.01892,0.0126 0.04151,0.0111 0.06055,0.0234 0.01472,0.009 0.01835,0.0279 0.0332,0.0371 z m 8.505859,0.33399 c 0.04048,0.0189 0.08422,0.0193 0.125,0.0371 0.02147,0.009 0.03711,0.0324 0.05859,0.041 z M 160.62305,122.5 c -0.0352,0.0156 -0.0807,0.0286 -0.0684,0.0195 0.0236,-0.0105 0.0447,-0.009 0.0684,-0.0195 z m -37.86719,0.43359 c 0.0226,0.004 0.0401,0.002 0.0625,0.006 0.009,0.001 0.02,0.008 0.0293,0.01 z m 7.11328,0.004 c -0.0208,0.003 -0.0508,0.006 -0.0449,0.004 0.0158,-0.003 0.029,-0.001 0.0449,-0.004 z m -76.236328,0.002 c 0.03204,0.007 0.05236,0.002 0.08398,0.008 0.01271,0.002 0.02441,0.0134 0.03711,0.0156 z m 5.582032,0 c -0.03971,0.007 -0.09831,0.0124 -0.08789,0.008 0.03319,-0.007 0.0542,-6.5e-4 0.08789,-0.008 z m 40.576172,0 c 0.03185,0.007 0.05251,0.002 0.08398,0.008 0.01271,0.002 0.02441,0.0134 0.03711,0.0156 z m 5.580074,0 c -0.0397,0.007 -0.0983,0.0124 -0.0879,0.008 0.033,-0.006 0.0544,-6.9e-4 0.0879,-0.008 z m 12.28711,0.008 c 0.11807,-0.0376 0.12018,-0.0551 -0.0918,0.008 0.0352,-0.007 0.0557,-1.8e-4 0.0918,-0.008 z m -19.921872,0.002 c -0.03711,0.007 -0.08789,0.0117 -0.07617,0.008 0.02864,-0.005 0.04719,-0.002 0.07617,-0.008 z m -11.636719,0.0391 c 0.02786,0.004 0.05048,0.002 0.07813,0.006 0.008,9.6e-4 0.01539,0.007 0.02344,0.008 z m 6.945313,0 c 0.02786,0.004 0.05048,0.002 0.07813,0.006 0.008,9.6e-4 0.01539,0.007 0.02344,0.008 z m 61.652348,0 c 0.0278,0.004 0.0505,0.002 0.0781,0.006 0.008,9.6e-4 0.0154,0.007 0.0234,0.008 z m -38.93164,6.15234 h 18.5332 l 0.0351,0.0469 h -18.56835 z" />
    <text
       xml:space="preserve"
       transform="scale(0.26458333)"
       id="text1"
       style="font-size:192px;font-family:'Iron Maiden';-inkscape-font-specification:'Iron Maiden';text-align:start;writing-mode:lr-tb;direction:ltr;white-space:pre;shape-inside:url(#rect1);display:inline;fill:#000000;stroke-width:1.4778" />
    <path
       style="font-weight:800;font-size:88.1944px;font-family:Purgatory;-inkscape-font-specification:'Purgatory Ultra-Bold';fill:url(#linearGradient21);fill-opacity:1;stroke-width:0.391"
       d="m 41.706498,121.32742 v 4.21318 h 33.537488 l 6.053377,7.77523 -18.520833,-0.17621 -8.202083,14.7283 h 30.1625 l 10.4066,-17.19792 -3.872116,-5.1294 h 6.164999 v 22.23947 h 46.56667 l 12.2592,-17.4625 -3.52589,-4.77697 h 7.77007 v -4.21318 H 149.62653 132.93969 112.16525 97.43643 88.090747 71.964083 Z m 70.458752,4.21318 h 23.93394 l 5.43481,7.24607 h -29.36875 z"
       id="path31" />
    <path
       style="font-weight:800;font-size:88.1944px;font-family:Purgatory;-inkscape-font-specification:'Purgatory Ultra-Bold';fill:#f4e3d7;fill-opacity:1;stroke-width:0.391"
       d="m 143.11375,115.17947 v 4.23799 h 1.7973 v -4.23799 z"
       id="path30" />
    <path
       style="font-weight:800;font-size:88.1944px;font-family:Purgatory;-inkscape-font-specification:'Purgatory Ultra-Bold';fill:#f4e3d7;fill-opacity:1;stroke-width:0.391"
       d="m 60.860368,115.17947 v 2.43448 c 0,0.30745 0.03771,0.56534 0.121956,0.77308 0.07489,0.21604 0.187275,0.39053 0.318327,0.52348 0.131051,0.14126 0.290275,0.2492 0.47749,0.32401 0.177854,0.0831 0.365147,0.14089 0.561723,0.17415 0.196577,0.0332 0.392993,0.0582 0.59893,0.0667 0.205936,0.008 0.402414,0.008 0.589628,0.008 0.4774,0 0.870809,-0.0496 1.189075,-0.14934 0.318266,-0.0997 0.551875,-0.29928 0.720369,-0.59841 h 0.01912 v 0.68161 h 1.79679 v -4.23799 h -1.79679 v 2.13527 c 0,0.30745 -0.112331,0.54031 -0.327628,0.68988 -0.215299,0.15786 -0.514862,0.23255 -0.898653,0.23255 h -0.411861 c -0.776944,0 -1.16117,-0.20775 -1.16117,-0.62322 v -2.43448 z"
       id="path29" />
    <path
       style="font-weight:800;font-size:88.1944px;font-family:Purgatory;-inkscape-font-specification:'Purgatory Ultra-Bold';fill:#f4e3d7;fill-opacity:1;stroke-width:0.391"
       d="m 101.24292,115.11337 c -0.23402,0 -0.46775,0.0246 -0.70177,0.0661 -0.23402,0.0499 -0.44944,0.13326 -0.636654,0.2496 -0.187215,0.12464 -0.346558,0.29866 -0.458886,0.5147 -0.121688,0.21605 -0.177767,0.49902 -0.177767,0.84801 v 1.01337 c 0,0.34899 0.05608,0.64023 0.177767,0.85628 0.112328,0.21604 0.271671,0.3901 0.458886,0.50643 0.187214,0.12464 0.402634,0.20805 0.636654,0.2496 0.23402,0.0498 0.46775,0.0661 0.70177,0.0661 h 2.68665 c 0.22466,0 0.45845,-0.0163 0.69247,-0.0661 0.23402,-0.0416 0.44944,-0.12496 0.63665,-0.2496 0.18722,-0.11633 0.3465,-0.29039 0.46819,-0.50643 0.11232,-0.21605 0.17777,-0.50729 0.17777,-0.85628 v -1.01337 c 0,-0.34899 -0.0654,-0.63196 -0.17777,-0.84801 -0.12169,-0.21604 -0.28097,-0.39006 -0.46819,-0.5147 -0.18721,-0.11634 -0.40263,-0.19976 -0.63665,-0.2496 -0.23402,-0.0414 -0.46781,-0.0661 -0.69247,-0.0661 z m 1.04851,1.19627 h 0.43047 c 0.28082,0 0.51506,0.0165 0.70228,0.0331 0.17785,0.0166 0.3182,0.0582 0.42116,0.108 0.10297,0.0499 0.16823,0.12462 0.20567,0.21601 0.0374,0.0914 0.0563,0.20812 0.0563,0.34107 v 0.58136 c 0,0.14956 -0.0189,0.26623 -0.0563,0.34933 -0.0374,0.0914 -0.1027,0.16616 -0.20567,0.21601 -0.10297,0.0499 -0.24331,0.0914 -0.42116,0.108 -0.18722,0.0165 -0.42146,0.0248 -0.70228,0.0248 h -0.43047 c -0.41187,0 -0.72062,-0.0501 -0.92656,-0.16639 -0.20594,-0.10802 -0.29972,-0.31577 -0.29972,-0.62322 v -0.39843 -5.1e-4 c 0,-0.29914 0.0938,-0.50688 0.29972,-0.62322 0.20594,-0.10805 0.51469,-0.16588 0.92656,-0.16588 z"
       id="path28" />
    <path
       style="font-weight:800;font-size:88.1944px;font-family:Purgatory;-inkscape-font-specification:'Purgatory Ultra-Bold';fill:#f4e3d7;fill-opacity:1;stroke-width:0.391"
       d="m 55.08501,115.11337 c -0.234019,0 -0.468264,0.0246 -0.702283,0.0661 -0.234019,0.0499 -0.448921,0.13326 -0.636137,0.2496 -0.187215,0.12464 -0.346557,0.29866 -0.458887,0.5147 -0.121686,0.21605 -0.177766,0.49902 -0.177766,0.84801 v 1.01337 c 0,0.34899 0.05608,0.64023 0.177766,0.85628 0.11233,0.21604 0.271672,0.3901 0.458887,0.50643 0.187216,0.12464 0.402118,0.20805 0.636137,0.2496 0.234019,0.0498 0.468264,0.0661 0.702283,0.0661 h 2.686657 c 0.224659,0 0.458446,-0.0163 0.692465,-0.0661 0.234019,-0.0416 0.449438,-0.12496 0.636653,-0.2496 0.187215,-0.11633 0.346499,-0.29039 0.468189,-0.50643 0.112324,-0.21605 0.177767,-0.50729 0.177767,-0.85628 v -1.01337 c 0,-0.34899 -0.06544,-0.63196 -0.177767,-0.84801 -0.12169,-0.21604 -0.280974,-0.39006 -0.468189,-0.5147 -0.187215,-0.11634 -0.402634,-0.19976 -0.636653,-0.2496 -0.234019,-0.0414 -0.467806,-0.0661 -0.692465,-0.0661 z m 1.048515,1.19627 h 0.430464 c 0.280824,0 0.515069,0.0165 0.702283,0.0331 0.177855,0.0166 0.318199,0.0582 0.421163,0.108 0.102973,0.0499 0.168227,0.12462 0.205672,0.21601 0.03745,0.0914 0.05633,0.20812 0.05633,0.34107 v 0.58136 c 0,0.14956 -0.01888,0.26623 -0.05633,0.34933 -0.03744,0.0914 -0.102708,0.16616 -0.205672,0.21601 -0.102969,0.0499 -0.243308,0.0914 -0.421163,0.108 -0.187214,0.0165 -0.421459,0.0248 -0.702283,0.0248 h -0.430464 c -0.411874,0 -0.720623,-0.0501 -0.926559,-0.16639 -0.205941,-0.10802 -0.299723,-0.31577 -0.299723,-0.62322 v -0.39843 -5.1e-4 c 0,-0.29914 0.09379,-0.50688 0.299723,-0.62322 0.205936,-0.10805 0.514685,-0.16588 0.926559,-0.16588 z"
       id="path27" />
    <path
       style="font-weight:800;font-size:88.1944px;font-family:Purgatory;-inkscape-font-specification:'Purgatory Ultra-Bold';fill:#f4e3d7;fill-opacity:1;stroke-width:0.391"
       d="m 155.86284,115.11285 c -0.33699,0 -0.63656,0.0334 -0.89866,0.0832 -0.27145,0.0499 -0.50518,0.14968 -0.70176,0.29094 -0.19658,0.14957 -0.34663,0.34913 -0.44959,0.59841 -0.11232,0.25759 -0.15864,0.58144 -0.15864,0.9803 v 0.40721 c 0,0.45702 0.0652,0.81466 0.21497,1.08056 0.14042,0.26591 0.3277,0.47321 0.56172,0.60616 0.22467,0.14126 0.48704,0.23288 0.77722,0.26614 0.29019,0.0416 0.58929,0.0579 0.88883,0.0579 h 1.34824 c 0.31827,0 0.62707,-0.0163 0.91726,-0.0496 0.28082,-0.0332 0.53349,-0.0998 0.74879,-0.19947 0.2153,-0.0914 0.38365,-0.22449 0.5147,-0.39067 0.12173,-0.16619 0.18758,-0.39039 0.18758,-0.65629 v -0.18294 h -1.68517 c 0,0.0665 -0.009,0.12481 -0.0279,0.18294 -0.0187,0.0582 -0.0565,0.10779 -0.12196,0.14934 -0.0655,0.0499 -0.16816,0.083 -0.29921,0.10801 -0.14042,0.0331 -0.32764,0.0418 -0.57102,0.0418 h -0.55242 c -0.37442,0 -0.65517,-0.0332 -0.83303,-0.11627 -0.18718,-0.0748 -0.27181,-0.22467 -0.27181,-0.45733 v -0.25735 h 4.36252 v -0.71469 c 0,-0.36561 -0.0562,-0.66491 -0.15916,-0.90589 -0.10298,-0.23265 -0.2622,-0.4236 -0.47749,-0.55655 -0.2153,-0.13295 -0.49604,-0.23283 -0.83303,-0.28267 -0.34635,-0.0498 -0.75824,-0.0832 -1.22628,-0.0832 z m 0.89865,0.99732 c 0.26211,0 0.47746,0.008 0.64596,0.0248 0.16849,0.0166 0.2996,0.0417 0.40256,0.0832 0.0936,0.0499 0.16872,0.10813 0.20618,0.18293 0.0375,0.0831 0.0558,0.18284 0.0558,0.30748 h -2.62103 c 0,-0.12464 0.01,-0.22438 0.0377,-0.30748 0.0281,-0.0748 0.0841,-0.13309 0.17777,-0.18293 0.0936,-0.0416 0.22476,-0.0666 0.39325,-0.0832 0.1685,-0.0165 0.40223,-0.0248 0.70177,-0.0248 z"
       id="path26" />
    <path
       style="font-weight:800;font-size:88.1944px;font-family:Purgatory;-inkscape-font-specification:'Purgatory Ultra-Bold';fill:#f4e3d7;fill-opacity:1;stroke-width:0.391"
       d="m 149.97534,115.11285 c -0.48676,0 -0.88011,0.0584 -1.19837,0.15813 -0.31827,0.0997 -0.56181,0.29932 -0.71159,0.59015 h -0.0186 v -0.68162 h -1.79731 v 4.23799 h 1.79731 v -2.13579 c 0,-0.29914 0.10302,-0.53148 0.31832,-0.68936 0.21529,-0.14957 0.51481,-0.23306 0.90796,-0.23306 h 0.41186 c 0.76758,0 1.16065,0.20774 1.16065,0.62321 v 2.435 h 1.79731 v -2.435 c 0,-0.29914 -0.0466,-0.55651 -0.12144,-0.77256 -0.0843,-0.20773 -0.19658,-0.38222 -0.32763,-0.52348 -0.13105,-0.13295 -0.29034,-0.24091 -0.46819,-0.32401 -0.18721,-0.0748 -0.37444,-0.13314 -0.57102,-0.1664 -0.19658,-0.0332 -0.393,-0.0577 -0.59893,-0.0661 -0.20594,-0.008 -0.39311,-0.0171 -0.58033,-0.0171 z"
       id="path25" />
    <path
       style="font-weight:800;font-size:88.1944px;font-family:Purgatory;-inkscape-font-specification:'Purgatory Ultra-Bold';fill:#f4e3d7;fill-opacity:1;stroke-width:0.391"
       d="m 135.86819,115.11285 c -0.48676,0 -0.87959,0.0584 -1.19786,0.15813 -0.31826,0.0997 -0.56181,0.29932 -0.71158,0.59015 h -0.0186 v -0.68162 h -1.7973 v 4.23799 h 1.7973 v -2.13579 c 0,-0.29914 0.10303,-0.53148 0.31833,-0.68936 0.21529,-0.14957 0.51481,-0.23306 0.90796,-0.23306 h 0.41186 c 0.76758,0 1.16065,0.20774 1.16065,0.62321 v 2.435 h 1.79731 v -2.435 c 0,-0.29914 -0.0471,-0.55651 -0.12196,-0.77256 -0.0842,-0.20773 -0.19658,-0.38222 -0.32763,-0.52348 -0.13105,-0.13295 -0.28981,-0.24091 -0.46767,-0.32401 -0.18722,-0.0748 -0.37445,-0.13314 -0.57102,-0.1664 -0.19658,-0.0332 -0.39301,-0.0577 -0.59893,-0.0661 -0.20594,-0.008 -0.39363,-0.0171 -0.58085,-0.0171 z"
       id="path24" />
    <path
       style="font-weight:800;font-size:88.1944px;font-family:Purgatory;-inkscape-font-specification:'Purgatory Ultra-Bold';fill:#f4e3d7;fill-opacity:1;stroke-width:0.391"
       d="m 110.47284,115.11285 c -0.20594,0 -0.40292,0.0169 -0.59014,0.0419 -0.18722,0.0332 -0.36492,0.0746 -0.5147,0.14108 -0.15913,0.0665 -0.29023,0.15806 -0.40256,0.2744 -0.11232,0.11633 -0.19659,0.24929 -0.24339,0.41548 h -0.0186 v -0.80616 h -1.68465 v 4.23799 h 1.79679 v -2.34353 c 0,-0.24928 0.0933,-0.43196 0.28991,-0.54829 0.18721,-0.10805 0.43982,-0.16639 0.75809,-0.16639 0.17785,0 0.32796,0.0169 0.44028,0.0501 0.11233,0.0332 0.19651,0.0828 0.262,0.14935 0.0562,0.0665 0.10276,0.14988 0.12144,0.24959 0.0188,0.0997 0.0377,0.21587 0.0377,0.34882 h 1.55391 c 0,-0.0748 0.009,-0.14134 0.009,-0.19947 0,-0.0582 0.01,-0.11654 0.01,-0.17467 0,-0.58166 -0.14034,-1.00534 -0.42117,-1.27124 -0.28082,-0.2659 -0.74879,-0.39894 -1.40405,-0.39894 z"
       id="path23" />
    <path
       style="font-weight:800;font-size:88.1944px;font-family:Purgatory;-inkscape-font-specification:'Purgatory Ultra-Bold';fill:#f4e3d7;fill-opacity:1;stroke-width:0.391"
       d="m 94.212854,115.11285 c -0.336988,0 -0.636552,0.0334 -0.898653,0.0832 -0.271463,0.0499 -0.50519,0.14968 -0.701766,0.29094 -0.196576,0.14957 -0.346621,0.34913 -0.449585,0.59841 -0.112327,0.25759 -0.159163,0.58144 -0.159163,0.9803 v 0.40721 c 0,0.45702 0.06572,0.81414 0.21549,1.08004 0.140412,0.26591 0.327704,0.47373 0.561723,0.60668 0.224658,0.14126 0.486514,0.23288 0.776697,0.26614 0.290184,0.0416 0.589807,0.0579 0.889351,0.0579 h 1.83503 c 0.252741,0 0.505353,-0.0163 0.758094,-0.0661 0.25274,-0.0416 0.477283,-0.11622 0.67386,-0.23255 0.196576,-0.11633 0.3558,-0.26621 0.477491,-0.45733 0.121686,-0.1828 0.187068,-0.4239 0.187068,-0.70642 v -0.37362 h -1.740979 v 0.0997 c 0,0.0997 -0.02806,0.18268 -0.08423,0.24081 -0.05617,0.0665 -0.121888,0.1166 -0.215491,0.14986 -0.09361,0.0416 -0.196178,0.0661 -0.308508,0.0827 -0.112329,0.0166 -0.234362,0.0165 -0.356051,0.0165 h -0.917257 c -0.280824,0 -0.51461,-0.0496 -0.692464,-0.14935 -0.177859,-0.0997 -0.262516,-0.28229 -0.262516,-0.56482 v -0.56534 c 0,-0.23266 0.0846,-0.39897 0.271818,-0.49868 0.177854,-0.0997 0.458593,-0.14934 0.833024,-0.14934 h 0.692464 c 0.393153,0 0.664649,0.0497 0.814421,0.13281 0.149778,0.0914 0.224792,0.24128 0.224792,0.45733 h 1.740979 v -0.3824 c 0,-0.48195 -0.196593,-0.83915 -0.571024,-1.0635 -0.383792,-0.22435 -0.9079,-0.34107 -1.572514,-0.34107 z"
       id="path22" />
    <path
       style="font-weight:800;font-size:88.1944px;font-family:Purgatory;-inkscape-font-specification:'Purgatory Ultra-Bold';fill:#f4e3d7;fill-opacity:1;stroke-width:0.391"
       d="m 87.267542,115.11285 c -0.336988,0 -0.636553,0.0334 -0.898654,0.0832 -0.271462,0.0499 -0.505707,0.14968 -0.702282,0.29094 -0.196577,0.14957 -0.346104,0.34913 -0.449069,0.59841 -0.112326,0.25759 -0.159163,0.58144 -0.159163,0.9803 v 0.40721 c 0,0.45702 0.0652,0.81466 0.214974,1.08056 0.140412,0.26591 0.327704,0.47321 0.561723,0.60616 0.224658,0.14126 0.487029,0.23288 0.777213,0.26614 0.290184,0.0416 0.589291,0.0579 0.888835,0.0579 h 1.348238 c 0.318266,0 0.627074,-0.0163 0.917257,-0.0496 0.280824,-0.0332 0.533493,-0.0998 0.748791,-0.19947 0.215298,-0.0914 0.384164,-0.22449 0.515214,-0.39067 0.121686,-0.16619 0.187069,-0.39039 0.187069,-0.65629 V 118.0047 H 89.53252 c 0,0.0665 -0.0092,0.12481 -0.02791,0.18294 -0.01873,0.0582 -0.05643,0.10779 -0.121956,0.14934 -0.06553,0.0499 -0.168156,0.083 -0.299207,0.10801 -0.140411,0.0331 -0.327644,0.0418 -0.571024,0.0418 h -0.552421 c -0.37443,0 -0.655169,-0.0332 -0.833024,-0.11627 -0.18722,-0.0748 -0.271302,-0.22467 -0.271302,-0.45733 v -0.25735 h 4.362008 v -0.71469 c 0,-0.36561 -0.0562,-0.66491 -0.159163,-0.90589 -0.102969,-0.23265 -0.262193,-0.4236 -0.477491,-0.55655 -0.215298,-0.13295 -0.496036,-0.23283 -0.833024,-0.28267 -0.346348,-0.0498 -0.758243,-0.0832 -1.226281,-0.0832 z m 0.898653,0.99732 c 0.262101,0 0.476945,0.008 0.645438,0.0248 0.168494,0.0166 0.299595,0.0417 0.40256,0.0832 0.09361,0.0499 0.168743,0.10813 0.206189,0.18293 0.03744,0.0831 0.05633,0.18284 0.05633,0.30748 H 86.85568 c 0,-0.12464 0.0091,-0.22438 0.03721,-0.30748 0.02808,-0.0748 0.08416,-0.13309 0.177767,-0.18293 0.09361,-0.0416 0.224764,-0.0666 0.393258,-0.0832 0.168494,-0.0165 0.402738,-0.0248 0.702283,-0.0248 z"
       id="path21" />
    <path
       style="font-weight:800;font-size:88.1944px;font-family:Purgatory;-inkscape-font-specification:'Purgatory Ultra-Bold';fill:#f4e3d7;fill-opacity:1;stroke-width:0.391"
       d="m 71.943929,115.11285 c -0.205936,0 -0.402414,0.0169 -0.589628,0.0419 -0.187216,0.0332 -0.365442,0.0746 -0.515214,0.14108 -0.159133,0.0665 -0.290231,0.15806 -0.402559,0.2744 -0.11233,0.11633 -0.19659,0.24929 -0.243396,0.41548 h -0.0186 v -0.80616 H 68.48988 v 4.23799 h 1.797307 v -2.34353 c 0,-0.24928 0.09333,-0.43196 0.289904,-0.54829 0.187216,-0.10805 0.439828,-0.16639 0.758094,-0.16639 0.177854,0 0.327954,0.0169 0.440283,0.0501 0.11233,0.0332 0.19647,0.0828 0.261999,0.14935 0.05616,0.0665 0.102717,0.14988 0.12144,0.24959 0.01872,0.0997 0.03772,0.21587 0.03772,0.34882 h 1.55391 c 0,-0.0748 0.0093,-0.14134 0.0093,-0.19947 0,-0.0582 0.0093,-0.11654 0.0093,-0.17467 0,-0.58166 -0.140339,-1.00534 -0.421163,-1.27124 -0.280823,-0.2659 -0.748795,-0.39894 -1.404049,-0.39894 z"
       id="path20" />
    <path
       style="font-weight:800;font-size:88.1944px;font-family:Purgatory;-inkscape-font-specification:'Purgatory Ultra-Bold';fill:#f4e3d7;fill-opacity:1;stroke-width:0.391"
       d="m 143.11375,113.40136 v 1.24643 h 1.7973 v -1.24643 z"
       id="path18" />
    <path
       style="font-weight:800;font-size:88.1944px;font-family:Purgatory;-inkscape-font-specification:'Purgatory Ultra-Bold';fill:#f4e3d7;fill-opacity:1;stroke-width:0.391"
       d="m 139.87467,113.40136 v 6.01617 h 1.7973 v -6.01617 z"
       id="path17" />
    <path
       style="font-weight:800;font-size:88.1944px;font-family:Purgatory;-inkscape-font-specification:'Purgatory Ultra-Bold';fill:#f4e3d7;fill-opacity:1;stroke-width:0.391"
       d="m 117.85844,113.40136 v 2.55953 h -0.0186 c -0.0374,-0.16619 -0.10328,-0.29919 -0.19689,-0.40721 -0.10297,-0.10803 -0.22437,-0.19962 -0.37414,-0.26613 -0.14977,-0.0664 -0.31824,-0.10784 -0.49609,-0.13281 -0.17786,-0.025 -0.35592,-0.0419 -0.54312,-0.0419 h -0.5333 c -0.57101,0 -1.02055,0.0502 -1.35754,0.13333 -0.33699,0.0831 -0.59937,0.20747 -0.77722,0.36535 -0.17785,0.15788 -0.29008,0.3493 -0.34623,0.56534 -0.0563,0.22436 -0.0749,0.47358 -0.0749,0.73949 v 0.76429 c 0,0.27422 0.0188,0.52345 0.0749,0.73949 0.0562,0.22436 0.16838,0.41573 0.34623,0.57361 0.17785,0.15787 0.44023,0.28225 0.77722,0.36535 0.33699,0.0831 0.78653,0.12454 1.35754,0.12454 h 0.524 c 0.26209,0 0.49588,-0.0163 0.69246,-0.0579 0.19657,-0.0332 0.3655,-0.0916 0.50591,-0.1664 0.13106,-0.0748 0.24336,-0.16591 0.32763,-0.26562 0.0842,-0.0997 0.14953,-0.22465 0.20567,-0.3576 h 0.0186 v 0.78135 h 1.68517 v -6.01617 z m -2.0314,2.90828 h 1.05782 c 0.16849,0 0.32777,0.0165 0.46818,0.0331 0.13105,0.0249 0.24332,0.0664 0.33693,0.12454 0.0936,0.0582 0.15887,0.13335 0.20568,0.23306 0.0468,0.0997 0.0749,0.23228 0.0749,0.39016 v 0.41548 c 0,0.16618 -0.0281,0.29096 -0.0749,0.39067 -0.0468,0.0997 -0.11206,0.18268 -0.20568,0.24081 -0.0936,0.0582 -0.20588,0.10021 -0.33693,0.11679 -0.14041,0.0248 -0.29969,0.0331 -0.46818,0.0331 h -1.05782 c -0.22466,0 -0.39301,-0.0169 -0.5147,-0.0501 -0.13105,-0.0332 -0.22497,-0.0747 -0.28112,-0.14108 -0.0656,-0.0582 -0.10276,-0.13283 -0.12144,-0.23254 -0.0185,-0.0914 -0.0279,-0.19942 -0.0279,-0.31575 v -0.49867 c 0,-0.11634 0.009,-0.21604 0.0279,-0.31575 0.0187,-0.0914 0.0559,-0.16602 0.12144,-0.23254 0.0562,-0.0582 0.15007,-0.10834 0.28112,-0.14159 0.12169,-0.0333 0.29004,-0.0496 0.5147,-0.0496 z"
       id="path16" />
    <path
       style="font-weight:800;font-size:88.1944px;font-family:Purgatory;-inkscape-font-specification:'Purgatory Ultra-Bold';fill:#f4e3d7;fill-opacity:1;stroke-width:0.391"
       d="m 75.659981,113.40136 v 6.01617 h 2.07791 v -1.56218 h 3.266984 c 0.318266,0 0.542868,0.0661 0.664559,0.18242 0.121685,0.12464 0.187585,0.34105 0.187585,0.6568 v 0.72296 h 2.077909 v -1.02216 c 0,-0.24929 -0.03737,-0.4488 -0.09353,-0.60668 -0.05616,-0.15788 -0.140432,-0.29096 -0.243396,-0.39068 -0.102969,-0.0997 -0.224483,-0.16616 -0.355534,-0.21601 -0.140412,-0.0498 -0.290511,-0.083 -0.440283,-0.11627 v -0.0165 c 0.234019,-0.0499 0.430554,-0.11638 0.580326,-0.19947 0.149773,-0.0831 0.271809,-0.19111 0.356051,-0.31575 0.08425,-0.11633 0.140321,-0.25755 0.177767,-0.42374 0.02808,-0.15788 0.04651,-0.3406 0.04651,-0.54002 v -0.38241 c 0,-0.2659 -0.03737,-0.51517 -0.09354,-0.73122 -0.06552,-0.21604 -0.177856,-0.40694 -0.327628,-0.56482 -0.149772,-0.14957 -0.355433,-0.2745 -0.617534,-0.3576 -0.262102,-0.0831 -0.599035,-0.13281 -0.992187,-0.13281 z m 2.07791,1.49548 h 3.24838 c 0.327627,0 0.571114,0.042 0.720886,0.11679 0.149778,0.0831 0.234095,0.2488 0.234095,0.5147 v 0.19947 c 0,0.21604 -0.06596,0.38243 -0.178284,0.48214 -0.112329,0.0997 -0.308804,0.14935 -0.589628,0.14935 h -3.435449 z"
       id="path15" />
    <path
       style="font-weight:800;font-size:88.1944px;font-family:Purgatory;-inkscape-font-specification:'Purgatory Ultra-Bold';fill:#f4e3d7;fill-opacity:1;stroke-width:0.391"
       d="m 42.962752,113.40136 3.753776,3.92224 v 2.09393 h 2.07791 v -2.09393 l 3.753776,-3.92224 h -2.508891 l -2.283582,2.4598 -2.284098,-2.4598 z"
       id="path14" />
    <path
       style="font-weight:800;font-size:88.1944px;font-family:Purgatory;-inkscape-font-specification:'Purgatory Ultra-Bold';fill:#f4e3d7;fill-opacity:1;stroke-width:0.391"
       d="m 124.65441,113.33466 c -0.46805,0 -0.88964,0.0333 -1.25471,0.0915 -0.37443,0.0665 -0.68306,0.17488 -0.94516,0.34107 -0.26211,0.16619 -0.45857,0.38204 -0.58963,0.66456 -0.13108,0.28251 -0.19688,0.64794 -0.19688,1.08003 v 1.79524 c 0,0.44871 0.0658,0.80578 0.19688,1.08831 0.13106,0.28252 0.32752,0.49837 0.58963,0.66456 0.2621,0.16619 0.57073,0.27466 0.94516,0.33279 0.36507,0.0664 0.78666,0.0909 1.25471,0.0909 h 3.33209 c 0.46804,0 0.88027,-0.0245 1.25471,-0.0909 0.36507,-0.0582 0.67375,-0.1666 0.93586,-0.33279 0.26209,-0.16619 0.45858,-0.38204 0.58963,-0.66456 0.131,-0.28253 0.20618,-0.6396 0.20618,-1.08831 v -1.79524 c 0,-0.43209 -0.0751,-0.79752 -0.20618,-1.08003 -0.13105,-0.28252 -0.32754,-0.49837 -0.58963,-0.66456 -0.26211,-0.16619 -0.57079,-0.27455 -0.93586,-0.34107 -0.37444,-0.0581 -0.78667,-0.0915 -1.25471,-0.0915 z m 0.44906,1.54568 h 2.43396 c 0.27147,0 0.49607,0.0333 0.66456,0.0832 0.1685,0.0582 0.29965,0.1411 0.39326,0.24081 0.0936,0.10802 0.1496,0.23283 0.18707,0.3824 0.0375,0.14957 0.0563,0.31587 0.0563,0.49868 v 0.64802 c 0,0.21604 -0.0189,0.40699 -0.047,0.55656 -0.0374,0.15788 -0.0935,0.28275 -0.17777,0.37414 -0.0936,0.0997 -0.21506,0.16619 -0.36483,0.20774 -0.15913,0.0499 -0.35607,0.0667 -0.59945,0.0667 h -2.65823 c -0.24339,0 -0.44916,-0.0168 -0.59893,-0.0667 -0.15914,-0.0416 -0.28108,-0.10802 -0.36536,-0.20774 -0.0936,-0.0914 -0.14964,-0.21626 -0.17776,-0.37414 -0.0373,-0.14957 -0.047,-0.34052 -0.047,-0.55656 v -0.64802 c 0,-0.18281 0.01,-0.34911 0.047,-0.49868 0.0374,-0.14957 0.10275,-0.27438 0.19637,-0.3824 0.0936,-0.0997 0.22476,-0.18268 0.39326,-0.24081 0.16849,-0.0499 0.38374,-0.0832 0.66455,-0.0832 z"
       id="path13" />
    <path
       style="font-weight:800;font-size:88.1944px;font-family:Purgatory;-inkscape-font-specification:'Purgatory Ultra-Bold';fill:url(#linearGradient21);fill-opacity:1;stroke-width:0.391"
       d="m 97.965597,83.83879 v 23.58667 H 97.43643 78.124947 l -6.088,-8.064104 H 96.20188 L 84.031047,86.13219 H 57.66108 l -6.526217,7.760766 10.535275,13.532504 H 61.140971 41.706498 v 4.21267 h 22.714376 16.355074 16.660482 14.72882 13.50718 16.80208 18.03197 v -4.21267 H 139.8943 L 122.484,83.83879 Z m 14.728813,9.789583 10.34769,13.797087 h -0.52916 -9.81853 z"
       id="path19" />
  </g>
</svg>
