<?xml version="1.0" encoding="UTF-8" standalone="no"?>
<!-- Created with Inkscape (http://www.inkscape.org/) -->

<svg
   width="210mm"
   height="297mm"
   viewBox="0 0 210 297"
   version="1.1"
   id="svg1"
   inkscape:version="1.4 (86a8ad7, 2024-10-11)"
   sodipodi:docname="logo.svg"
   xmlns:inkscape="http://www.inkscape.org/namespaces/inkscape"
   xmlns:sodipodi="http://sodipodi.sourceforge.net/DTD/sodipodi-0.dtd"
   xmlns="http://www.w3.org/2000/svg"
   xmlns:svg="http://www.w3.org/2000/svg">
  <sodipodi:namedview
     id="namedview1"
     pagecolor="#ffffff"
     bordercolor="#000000"
     borderopacity="0.25"
     inkscape:showpageshadow="2"
     inkscape:pageopacity="0.0"
     inkscape:pagecheckerboard="0"
     inkscape:deskcolor="#d1d1d1"
     inkscape:document-units="mm"
     inkscape:zoom="0.62805135"
     inkscape:cx="495.18244"
     inkscape:cy="585.14324"
     inkscape:window-width="1308"
     inkscape:window-height="891"
     inkscape:window-x="648"
     inkscape:window-y="150"
     inkscape:window-maximized="0"
     inkscape:current-layer="layer1" />
  <defs
     id="defs1">
    <rect
       x="229.28062"
       y="391.68772"
       width="305.70749"
       height="211.76612"
       id="rect1" />
  </defs>
  <g
     inkscape:label="Capa 1"
     inkscape:groupmode="layer"
     id="layer1">
    <text
       xml:space="preserve"
       transform="scale(0.26458333)"
       id="text1"
       style="font-size:192px;font-family:'Iron Maiden';-inkscape-font-specification:'Iron Maiden';text-align:start;writing-mode:lr-tb;direction:ltr;white-space:pre;shape-inside:url(#rect1);fill:#000000;stroke-width:1.4778" />
    <path
       d="m 152.73641,117.95766 h -16.63722 l 5.43481,7.24607 h -29.36875 v -7.24607 H 97.43643 v 22.23947 h 46.56667 l 12.2592,-17.4625 z"
       style="font-weight:800;font-size:88.1944px;font-family:Purgatory;-inkscape-font-specification:'Purgatory Ultra-Bold';stroke-width:0.391"
       id="path19" />
    <path
       id="path8"
       style="font-weight:800;font-size:88.1944px;font-family:Purgatory;-inkscape-font-specification:'Purgatory Ultra-Bold';stroke-width:0.391"
       d="M 97.965597 76.255811 L 97.965597 99.842485 L 97.43643 99.842485 L 78.124947 99.842485 L 72.036947 91.778377 L 96.20188 91.778377 L 84.031047 78.549211 L 57.66108 78.549211 L 51.134863 86.309977 L 61.670138 99.842485 L 61.140971 99.842485 L 41.706498 99.842485 L 41.706498 104.05515 L 64.420874 104.05515 L 80.775948 104.05515 L 97.43643 104.05515 L 112.16525 104.05515 L 125.67243 104.05515 L 142.47451 104.05515 L 160.50648 104.05515 L 160.50648 99.842485 L 139.8943 99.842485 L 122.484 76.255811 L 97.965597 76.255811 z M 112.69441 86.045394 L 123.0421 99.842485 L 122.51294 99.842485 L 112.69441 99.842485 L 112.69441 86.045394 z " />
    <path
       d="M 91.271431,117.95766 H 75.243986 l 6.053377,7.77523 -18.520833,-0.17621 -8.202083,14.7283 h 30.1625 l 10.4066,-17.19792 z"
       style="font-weight:800;font-size:88.1944px;font-family:Purgatory;-inkscape-font-specification:'Purgatory Ultra-Bold';stroke-width:0.391"
       id="path20" />
    <path
       d="m 149.62653,113.74448 3.10988,4.21318 h 7.77007 v -4.21318 z"
       style="stroke-width:0.391001"
       id="path18" />
    <path
       d="m 149.62653,113.74448 h -16.68684 l 3.1595,4.21318 h 16.63722 z"
       style="stroke-width:0.391001"
       id="path17" />
    <path
       d="m 132.93969,113.74448 h -20.77444 v 4.21318 h 23.93394 z"
       style="stroke-width:0.391001"
       id="path16" />
    <path
       d="m 97.43643,117.95766 h 14.72882 v -4.21318 H 97.43643 Z"
       style="stroke-width:0.391001"
       id="path15" />
    <path
       d="m 97.43643,117.95766 v -4.21318 h -9.345683 l 3.180684,4.21318 z"
       style="stroke-width:0.391001"
       id="path14" />
    <path
       d="M 88.090747,113.74448 H 71.964083 l 3.279903,4.21318 h 16.027445 z"
       style="stroke-width:0.391001"
       id="path13" />
    <path
       d="m 75.243986,117.95766 -3.279903,-4.21318 H 41.706498 v 4.21318 z"
       style="stroke-width:0.391001"
       id="path12" />
    <text
       xml:space="preserve"
       style="font-style:normal;font-variant:normal;font-weight:800;font-stretch:normal;font-size:8.81944px;font-family:Purgatory;-inkscape-font-specification:'Purgatory Ultra-Bold';text-align:start;writing-mode:lr-tb;direction:ltr;text-anchor:start;fill:#000000;stroke-width:0.58589"
       x="40.416592"
       y="118.69865"
       id="text20"
       transform="scale(1.0613787,0.94217079)"><tspan
         sodipodi:role="line"
         id="tspan20"
         style="font-style:normal;font-variant:normal;font-weight:normal;font-stretch:normal;font-size:8.81944px;font-family:'Tour Font 2025';-inkscape-font-specification:'Tour Font 2025, ';stroke-width:0.585889"
         x="40.416592"
         y="118.69865">Your Record Online</tspan></text>
  </g>
</svg>
