<?xml version="1.0" standalone="no"?>
<!DOCTYPE svg PUBLIC "-//W3C//DTD SVG 1.1//EN" "http://www.w3.org/Graphics/SVG/1.1/DTD/svg11.dtd" >
<svg xmlns="http://www.w3.org/2000/svg" xmlns:xlink="http://www.w3.org/1999/xlink" version="1.1">
<metadata></metadata>
<defs>
<font id="the_font_of_the_beastregular" horiz-adv-x="830" >
<font-face units-per-em="2048" ascent="1638" descent="-410" />
<missing-glyph horiz-adv-x="755" />
<glyph horiz-adv-x="0" />
<glyph unicode="&#xd;" horiz-adv-x="755" />
<glyph unicode=" "  horiz-adv-x="755" />
<glyph unicode="&#x09;" horiz-adv-x="755" />
<glyph unicode="&#xa0;" horiz-adv-x="755" />
<glyph unicode="!" horiz-adv-x="354" d="M0 756l4 50l27 91l3 99l-23 80l27 50l8 53l-8 282l27 61l27 92l-8 53l-19 38l-27 34l38 80l35 27h61l49 -11l15 -46l8 -50l-34 -87l-38 -172l22 -65l-22 -99v-57l-19 -72l22 -271l-30 -221l42 -122l7 -83l-7 -12l-27 -7l-7 11l-31 4l-11 -8l-16 31l-7 45l-16 42l-45 16 l-4 49zM23 78l8 46l72 84q19 4 38 15l46 -11l34 -20l8 -41l-15 -84l-20 -38l-30 -23l-50 -4l-42 15l-30 23zM95 836h8l-4 8zM118 539l12 -23q-2 14 -12 23z" />
<glyph unicode="&#x22;" d="M0 1090v52l40 60v44l20 128l28 76q24 22 60 40l44 -8l76 -76l36 -68l-24 -76l-36 -56l-48 -104l-60 -84l-32 -20l-36 8l-56 44zM416 1082v52l40 60v44l20 128l28 76q24 22 60 40l44 -8l76 -76l36 -68l-24 -76l-36 -56l-48 -104l-60 -84l-32 -20l-36 8l-56 44z" />
<glyph unicode="#" horiz-adv-x="1230" d="M0 543l36 12l17 14l24 12l31 -2l22 12l29 5l53 -10l22 12l12 48l14 22l19 94l17 46l12 17l15 72l-32 2l-55 12l-46 -7l-60 12l-55 -7l-41 7l-27 -2l-7 14l36 12l17 15l24 12l31 -3l22 12l29 5l53 -10l26 8l78 -12l26 14l29 5l41 89l12 51l31 60l10 48l12 22l14 48l15 2 l5 -21l-5 -17l12 -32l-10 -48l7 -5l-4 -16v-25l-32 -60l3 -19l-17 -22l-5 -26l-14 -36l60 12l123 -8l26 8l51 -17l19 -15l75 10l7 -5l22 75l12 17l16 74l39 87l2 27l24 43q2 11 5 24l20 -19l-5 -12l9 -48l-9 -39l5 -5l-5 -48l-24 -39l-10 -45l-10 -17l-4 -24l-22 -46l17 -10 l38 8l46 -12l63 4l55 -7l19 5l8 -2l-10 -20l-27 -7l-19 -14l-24 -8l-29 -2l-24 -12l-29 -5l-55 12l-27 -7l-14 7l-5 -5l-34 -96l-26 -36l-7 -27l-22 -41l2 -19l-9 -50l-17 -46l29 -3l29 8l65 -10l57 7l70 -12l68 5l26 -7l29 5l5 -15l-10 -7l-26 -7l-19 -15l-24 -9l-22 2 l-58 -19l-55 12l-27 -7l-26 7l-29 -5l-58 10l-31 -3l-39 -58l-12 -50l-24 -43l-5 -29l-31 -85l-10 -14l-12 19l5 17l-14 48l14 32l-7 21l9 44l15 19l9 24l-2 14l17 36l-36 -2l-60 17l-25 -3l-31 10l-180 -22l-22 -7l-12 -21l-17 -17l-10 -48l3 -8l-27 -41l-21 -74l-20 -36 l3 -8l-5 -17l-17 13l2 24l-12 48l10 21l-7 22l9 46l25 41l2 22l22 52l-32 -4l-60 12l-55 -8l-41 8l-27 -3zM166 165q3 10 10 21l9 -17l-9 -7zM173 95l8 14l9 -2l-7 -17zM313 589l7 -8l24 15l49 5l48 -8l91 12l94 -7l44 10l9 41l19 33l13 78l14 40l17 27l19 77l-46 -7h-103 l-44 7l-19 7l-24 -2q-19 6 -43 9l-44 -12q-15 -10 -21 -31l-17 -38l-10 -39l-21 -29l-13 -36l-21 -34l-10 -74zM600 167q3 11 9 22l10 -17l-10 -7zM607 97l7 15l10 -3l-7 -17z" />
<glyph unicode="$" horiz-adv-x="1169" d="M0 187l19 50l45 15l93 -44l39 -30l39 -5l15 10l20 44l44 30l29 33l118 21l44 14l20 49l9 78l-34 70l-5 127l15 54l-25 171l-24 40h-118l-48 19l-16 -10l-29 15l-39 98l-44 25l-25 43l-34 103v64l25 93l63 74l127 79l26 44l43 24l113 25l34 -11l-5 84l15 108l-10 40l5 14 l44 -30l15 -54l30 -38l44 -148l29 -19l74 -15l33 10q29 -2 30 -34l-54 -15l-117 -74l-5 -44l15 -64l-15 -29l10 -14l9 -103l-9 -16v-63l9 -59l265 -73l73 -64l25 -44l10 -59v-69l-10 -54l-68 -205l-84 -124l-34 -33l-118 -89l-88 -44l-20 -118l10 -112l-14 -78l9 -35 q0 -25 -29 -29l-20 54l-54 83v54l-24 44l-30 97l-49 -5l-34 -33l-132 -69h-89l-48 -20l-35 -34l-34 -88l-15 -9l-35 14l30 98l29 39l11 44l-35 34zM10 -238q9 20 25 40l43 -25l-39 -34zM196 1183l24 -49q-5 26 -24 49zM255 1296h19l25 78l-15 5l-29 -39v-44zM319 1228 l14 -59l84 -84l68 -14l15 14l-15 78l69 138l-24 122l9 15q-11 27 -44 29l-97 -68l-45 -44l-25 -54zM613 -277q6 22 20 44l19 -35l-19 -14zM628 -419l14 29l19 -5l-14 -35zM637 820l24 -166v-103l16 -89v-68l-10 -25l176 118l15 49l-19 68l14 40l49 54l5 49l-78 73l-69 35 q-33 14 -74 24q-33 -19 -49 -59zM794 325l45 29q9 15 9 35l-39 -35z" />
<glyph unicode="%" horiz-adv-x="1108" d="M0 1444l12 52l44 84l33 37l8 44l24 44l44 20h52q21 5 45 16l52 -16l36 -28l20 -44l32 -32l17 -53l-5 -36l25 -113l-16 -52l-49 -80l-129 -65l-20 -44h-24l8 28l-76 44l-32 33l-45 20l-32 32zM72 1452l8 -8l5 28q-1 4 -9 8zM93 1407l8 -24l36 -40l56 -20h69q28 4 48 28 l40 60l-24 97l4 32l-36 77l-16 12l-37 -8l-56 16l-44 -36l-44 -85l16 -56l-12 -16zM205 1134q9 1 16 8l12 -24l-16 -4zM233 192l12 12l9 49l-9 16l9 60l28 48l36 113l28 48l16 53l-8 68l16 60l32 57l21 116l64 173l12 57l28 56l44 36l21 49l8 68l52 109l16 60l64 169l12 64 l33 53l16 60l28 -36l-8 -16l12 -41l8 -64l-16 -36l8 -12l-4 -61l-20 -56l-28 -48l-4 -48l-8 -9l-69 -164l-24 -121l-64 -173l-37 -53l-44 -108l4 -32l-12 -29l-8 -56l-24 -60l4 -28l-28 -93l-36 -52l-37 -121l-36 -52l-16 -69l-56 -157q-22 12 -24 41zM245 -65q6 18 17 36 l16 -28l-16 -12zM258 -181l12 24l16 -4l-12 -29zM559 212l12 53l45 84l32 36l8 45l24 44l44 20h53q21 5 44 16l52 -16l36 -28l21 -44l32 -33l16 -52l-4 -36l24 -113l-16 -52l-48 -81l-129 -63l-20 -45h-24l8 28l-77 44l-32 32l-44 21l-32 32zM632 220l8 -8l4 29q-1 4 -8 8z M652 176l8 -24l36 -40l57 -20h68q28 4 48 28l40 60l-24 97l4 32l-36 76l-16 12l-36 -8l-57 17l-44 -37l-44 -84l16 -57l-12 -16zM765 -97q9 2 16 8l12 -24l-16 -4z" />
<glyph unicode="&#x26;" horiz-adv-x="1604" d="M0 525l78 234l122 155v61l78 117l89 50q50 4 83 45l-45 233l34 105l150 256l94 44l61 -5l39 22l56 -17l44 -27l111 -167l33 -211l-33 -106q-11 -49 -50 -94l-144 -72l44 -11l39 -100q36 -30 45 -78l-23 -28l28 -56l22 -111v-111l34 -105l16 -95l-5 -22l83 56l89 16 l55 -16l73 33l111 -33l50 11l33 -39l-328 -106l-83 -55l-33 -6l11 -66l16 -39l-5 -45l11 -89l-22 -116q-2 -34 -34 -55l-11 27q-7 42 -33 84l-55 71l-17 100l-89 -27l-89 -50l-105 -34q-43 -17 -67 -66l-56 -89l-33 -5l-11 11l22 55q-12 41 -61 55l-105 34l-67 72l-172 106 q-26 39 -34 94l-33 105zM167 509h16l11 66l-22 17zM205 409l12 -28l83 -94l117 -61l138 -12l89 23l56 27l66 111l12 50l-73 195l-16 122l-28 50l-39 128l-61 -11l-128 44l-39 -50l-61 -28l-105 -161l-11 -44l33 -83zM467 -213l38 22l28 -44l-39 -17zM555 1531l11 -22l12 -84 l38 -44l12 -72q18 -35 61 -45h94q39 6 67 39l55 83l-33 134l6 44l-50 106l-23 16l-50 -11l-77 23l-62 -50zM850 981q8 -10 22 -11zM1027 -263l12 39l33 -22l-11 -34z" />
<glyph unicode="'" horiz-adv-x="366" d="M0 1138v60l40 76v76q7 30 36 56l28 52q28 10 60 28l72 -20q19 -28 20 -64l-12 -148l-56 -124l-92 -80l-64 28z" />
<glyph unicode="(" horiz-adv-x="1041" d="M0 522l23 64l-23 284l6 127l40 225l41 93l109 161l64 70l220 179q231 93 278 122q47 -8 98 -41l52 -69v-63l-41 -29q-30 -39 -86 -52l-99 23l-75 -70l-179 -86l-76 -58q-29 -31 -39 -81l29 -191l-58 -23l-29 29l-18 115q-38 -20 -70 -57l-11 -272l87 -376l41 -92l52 -82 l132 -133l232 -167l93 -47l97 -27q33 -38 41 -93l-35 -92l-35 -23v-76l18 -104l-6 -30l-69 6l-17 122v82l-29 23l-111 28l-260 139l-323 340l-41 93q-20 49 -23 109z" />
<glyph unicode=")" horiz-adv-x="1045" d="M0 -127l6 87l290 144l151 116l197 209l42 88l92 429l-12 215q-10 44 -46 82l-29 5l-5 -93q-24 -41 -76 -46l-23 23l40 210l-99 110l-180 87l-80 59l-42 17l-46 -23l-87 6l-70 110q3 44 41 80q27 30 75 59l291 -116l87 -47l203 -197l122 -151l64 -204l29 -319l-23 -226 l17 -42l6 -74l-12 -47l-98 -168l-70 -64l-122 -145l-76 -64l-255 -145l-145 -34l-18 -192l-11 -35l-58 -7l-17 13l17 93v98l-17 12z" />
<glyph unicode="*" d="M0 475l11 34l31 19l34 -3l38 22l42 107l88 111l-4 38l-61 42l-49 49l-58 31l-22 26l-39 65l-11 76l65 72l23 -7l26 -27l23 -80l23 -26l27 -16l68 -83l19 -12l4 15l-19 130l8 46l57 95q54 9 76 15l30 -23l8 -30l-42 -76l-11 -39l15 -68l-11 -53l11 -16l80 115l27 26l26 15 l77 27l45 -4l65 -57l-30 -46l-88 -26l-27 -23l-19 -31l-84 -68l-22 -61l198 -164l11 -30l23 -31l27 -19l11 -23l-42 -22l-80 19l-19 30l-30 19l-92 38l-27 19l-7 -38l7 -42l16 -38v-91l-19 -35v-38l7 -11l-7 -27l-38 -7l-54 -27l-23 46l-3 42l26 76l-42 110l-7 61l-16 -7 l-57 -96l-26 -15l-23 -30l-34 -8l-23 -19l-19 -31l-27 -7l-4 15l-53 34zM183 551l11 -7q-3 5 -11 7zM385 483l7 -4l4 11l-7 4zM545 639l11 -12q-2 9 -11 12z" />
<glyph unicode="+" horiz-adv-x="1138" d="M0 852l24 32l28 4l104 -56l76 16l108 -12l36 24l64 4l12 8l-32 248l24 72l-68 12l-8 -24l-40 28l36 60l72 -16l36 12l40 -8l60 12l16 -8l20 -28l-8 -40l-48 -84l16 -84l-12 -88l12 -24q4 -34 40 -44l80 8l76 20l88 -4l64 -16l52 4l12 -20l16 -72l32 -60l-28 -68l-32 -28 l-8 8l4 20l-52 44l-36 56l-24 16l-36 4l-72 -36l-164 -24l16 -80l-4 -52l24 -108l-4 -80l-20 -28l8 -40l-8 -44l-32 4l-104 -52l-92 36l-12 24l40 16q14 30 48 44l52 44l8 48l-40 92l-24 164l-24 24l-256 -32l-84 24v-56l-8 -12l24 -12l-4 -24l-36 -12l-12 8q-25 19 -28 52 l8 12l-8 140zM552 500l8 -4l4 12l-8 4zM760 844q4 -7 12 -8z" />
<glyph unicode="," horiz-adv-x="414" d="M0 -146l40 60v44l20 128l28 76q24 22 60 40l44 -8l76 -76l36 -68l-24 -76l-36 -56l-48 -104l-60 -84l-32 -20l-36 8l-56 44l-12 40v52z" />
<glyph unicode="-" horiz-adv-x="751" d="M0 808l7 20l-2 28l-5 7l5 18l-5 28l2 24l23 13l25 -8l51 -27l44 10l53 -8l48 18h117l25 7l31 -2l27 5l22 10l63 -2l22 -11h25l8 6l18 -6l4 -22l33 -68l-18 -48l-17 -14l-7 22l-23 9l-10 24l-33 35l-20 2l-78 -30l-90 -7l-55 -13l-44 20l-145 -20l-28 5l-23 10l-10 -2 l2 -33l-5 -5l13 -23l-25 -10l-15 18zM474 918q2 -4 7 -5zM601 745q4 14 12 28l21 -3l-15 -28l-6 -2z" />
<glyph unicode="." horiz-adv-x="326" d="M0 80l8 48l76 88q20 5 40 16l48 -12l36 -20l8 -44l-16 -88l-20 -40l-32 -24l-52 -4l-44 16l-32 24z" />
<glyph unicode="/" horiz-adv-x="719" d="M0 168l13 12l7 50l-7 16l7 61l29 49l37 115l28 49l16 53l-7 70l16 61l33 57l20 119l65 175l13 57l29 58l44 37l20 48l9 70l53 110l17 62l65 171l12 66l33 53l16 61l28 -37l-7 -16l12 -41l8 -66l-16 -36l8 -12l-5 -62l-20 -57l-28 -49l-5 -49l-7 -8l-70 -168l-24 -123 l-66 -176l-37 -53l-45 -110l5 -32l-13 -29l-9 -57l-24 -61l4 -29l-28 -94l-37 -53l-36 -123l-37 -53l-17 -70l-58 -158q-22 11 -24 40zM13 -92q5 17 16 37l15 -29l-15 -13zM24 -211l13 24l16 -3l-12 -30z" />
<glyph unicode="0" horiz-adv-x="1320" d="M0 741l28 151l-21 83l21 110l75 227l145 172l41 144l82 124l152 62h165q31 12 68 34l97 -14l171 -137l69 -145l55 -55l35 -68l20 -83l-14 -89l21 -165l-41 -165l7 -76l-28 -103l35 -172l6 -206l-68 -138l-138 -75l-227 -90l-82 -123l-55 -55l-28 21l7 55l35 27l-97 48 l-89 14l-96 110l-138 75l-117 97zM199 982l14 -213l55 -234l117 -151q30 -32 83 -48l96 -35l124 -7l103 14l96 34l27 90v110l21 130l-27 97v233l41 289l-55 145l-55 75l-62 21l-28 -21l-103 14l-96 34l-55 -82l-89 -41l-110 -159zM598 -241l48 27l35 -55l-48 -21z" />
<glyph unicode="1" horiz-adv-x="343" d="M0 1239v426l71 81l40 101l122 -30l-30 -102v-273l20 -92l-31 -1307l-50 -243l-71 233l-30 264l-11 820z" />
<glyph unicode="2" horiz-adv-x="1400" d="M0 91l5 59l18 9l-23 140l32 159v91l186 223q20 25 55 45q36 11 68 41q2 45 45 55q33 10 59 40l164 46l168 250l9 54l-14 9l18 50l-9 14l18 59l-9 54q-15 31 -50 50l-45 18q-32 25 -77 32l-64 23l5 -14l-18 -77l-32 -27l-87 45l10 -13l-46 -146l-68 -136l-41 -23l-32 18 l-36 64l-27 18l13 41l9 64l-18 13l37 100l-5 18l9 32l-18 14l23 9q5 30 27 59l45 63q19 32 55 55l150 59l100 -14l172 -45l259 -168l37 -73l22 -68l23 -23l-27 -36l-46 -136l14 -59l-46 -68q-25 -22 -27 -59q-23 -20 -27 -55l-18 -141l9 -81l-14 -87l-32 -68l-18 -18l-59 14 l-18 59l9 9l32 113l-45 -4l-41 -59l-237 -82l-18 -91l14 -77l-27 -73l-55 -13l9 95l-9 14l18 27l-13 50h-55l-32 -23l-90 -113q-17 -28 -19 -64l-4 -50l13 -122q7 -38 46 -64l95 -14h64l27 -9l27 18l41 -13l14 13l59 -13l59 13l91 10l309 72l31 23l37 -18q43 -4 72 -41 q26 -23 41 -59l14 -27l-9 -50q-14 -32 -46 -55l-86 -13l-95 4l-68 -36l-109 27l-41 -14l-91 -4l-27 -22l-32 17l-150 -49l-50 23q-40 -2 -86 -23h-68l-28 -105l28 -22l-14 -9q6 -37 32 -69l-55 -50h-63l-46 64l-18 64l32 59l-18 13l27 50l-59 28l-9 -10l-68 36l-46 64z M432 1566l13 -9l14 23l-14 9zM445 1625l18 -36q-2 20 -18 36zM840 867q1 -9 9 -14z" />
<glyph unicode="3" horiz-adv-x="1095" d="M0 1463l75 81l75 138l63 86l99 41l57 11l51 -5q54 4 110 34l121 -29l109 -109l23 -52l92 -127l29 -114l-11 -64l5 -57l53 -214l-23 -75l-35 -63l35 -86l11 -58l-11 -75l11 -46l-5 -18l34 -91l17 -104l-17 -81l-93 -195l-34 -41l-306 -132l-17 -57l-34 -40l-51 -40l-13 40 l35 46l-41 29l-115 27l-144 145l23 46l47 23l98 17l17 -17l184 -23l121 34l35 34l52 93l40 34l5 47l-68 172l17 121l-64 161q-33 35 -86 41l-58 -11l-115 39l-34 -17l-29 -52h-127l-46 109l81 121l104 47h109l63 12l52 22l110 -34l-13 104l19 86l-59 149q-30 39 -81 58 l-57 -17l-138 40l-17 -11l-23 -46l-52 -24l-69 -74l-145 -6zM426 -229l41 23l28 -45l-40 -19z" />
<glyph unicode="4" horiz-adv-x="1534" d="M0 378l18 32l36 27l9 50l32 36l-9 50l13 36l28 13l-9 27v33l18 27l50 23l19 40l-14 50l32 36l40 32l14 54l36 32l41 9l72 60l41 95l31 45l42 36l23 50l31 45l77 78l36 81l64 86l77 68l31 45v55l28 50l37 41l40 18l37 9l45 -32l13 -49l-22 -55l-5 -31l9 -10l-36 -36 l-14 -46l-54 -90l-9 -50l14 -95v-132l9 -36l-23 -131l9 -32l-13 -23l-9 -91l9 -27l-9 -14l18 -31l-18 -82l36 -4l50 13l49 -13h59l41 -32l63 5l55 22l55 -54l40 45l18 -13q17 -15 23 -41l-50 -28l-49 19l-92 -33l-41 -27l-58 18h-113l-10 -18l-49 -27h-36l-19 9v-59l19 -58 l-9 -64l9 -13l-32 -87l23 -100l-42 -194l28 -58l-51 -55l42 -49l-24 -27l-49 -11l-10 47l23 31l-23 68l10 14l-32 40l-18 50l18 58l4 46l-27 77l-36 36l-4 46l9 13l9 55l-18 58l58 95l-18 37l-99 22l-59 -27h-78l-149 32l-172 -50l-42 -36l-18 -54l-22 -37l-59 -22l9 -23 q-2 -26 -27 -36l-27 -9zM390 777h90l60 9l231 -32l13 100l-13 68l27 141l-27 50v67l18 91l-14 4l-63 -77l-41 -81l-36 -27l-150 -159l-36 -86z" />
<glyph unicode="5" horiz-adv-x="1080" d="M0 1236l27 128l-22 107l16 92l113 209l54 26l273 33l53 21l145 -5l54 -27l59 16l48 -38l-5 -16l10 -43l32 -48l22 -53l-38 -113l-48 -16l-21 43l-43 43l-27 48l-37 43l-65 11l-107 -49l-209 -32h-48l-16 -91l-27 -54l-70 -91l-10 -53l37 -124l-16 -101l54 -145l16 -16 l80 118l118 43l107 -6l70 32l69 -10l54 -27l80 -75l49 -113l48 -32l27 -54l16 -59l-6 -64l54 -252l-11 -69l-96 -220l-102 -59l-220 -91v-48l-21 -11l-27 -53l-37 -11l-11 27l27 48l-38 32l-64 11l-54 31l-118 118l-5 33l32 10l48 32h75l54 -21l139 -11l124 38l112 150 l-5 48l-49 107l-10 70l10 70l-10 59l-48 107l-38 37l-59 -10l-64 5l-54 27h-43l-43 -59l-59 -22l-26 -48l-129 -16l-70 27l-10 70l-54 182l5 64l-16 65zM450 -222l38 21l26 -42l-37 -17zM525 1782q5 -9 16 -10zM799 1412q8 29 26 59l43 -5l-32 -59l-11 -5z" />
<glyph unicode="6" horiz-adv-x="1079" d="M0 489l11 59l75 198l-6 65l-37 96l-22 112l6 59l-27 107v70l27 107l-22 96l11 81l59 144l53 80l49 27l59 5l48 22q143 23 171 32l155 -43l27 -37l91 -48l107 -215l-21 -64l-27 -37l-48 -22l-54 16l-43 97l-53 80l-113 91l-96 21l-69 -16l-43 -26l-32 -102l-86 -123 l-43 -91l38 -97l5 -64l-16 -53l48 -156l16 -21l70 96l37 27l102 38l107 -6l86 32l69 -21l113 -91l26 -43l16 -53l65 -70l21 -48l11 -59v-145l11 -16l37 -149l-16 -70l-59 -145l-53 -85l-290 -123l-16 -53l-59 -75l-32 37l32 43l-37 27l-107 26l-38 32l-26 38l-204 139 l-21 37l-6 64l-21 49zM161 473h16l10 65l-21 16zM203 404l11 -64l43 -43l32 -48l123 -49l123 -10l97 26l48 33l37 48l59 112l-16 64l-37 54l-11 69l11 75l-11 65l-54 112l-53 32l-64 -21l-123 43l-38 -49l-59 -26l-37 -49l-32 -128l-27 -48l16 -70zM450 -222l37 21l27 -42 l-38 -17zM685 1539l22 -38q-3 22 -22 38z" />
<glyph unicode="7" horiz-adv-x="1047" d="M0 1515l29 39l-9 108q12 84 58 185l107 -20l88 -39l59 39l234 -39l68 20l215 -59l29 20l59 -29l-20 -78l-419 -810l-88 -410l-39 -88l-117 -497l-108 -137l-19 98l29 88v136l-58 156l-10 117l224 517l49 195q22 85 78 166l59 69l136 234q-13 38 -58 58l-225 39l-185 -39 l-88 -156l-68 59z" />
<glyph unicode="8" horiz-adv-x="1056" d="M0 451l16 94l57 151l89 121l58 136l41 62l37 37h-26l-63 42l-37 73l-47 141l42 178l-5 89l31 73l53 58l36 68l58 47l73 31l84 -26l78 5l73 -31l47 -58q25 -26 31 -68l32 -63l42 -57l68 -146l15 -74l-42 -177l-52 -53l-68 -36l-15 -21l31 -32q29 -23 47 -62l37 -68l52 -53 l26 -78l-5 -89l10 -89l26 -78l16 -89l-89 -225l-52 -58l-136 -73l-84 -21q-35 -10 -57 -46l-37 -68l-26 -32l-31 21l26 68l-152 57l-52 58l-188 120l-52 152zM157 466h15l11 63l-21 16zM199 404l10 -63l73 -94l115 -47l131 -11l84 21l52 37l36 47l58 104l-16 68l-36 47 l-11 74l11 73l-11 63l-21 57l-31 52l-52 32l-63 -21l-120 42l-37 -47l-57 -27l-105 -151l-5 -37l31 -89zM277 1261l63 -68l21 -47l104 -26h63l57 10l47 21l89 110l37 94l-52 152l-53 78l-104 89l-52 -21h-100l-36 -26l-47 -125l10 -84l-42 -94zM439 -213l37 21l26 -42 l-37 -16z" />
<glyph unicode="9" horiz-adv-x="1084" d="M0 1406l70 199l49 91l171 97l211 59l123 -16l108 -97l123 -75l76 -64l6 -76l37 -199l-59 -155l-27 -108l11 -59l21 -43l38 -151l-11 -53l27 -130l-27 -172l22 -69l-16 -103l-87 -183l-70 -64h-69l-49 -21l-108 -118l-26 16q-18 45 -60 75l-97 27l-74 64l-55 16l-27 38 l-91 182l22 92q35 30 91 43q40 -27 60 -80l53 -82q20 -40 64 -69l76 -59l91 -16l75 21l33 32l38 97l48 86l59 75l16 54l-16 49q-20 45 -22 107l11 59l-48 150l-21 22l-103 -123l-97 -39l-108 7l-85 -33l-114 43l-69 70l-43 91l-65 70l-38 97l6 92zM194 1454l10 -75l33 -54 l21 -59l-16 -118l60 -151l43 -37l64 11l129 -32l140 101l27 54l-5 54l43 75l-11 107l38 81l5 49l-86 113l-108 59l-151 16l-69 -16l-65 -27l-59 -108zM263 331l22 -38q-2 21 -22 38zM560 -168l10 48l49 -16l-16 -44zM786 1303l21 -21l5 76l-16 5z" />
<glyph unicode=":" horiz-adv-x="392" d="M0 103l10 62l98 113q25 6 51 20l61 -15l47 -26l10 -56l-21 -114l-25 -51l-41 -31l-67 -5l-56 21l-41 30zM5 1003l10 61l98 113q26 6 51 21l62 -15l46 -26l10 -57l-21 -113l-25 -51l-41 -31l-67 -5l-56 20l-41 31z" />
<glyph unicode=";" horiz-adv-x="475" d="M0 -57l48 72v53l24 154l34 91q29 26 72 48l53 -10l91 -91l43 -82l-29 -91l-43 -67l-58 -125l-72 -100l-38 -25l-43 10l-68 53l-14 48v62zM67 1004l10 58l91 106q24 5 48 19l58 -14l43 -24l10 -53l-20 -106l-24 -48l-38 -29l-62 -5l-53 20l-39 28z" />
<glyph unicode="&#x3c;" horiz-adv-x="1189" d="M0 806v52l39 10l17 -19l19 -13l69 62l59 9l19 23l98 17l27 16l32 10l46 36l33 3l10 7l19 -7l53 29l58 23q29 10 43 40l104 58l36 10l27 -6l114 42l43 -3l22 13l36 -7l40 -39l-27 -19l-3 -40l-16 -26l-43 -19h-23l-32 -17l-59 -10l-26 -9l-36 -4l-180 -62l-33 -6l-23 -20 l-88 -23l-23 -19q-24 -9 -39 -33q19 -19 49 -20l33 -6l10 6l13 -6l13 6l78 -29l33 -3l26 -13l56 13l36 -7l26 -13h68l59 -10l56 30l19 3l33 -26l23 -59l26 -20l10 -26l-59 -65l-23 -10h-36l-16 23l-56 6l-88 40l-91 23h-105l-26 13l-20 26l-118 29l-101 -10l-62 10l-56 20 l-32 3l-69 -10l-36 7l-29 13z" />
<glyph unicode="=" horiz-adv-x="1134" d="M0 588l12 32l-4 44l-8 12l8 28l-8 44l4 40l36 20l40 -12l80 -44l72 16l84 -12l76 28h188l40 12l48 -4l44 8l36 16l100 -4l36 -16h40l12 8l28 -8l8 -36l52 -108l-28 -76l-28 -24l-12 36l-36 16l-16 36l-52 56l-32 4l-124 -48l-144 -12l-88 -20l-72 32l-232 -32l-44 8 l-36 16l-16 -4l4 -52l-8 -8l20 -36l-40 -16l-24 28zM0 996l12 32l-4 44l-8 12l8 28l-8 44l4 40l36 20l40 -12l80 -44l72 16l84 -12l76 28h188l40 12l48 -4l44 8l36 16l100 -4l36 -16h40l12 8l28 -8l8 -36l52 -108l-28 -76l-28 -24l-12 36l-36 16l-16 36l-52 56l-32 4 l-124 -48l-144 -12l-88 -20l-72 32l-232 -32l-44 8l-36 16l-16 -4l4 -52l-8 -8l20 -36l-40 -16l-24 28zM756 764q4 -7 12 -8zM756 1172q4 -7 12 -8zM960 488q6 22 20 44l32 -4l-24 -44l-8 -4z" />
<glyph unicode="&#x3e;" horiz-adv-x="1190" d="M0 1112l26 53q20 17 39 42l62 -10q17 -16 43 -19l36 -7l120 -42l26 -17l72 4l62 -10l46 -36l32 -10l7 3l82 -16l71 10l85 -13l30 -13l68 -7l69 7l62 -20h35l7 -36l-3 -23l-39 -3l-27 33l-94 -69h-26l-49 -32l-72 -7l-52 -26l-36 -10l-20 -19l-202 -69l-55 -65l-108 -39 l-10 6l-117 -36l-108 -16l-39 36l49 98l19 16h46l59 29l6 -6l121 29l117 49q30 2 62 17q28 14 66 19l98 52l-33 40l-23 -7l-23 7l-52 -10l-26 16l-111 33l-26 -17l-98 27h-75l-20 6l-29 -6l-23 -17l-32 -10l-49 36v39z" />
<glyph unicode="?" horiz-adv-x="1074" d="M0 542l20 96v60q1 23 24 36l32 28l116 156l92 48l20 44l52 20l36 24l100 32l32 20l36 36l20 48l92 124l8 52l-4 32l8 12l-12 24q18 15 24 40l-12 28l12 8l-20 36l-40 28l-8 12l-24 -8l-32 32l-84 24l-8 -12l-8 -48l-32 -40l-68 36l-12 -12l-28 -92l-4 -40l-32 -40 l-16 -48l-28 -40h-48v12l-56 76l24 36l-16 28l12 16l-16 24l28 48l8 52l-16 36l20 4l16 44l48 76l32 36l48 24q76 21 100 32l180 -32l52 -20l88 -52l36 -36l92 -40l36 -36l44 -128l-8 -52l-24 -32l-20 -84l12 -8l-8 -40l-24 -44l-36 -32l-24 -76l12 -8l-12 -24l-12 -52 l8 -108l-20 -104l-32 -36l-40 -12l-16 8l-12 40l32 124l-28 -4l-72 -60l-152 -48l-36 -32l-12 -64l12 -32l-8 -16l8 -16l-8 -36l-28 -36l-36 -8l4 24l-8 28l12 24l-8 28l16 8l-16 52l-56 -4v-12l-40 -28l-56 -76l-44 -84l-24 -104l32 -104l16 -100l-28 -36l-48 16l-16 -12 l-16 24l4 44l-24 64l-48 20zM28 -190l8 48l76 88q20 5 40 16l48 -12l36 -20l8 -44l-16 -88l-20 -40l-32 -24l-52 -4l-44 16l-32 24zM128 294l12 -24q-1 14 -12 24zM368 1594l12 -8l12 20l-12 8zM380 1646l16 -32q-2 18 -16 32zM728 978q1 -8 8 -12z" />
<glyph unicode="@" horiz-adv-x="1528" d="M0 537l12 50l-12 69l12 181l-12 88l19 56l306 556l-13 37l38 13l362 218l56 -12l19 6l-6 13l69 12l25 -31q28 32 74 56l244 -50l81 -50l144 -162v-88l-25 -100l6 -75l-31 -12l-19 -50l13 -19l-38 -81l13 -50l-44 -119l-12 -81l-25 -56l18 -38l-18 -12l-7 -63l-100 -125 l13 -68q-9 -40 -56 -57l-188 -25l-106 13l-62 -25l-25 44l12 93h-56l-19 -31l-31 -12l19 -69q-19 -46 -69 -50l-50 56l44 81l-63 50l-50 75l-25 82l13 18l-13 94l19 106l87 181l63 69l81 50l94 31l94 7l31 -13l118 19l19 -44l-19 -75l13 -19l-38 -81l-156 -512l32 -13l106 7 l93 168l69 331l38 100v75l-32 250h-43l-57 81l-100 13l-81 -44l-93 -12l-200 -69q-42 -18 -69 -63l-62 -74l-50 -82l-57 -212l-43 -88l-38 -231v-312l81 -131l88 -44l187 -56l81 37l82 19l87 50q49 -3 100 -31l75 -125l-19 -25l-12 -50l-231 -25l-69 6l-150 -44h-75l-50 -12 l-119 12l-87 38l-44 31l-12 -19q-12 37 -50 63q-33 18 -38 62l-31 69l-25 31l19 113l-19 25l-13 62l38 6l-19 32zM581 893l6 -81l31 -69l50 -62l82 19l37 75l63 212l-7 50l32 69l12 68l-12 19q-30 23 -69 38l-81 -38l-50 -62l-69 -157z" />
<glyph unicode="A" horiz-adv-x="1561" d="M5 16l27 105l70 96l34 118l180 296l34 263l97 214l70 97l82 388l55 109l70 91l97 55q59 -9 117 -49l68 -82l22 -62l-7 -208l20 -138l132 -505l90 -228l55 -103l83 -76l55 -200l-14 -49l-7 -111l-62 -21l-28 29l21 62l-55 20q-22 51 -69 83l-76 -21l-35 35q-33 46 -34 111 l14 111l-62 130l-70 90l-49 111l-33 124l-76 14l-14 -159l-15 -20l-68 -42l-35 21l35 89l-14 21l6 69l-62 21l-69 -83l-110 -366l-63 -104l14 -187l-20 -68l-21 -8q-51 -20 -82 -68l6 -110l55 -104l-7 -62h-54q-6 60 -43 117l-82 77l-90 -70l-62 -21l-7 42l13 75zM247 -390 q13 37 34 76l55 -42l-33 -49zM648 1053l55 -62l214 62l-20 49l-8 69l21 69l-62 110l14 70q-53 147 -76 186l-21 -200zM703 584l13 41l70 35l41 -15l-14 -47l-62 -29zM1180 327l27 8q-3 16 -20 27zM1228 224q16 15 21 35zM1331 272l22 -21q-6 15 -22 21z" />
<glyph unicode="B" horiz-adv-x="1249" d="M0 -372q2 27 16 53l48 -11l-32 -32zM16 269l22 21l32 80v204l-27 80l-5 48l26 38l22 90l-6 59l11 37q21 34 22 81l-27 133l27 38l43 171l20 38l-5 48l-15 22l15 58l69 156l65 48l53 -6l91 64l75 38l96 5l86 27l187 -43l54 -58l43 -70l58 -53l-32 -81l-21 -91l5 -59 l-22 -31l-15 -55l5 -20q-23 -37 -69 -48l-12 42l-37 -11l-59 -48l-5 -64l-80 -65l171 -53l64 -48l107 -123l38 -75l21 -80l-16 -38l21 -38l27 -149l-139 -246l-123 -101l-43 -70l-113 -113l-90 -15l-69 22l-75 -17l-11 -58l-38 -26l-27 15v59l-26 5l-27 37l22 123l69 38 l123 -33l22 43l86 27l63 43l91 139l22 85l-6 107l49 134v38l-43 74q-6 42 -38 75l-32 53l-106 49l-135 -11l-16 -16l-63 16q-33 21 -43 65l36 74l214 123l55 54l101 81l-5 42l21 64l-81 38l27 75l27 26l-16 43l-144 37l-16 -10l-86 -16l-198 -128l-21 -92l11 -74l-22 -150 l43 -48l-37 -33q-28 -28 -38 -75l-27 -91l-21 -197l16 -43l-16 -102l32 -80l-64 -139l16 -144l-21 -113v-70l-17 -26l6 -48l-16 -27l5 -159l-31 -75l-43 -16l-12 43l-63 -33l-11 11l31 70l-10 85l-21 16l26 122l-21 80l11 54zM101 -350l33 20l27 -15l-33 -48l-22 -7z M406 -260l38 48l27 -48l-43 -10zM920 1178l21 43l49 -26l-27 -22l-33 -5z" />
<glyph unicode="C" horiz-adv-x="1571" d="M0 841l138 370l163 180l8 121l129 206l232 86l146 -9l112 52l138 -34l103 -69l86 -78l51 -120l78 -95l25 -8l9 -69l-17 -43l-120 -51l-129 42l-52 112l-94 78l-121 -26l-103 17l-120 43l-78 -86l-111 -60l-138 -198l-51 -120l43 -121l8 -120l-69 -146v-95l155 -215 l120 -51l129 -35l189 -17l241 60l52 112l94 77l138 26q58 -20 77 -86l-43 -120l-69 -103l-472 -198l-52 -120q-21 -54 -86 -86l-26 86l35 26l-60 68l-147 26l-171 163l-104 60l-197 147l-9 146l-43 120zM198 781l25 8l18 104q-10 18 -35 34zM722 -319l60 34l43 -69l-60 -26z " />
<glyph unicode="D" horiz-adv-x="1191" d="M0 108v229l63 397l-43 141l11 83l58 219l-16 235l21 178l-5 89l31 62l21 10l53 -10l72 20l47 48l52 36l74 -20l58 -38l140 -46l204 -167l167 -209l26 -67l47 -330l-20 -244l20 -74l-10 -82l-69 -121l-219 -244l-52 -43l-177 -104l-69 -27l-77 -15q-31 -15 -38 -51v-94 l-25 -61l-52 -8l-5 28l15 62v93l-42 51l-21 64l21 67l256 120l204 167l88 104l58 126l68 307v214l-15 73l-58 27l-10 -85q-19 -24 -53 -41l-26 58l20 73l-5 36l11 27l-21 56l-47 48l-53 36l-67 26l-119 68l-22 31l-115 -20l-57 5l-16 -10l-16 -79l-21 -261l11 -78l-32 -162 l-52 -823l12 -74l-12 -84l-26 -56l5 -26l-10 -21l-26 5l-21 72l-74 21z" />
<glyph unicode="E" horiz-adv-x="1385" d="M0 714l47 60l60 161l-20 80l13 60l-13 19l-34 160l34 261l20 12l-13 48l13 66l-7 27l-59 48l19 79l87 -34l187 15l247 -48h220l153 -27l194 68q41 -2 74 -34l27 -73l-27 -181v-274l-74 -32l-6 32l20 34l-28 47l-52 53l7 107l-21 53l14 21l-61 19l-159 -46l-41 -67l-46 -7 l-14 53q-22 30 -60 48l-93 5l-74 22l-187 -34q-40 -4 -53 -47l53 -127l-13 -20l13 -52l-26 -22l-21 -86l21 -81l53 -19l20 14l87 5l86 -26h107l80 14l60 40l21 -81l-14 -79l-34 -67l54 -114l-27 -53l-39 26l-94 127l-187 7l-81 27l-79 -27q-27 -21 -34 -60l47 -67v-100 l-13 -67l-47 -60l-26 -147l19 -13l20 -79l61 -48l52 -6l274 66l88 -26l60 -34l79 34l88 19l93 -5l80 26l27 87l32 40l41 -107l-19 -200l-34 -80q-17 -39 -60 -40l-241 40l-140 -33l-87 8l-60 -53v-93l20 -20l-13 -62l-20 55l-47 67l-53 53l-67 32l-87 21l-87 -8l-73 -38 l-47 -60l-33 -67l-54 -14l-13 21l13 39v138l-26 87v80l66 234l-6 100l-20 60l-61 46zM1148 1087l20 81l54 -21l-34 -60h-40z" />
<glyph unicode="F" horiz-adv-x="1187" d="M0 215l24 115l37 48l11 42l-5 103l-25 115l19 78l24 55l-6 163l18 146l-30 199l18 61l23 193l-29 97l11 132q46 62 61 79l230 -36l97 12l18 -12l152 18h272l78 -31l37 -48l6 -72l-18 -60l12 -18l-25 -92l55 -48l12 -24l-42 -31l-37 18q-11 29 -42 43l-54 114l-49 31 l-72 12l-31 -48l-48 -36q-31 1 -36 36l12 43l-18 11l-375 -18l-31 -139l18 -60l121 -25l79 25l85 -18l121 18l78 30l36 -24l49 -103l-18 -18l12 -30l-18 -139l-30 -55l36 -43l-18 -54l-31 -23l31 -55l-13 -18l-36 -12l-11 24l23 61l-23 120l11 13l-18 60l-49 36l-18 66 l-42 13l-42 -61l-42 -96l-36 29l30 56l-37 47l-60 18l-79 7l-54 -13l-55 -30l-12 -42l18 -115l-24 -121v-144l24 -61l7 -67l-61 -296l23 -121l-5 -72l18 -140l-36 -126l-24 -36l24 -49l-24 -54l-18 -18l-43 12l-42 36l-37 49l-11 47l11 13l-11 72l-25 61zM133 -353l37 74 l36 -80q-3 -35 -36 -61zM175 566l13 -12q-3 5 -13 12zM242 1762l43 -18q-18 12 -43 18zM406 1733q9 -11 23 -13zM714 1315l54 -73l13 55l-43 30z" />
<glyph unicode="G" horiz-adv-x="1560" d="M10 619l8 25l-5 10l7 39l31 66l23 31l26 23l18 34l54 189l-6 15l13 21l5 39l29 79l20 34l25 22l24 31l56 94l25 29l16 33l41 67l82 79l10 31l23 28l31 24l39 15l196 56l37 18l95 66l59 29l17 -3q16 3 34 8l66 -10l5 5l92 -31l72 -35l33 -24l78 -77l58 -90l13 -35l-8 -36 l-21 -31q-8 -12 -22 -18q-13 -13 -34 -15h-59l9 10l-29 -2l8 10l-23 -5l2 12l-17 21l-34 20l-44 59l-15 39l-39 5l-32 -21l-70 -23l-25 8l-8 -5l-34 23l-48 48l-20 11l-29 3l-45 -26l-22 -20l-2 -11l-25 -28l-59 -103l-16 -38l-30 -23l-22 -28l-50 -51l-67 -88l-174 -325 l-13 -69l5 -3l-7 -34l7 -5l-7 -25l7 -7l-7 -31l10 -28v-78l31 -100l54 -107l37 -57q16 -8 24 -25l33 -24l23 -22l97 -64l77 -15h87l83 20l22 25l31 21l42 10l32 20l80 14l25 25l21 34l36 99l2 161l-10 29l-2 36l-24 23h-125l-8 -5l-15 5l-39 -10l-25 5l-11 -8l-130 -21 l-23 5l-36 -7l-23 5l-13 -8l-20 -5l-47 24l-15 -5l-17 17l-8 36l8 6q10 14 30 22l80 21l33 16l28 25l38 10l36 2l44 -7l74 5l71 31l311 18l20 -10l24 -32l35 -104l11 -72l-24 -146l-20 -62l5 -5l-85 -164l-43 -64l-18 -35l-25 -24l-83 -120l-28 -23l-71 -21l-151 -25l-6 2 l-33 -10l-41 -2l-64 -29l-62 -42l-49 -59l-35 -9l-41 27l-61 132l-44 59l-57 46l-25 8l-23 20l-167 100l-28 29l-31 20l-64 90l-7 35l-15 34l-19 61l3 8z" />
<glyph unicode="H" horiz-adv-x="1275" d="M0 1165l12 82l35 52l-12 74l5 165l54 127l40 47l69 12l53 -41l18 -59l-52 -128l-13 -75l35 -59l12 -75l-5 -70l57 -18l65 11l76 -11l169 11l63 -28l52 23l19 17l105 -23l22 152l-29 151v122l47 165l59 34q30 6 63 23l89 -5l45 -47l12 -47l-52 -70l-47 -41l-12 -64l23 -70 l-17 -472l11 -76l-11 -80v-164l11 -76l89 -151l-64 -59l-36 -52v-58l-29 -169l17 -134l-46 -144l-52 17l-48 40l-34 57l-23 135l12 187l-18 302l29 169l-6 82l-17 70v53l-70 5l-70 24h-76q-37 -2 -52 -37l-52 -17l5 76l-58 35l-152 -5l-46 -24l-11 -82l-24 -63l-12 -613 l24 -128l-36 -81l7 -48l-36 -80l-40 -47l-6 -64l-58 8l-18 74l35 52v57l-35 77l-24 128l-11 17l11 52l-11 455l23 112l-47 220zM94 261l17 -6v29l-12 6zM530 874l35 22l18 -29l-36 -28zM786 1077q12 -12 30 -17zM1025 1729l18 -12q-6 9 -18 12z" />
<glyph unicode="I" horiz-adv-x="394" d="M0 323l16 73v69l-16 10l5 68l42 48l27 121l-21 63l-6 58l21 105l-15 79l21 157l10 16l-31 116v73l26 90l5 68l-10 63l-42 137l31 58l42 47h74l5 -16q31 -14 37 -52l47 -121l-16 -6l21 -120v-137l11 -21l-26 -142l5 -74l-21 -63l10 -100l-10 -10l16 -27l-53 -336l21 -68 l-5 -79l10 -53l-36 -73l26 -127l-47 -194l26 -68l-42 -105l26 -47l-47 -43l-32 58l16 63l-16 58l-31 52l-21 63l21 74v79l-27 68z" />
<glyph unicode="J" horiz-adv-x="1352" d="M0 476l24 24l24 96l71 55l104 -32l127 -247l80 -55l64 -64l198 -55l105 24l55 71l24 103l159 223l39 88l-55 262l24 104l-48 135l-87 167l24 88l-64 64l-32 103l24 104l56 71l87 40l96 -40l56 -71l-32 -96l-8 -88l95 -326v-111l32 -207l-40 -215l32 -143l-32 -183 l-136 -255l-63 -56l-119 -16l-87 -39l-152 -166l-40 23l-40 96l-191 63l-223 150l-48 81zM191 476l32 -56q-3 32 -32 56zM629 -263l16 72l71 -24l-24 -65zM1035 1654l23 8q0 17 -15 32z" />
<glyph unicode="K" horiz-adv-x="1305" d="M0 96l14 45l18 29v49l14 73l13 24l8 42l-8 176l-13 80l3 87l35 106l-17 126l56 228l-14 70l21 38l24 70l7 43l-3 91l17 101l-10 53v42l28 112l17 31l25 22l32 17l24 -17l21 -29l21 -108l-28 -81l-18 -28l-7 -38l18 -31l3 -26l-6 -41l-28 -63l13 -35l15 -85l-8 -21l8 -10 l24 -7l42 21l105 35l77 67l88 56l56 83l56 39l21 28l10 35l18 126l35 63l25 21l66 29h42l18 -32l3 -42l-7 -42l-46 -99l-45 -143l-35 -63l-24 -21l-81 -109l-38 -10l-43 -4l-35 -13l-157 -173v-41l59 -179l22 -25l108 -311l52 -43l60 -83l14 -36l35 -10l70 -73l32 -15l41 -7 l39 -56l7 -80l-38 -49l35 14h38l36 -14l20 -25l25 -72v-81l18 -32l24 -21l21 -28l7 -24l-4 -11l-28 -20l-77 20l-60 84l-13 32l-24 24l-36 57l-7 37l7 39l-66 21l-56 38l-18 32l-158 220l-28 71l-154 175l-56 87l-46 49l-98 74l-10 -7l-25 -116l4 -140l-64 -302l8 -48 l46 -98l-32 -112l-49 -42l7 -41l-11 -85l7 -67l-11 -38l-17 -21l-14 -35l11 -70l-4 -10l-32 -19l-31 19l-14 35l-18 108l28 70l4 172l-35 59z" />
<glyph unicode="L" horiz-adv-x="983" d="M0 496l42 482v404l48 277l60 150l67 42q41 -8 78 -36l6 -48l-18 -36l-13 -85v-211l13 -95l-42 -470l24 -79l5 -65l-36 -296v-120l-11 -91h373l144 24l30 -17l103 -109l-61 -125l37 -85l-24 -72l-55 -25l-23 13q-29 29 -36 72l42 66q-5 34 -42 36l-49 -5l-66 23l-138 -30 l-61 42h-84l-108 -25l-66 -35l-19 -77l-17 -13l-42 7l-42 95z" />
<glyph unicode="M" horiz-adv-x="1359" d="M0 396l16 82l72 154l-11 87l60 137l11 77l-11 60l22 44l49 170l-16 93l27 82l71 154l11 87l28 83l49 60l38 71l61 6l32 -17l33 -186l33 -82l11 -99l28 -82l32 -186l17 -33l38 22l49 169l143 302l49 60l39 71l65 44l88 22q42 -7 71 -44l11 -16l-16 -66l-50 -66l-32 -175 l27 -279l-17 -99l17 -115l-11 -88l16 -274l-11 -16l33 -77l39 -186l38 -71v-66l-16 -11q-27 -26 -28 -66q20 -34 22 -82l-38 -71l-17 -93l-27 -71q-35 -12 -49 -49q-2 -41 -28 -77l-38 -5l5 49l28 49l-22 11l22 60l27 33l-5 44l-28 76q-43 11 -60 55v71l16 11l11 28l-22 49 l17 99l-22 273l5 61l-16 126l16 44l-38 273l33 247l-16 93l-22 33l-28 -27l-38 -181l-71 -148q-37 -16 -61 -55l-32 -77l-83 -137l-27 -82l-55 -16l-5 27l22 88l-93 351l11 54l-6 22l-49 77l-44 27l-17 -22l-21 -186l-50 -170l11 -76l-38 -72l-28 -87l11 -88l-49 -170 l17 -202l38 -165l-11 -11q-21 -31 -22 -76l-60 -50l5 -92l-33 -83l-32 -11l-39 33l-16 72l16 114l-11 88l-33 76l-11 99zM997 -398q21 18 49 33l17 -38l-50 -17zM1024 1377l22 11q-1 7 -11 11zM1161 413q9 -11 22 -11z" />
<glyph unicode="N" horiz-adv-x="1100" d="M0 11l18 81l72 121v77l-22 99q9 35 36 63l22 72v81l14 85l-5 50l27 103l-4 252l22 95l-22 76l-9 72l9 9l22 72l14 86l31 67l50 50l36 9l22 -23l32 -67l49 -45l32 -68l9 -90l126 -459l31 -67l32 -158l22 -72l36 -63l41 -45l13 86l-13 81l13 126l-9 207l32 85l-27 171 l22 122l-9 40l-9 158l63 58l-45 140q8 32 41 58l58 36q35 -1 59 -31l49 -50l9 -90l-54 -238l-9 -81v-239l18 -40l-31 -225v-77l22 -184l-27 -239l9 -49l-36 -86l5 -31l-14 -81v-257l-31 -90l-18 -4v67l-68 126l-45 153v50l-49 94l-41 158l-31 63l-41 58l-27 68l-18 -81 l-36 -23l-13 27l9 113l-23 94l14 45v77l-86 211q-23 -12 -31 -40l-41 -158l-4 -63l13 -112l-67 -324l-5 -63l36 -153l-45 -90l-4 -41l45 -153l-23 -76l-40 13l9 27l-14 50q-13 27 -45 36l-4 -63l-36 -14l-9 41l-32 63l-40 -54l-23 9l9 54zM90 -241l5 31l40 -13l-13 -18h-32z M207 146l14 -14v32l-9 4zM491 699l9 -9l9 32l-9 9zM833 -354l27 14l36 -18l-32 -32z" />
<glyph unicode="O" horiz-adv-x="1713" d="M0 894l17 52l6 183l34 86l46 74l23 81l80 143l57 57l46 69l69 51l149 86l206 29l57 -12l29 23l91 23l58 -11l28 17l97 -23l75 -46q37 -12 63 -51l177 -178l166 -372l6 -92l23 -68l-34 -167l5 -108l-17 -92l-28 -63l-46 -69l-63 -57l-46 -69v-63l-69 -108l-51 -52l-80 -34 l-98 -23l-68 -46l-86 -34l-40 -74q-16 -41 -63 -58l-46 -23l-23 29l-11 92l-104 119h-62l-109 63l-52 63l-172 63l-63 52l-57 63l-28 86l-6 103l-69 166v92zM183 826l12 -58l45 -34l35 -52l51 -34l40 -40l46 -120l46 -35l109 -51l91 -63h69l40 -40h63l126 -23l63 23l34 46 l46 40l52 108l80 75l34 46l35 86l-12 17l63 183l-6 46l12 80l-29 137l-235 321l-154 92l-69 11l-46 -40l-74 -91l-74 -35l-92 35l-63 -23l-80 -81l-103 -63l-17 -63l-69 -91l-52 -109v-137zM653 1215l17 11l11 63l23 52l57 -23l6 -46l-11 -11l-35 -109zM773 -262l40 34h51 l-17 -80l29 -86l-23 -6q-53 18 -69 81z" />
<glyph unicode="P" horiz-adv-x="1121" d="M0 -318l67 244l-23 33l56 1067l-44 422l22 111l111 167l178 44l155 78l189 -44l144 -89l112 -123l44 -77l-33 -300l-78 -156l-100 -133l-233 -223l-56 -88l-22 66l-167 34l-55 -178v-311l122 -455l-133 -100l-45 -101l-55 34l-56 89l-56 -22zM278 1126l66 -178l100 -78 l378 378l-22 89l67 78l-134 177l-55 23l-34 -78q-25 55 -66 111l-145 -33l-89 -67z" />
<glyph unicode="Q" horiz-adv-x="1701" d="M0 823l60 213l85 179l68 76l93 163l17 93l102 170l221 94l77 -17l111 8q39 17 85 43l119 -26l85 -51l136 -127l34 -102l128 -145l34 -103v-204l85 -332l-60 -212l-136 -273l34 -59l85 -52l128 -145l-77 -177l-68 -25l-17 8v85l17 26l-25 109l-94 34l-161 110l-85 -51 l-102 -25l-94 -43l-94 -177l-68 -25l-17 25l42 94l-59 58l-119 17l-85 51l-60 76l-323 214l-34 85zM196 789l25 9l17 102q-10 18 -34 34zM255 628l43 -68l178 -188l136 -51l256 -25l162 42l-34 43l-111 85l-34 60l-51 -34v-43q-48 22 -52 77l103 85l43 59l68 -34l59 -119 l102 -93l153 221l-34 153l-68 127l-8 85l25 154l-76 222l-85 102l-51 25l-77 -34l-256 68l-85 -110l-127 -60l-145 -239l-8 -68l34 -77l17 -144l-17 -17l-51 -136zM714 -299l60 34l43 -68l-60 -27zM1378 -239l9 34l51 -34h-60z" />
<glyph unicode="R" horiz-adv-x="1187" d="M0 247l30 74l14 64l-44 133l15 30l39 157l10 94l29 68l15 84q20 27 25 69l5 94l29 68v94l20 79l-30 147l79 217q4 36 34 64l74 29h74l84 30h93l241 -59l108 -94l10 -78l-34 -69l-20 -158l-30 -69l-39 -64l10 -24l-34 -30l29 -49l-15 -25l-44 20l15 35l-40 14l-9 20 l-123 -39l-30 -74l-83 -104l59 -128l49 -54l39 -59l34 -157l25 -64l74 -128l182 -217l19 -79l74 -127l10 -39l-20 -99l15 -10l10 -44l-25 -25l-29 -5l-10 35l10 49l-44 -15q-34 14 -50 55l-19 19l-5 123l-44 79l-45 54l-54 49l-39 54l-30 74l-113 187l-24 74l-49 49l-35 69 q-29 15 -34 54l-20 79l-39 64l-25 69l84 118l54 39l83 118l59 45l99 103l19 64v79l10 14l-14 69l-74 30l-143 24l-172 -49l-44 -54l-30 -69l-10 -88l30 -74l15 -84l-15 -74l-20 -270l-74 -128l5 -74l-9 -99l-30 -113l10 -39l-5 -45l34 -216l40 -108l-15 -40l-20 -24l10 -45 l-49 -142q-35 1 -64 30l-84 206zM964 6h10l-5 10z" />
<glyph unicode="S" horiz-adv-x="1355" d="M0 149l11 70l65 23l121 -69l69 -24l35 59l58 34l46 52l162 18l99 86l70 -17l-24 -57l278 191l12 69l-12 76l23 69l46 46l6 52l-69 65l-115 74l-76 17l-69 -22l-18 -17l12 -47l-24 -58l41 -52l-58 -29l-18 69v87l-86 99l-76 17l-57 -11l-162 29l-24 75l-34 57l-52 41 l-59 134v92l41 127l46 53l169 110l34 58l139 52l168 -23l52 -46l35 -59l-23 -75l-6 -63l29 -64l-52 -70l23 -70l29 -17l-12 -40l-46 -17l-52 74l17 65l-11 87l17 75l-40 52l-70 23l-69 -29l-104 -81l-41 -52l-17 -75l-7 -82l30 -57l104 -88l324 -52l70 -29l87 -6l139 -52 l52 -40l40 -58l23 -69l6 -93l-11 -82l-99 -283l-81 -105l-104 -86l-180 -104l-17 -64l-75 -116l-46 -22l-19 11l-46 127l-58 11l-52 -45l-115 -70l-52 -18l-18 12l-12 -6l-40 12l-69 -34l-47 -46l-17 -70l-52 -29l-29 11l40 110l52 74l-17 47l-52 46zM6 -336q10 23 29 47 l52 -30l-46 -41zM226 1343l29 -57q-7 30 -29 57zM295 1476h23l29 93l-17 5l-35 -45v-53zM660 445l41 46q22 -12 29 -40l-46 -29zM920 329l65 35l17 29l-17 5z" />
<glyph unicode="T" horiz-adv-x="1637" d="M0 1759q8 22 19 46l33 -15l-19 -31h-33zM66 1764l26 26l32 -8l14 8l78 20l14 -10l78 28l55 -33l45 -9l27 33l52 5l86 -19l14 9l41 5l55 -29l51 -13l54 9l84 -4l119 32l96 -32h36l266 60l56 4l41 -27l27 -37l14 -50l-27 -42l-152 -41l-55 5l-96 22l-56 -9l-145 -46 l-14 -50l-42 -82l-9 -56l9 -55l-18 -115l4 -54l14 -51l-9 -238l-18 -47l-18 -141l18 -64l23 -234v-65l-10 -54l-18 -46l14 -92l-23 -123l9 -110l-13 -73l9 -32q0 -24 -28 -27l-18 50l-51 78v54l-23 41l-14 82l23 74l-13 64l18 146l-28 92l-4 60l14 110l-14 50l-9 111l13 170 l-13 91l27 60l37 50l-14 86l-9 14l19 152l-24 105l9 93l-82 9l-55 -9l-142 31l-60 -9l-46 -18h-64l-96 32l-37 27l-46 9l-36 28l-4 19l-19 -10zM876 -266q5 20 19 41l18 -33l-18 -13zM889 -399l15 27l18 -4l-14 -34z" />
<glyph unicode="U" horiz-adv-x="1267" d="M0 655l36 65l22 144l58 109l-29 87l21 14l-50 94l29 58l-7 72l28 138l109 231q47 27 116 51l79 -29l51 14l29 -50l-15 -65v-87l-123 -130l-86 -413v-115l43 -80l-72 -181l29 -137l57 -109l167 -173l137 -29l138 29l50 116l188 318l-22 130l-28 80l21 122l-65 189l-50 101 l21 58l-36 50q-42 44 -58 116l44 123l108 58q59 -7 109 -51l28 -43l-36 -152l8 -72l50 -116l29 -145v-130l29 -145l-36 -202l22 -80v-123l-116 -253l-65 -101l-152 -22l-203 -187l-50 58q-28 56 -94 79l-123 29q-30 48 -87 79l-101 72l-109 232l8 116zM202 387l29 -51 q-3 30 -29 51zM419 1805l37 43q41 -5 57 -51l-36 -14zM600 -285l15 65l65 -22l-22 -58zM969 1457l22 8q-1 15 -15 29z" />
<glyph unicode="V" horiz-adv-x="1254" d="M0 1695l12 56l19 6l43 43l37 -31l104 -43l43 -31l19 -36l18 -105l25 -55l18 -13l-12 -36l49 -166l6 -62l93 -215q2 -60 36 -117l31 -123l105 -184l67 67l-24 31l18 12v105l-18 12l43 68l6 55l55 148l-36 61l49 185v147l18 31l-55 98l-12 62l30 49q46 29 111 43 q36 33 68 86l98 -61l80 -74l-6 -62l-49 -135l-13 -68l-110 -276l6 -135l-19 -111l-67 -86l-19 -62l6 -30l-12 -19l-18 -123l18 -135l-18 -111l-31 -98l-12 -129l18 -98l-43 -172v-49h-111l-6 74l62 49l-99 128l-31 56v49l-61 92l-12 135l-56 99l-12 61l-37 43l-111 320 l-55 92l-86 74l-31 49l-43 154l12 18l-12 55l-68 179l7 49zM627 -333q11 29 31 56l68 -31l-31 -62l-61 7z" />
<glyph unicode="W" horiz-adv-x="1935" d="M0 1696q7 47 47 88l35 29l23 -47q51 -1 100 -29q35 -14 52 -53l12 -87l41 -82l35 -193l170 -468l17 -88l82 -123l65 59l-18 41l18 17l-24 117l18 12l52 181l30 59l-30 11v106l41 105l-6 216l-35 100l41 76l94 35q33 26 58 70l152 -111l18 -94l-47 -64v-99l59 -281l41 -94 q10 -47 46 -82l12 -117l47 -87l17 -88l53 -76q13 -38 53 -59l47 82l-12 71l12 40l-24 36l41 76l53 181l-24 6v93l35 94v105l24 100l-65 140l18 35q31 37 82 53q44 9 76 52l58 35l6 -29l71 -58q48 -12 52 -65l6 -64l-29 -29l-24 -65l-23 -111l-47 -82l-29 -105l-18 -17 l6 -193l-29 -88q-35 -29 -53 -76l-41 -187l6 -117l18 -29l-65 -240v-70l18 -100l-41 -157v-53h-105v70q38 26 47 76l-117 140l-18 88h-29l-24 193l-52 82q-8 46 -41 87l-129 357l-64 65l-35 -65l-65 -70l-41 -187l18 -216l-29 -88l-30 -205l12 -88l-35 -116v-70l-47 -6 q-58 3 -64 64l58 70l-117 140l-11 100q-49 20 -53 76l-12 105l-216 532q-20 40 -64 64l-65 65l-58 193l-6 93l-53 82l-11 59l5 41zM597 -222q10 27 29 53l64 -29l-29 -59l-59 6zM1334 -274q10 27 29 52l64 -29l-29 -59l-58 6z" />
<glyph unicode="X" horiz-adv-x="1435" d="M0 -259l25 37q9 31 43 43l12 74l37 56l-25 67l142 210l-12 43l12 18l-31 62l44 74l55 43l12 86l136 74l80 129l-12 68l-25 -6l-12 12l6 44l-80 141l-56 50l-31 73l-104 118l-19 61l-49 68l-111 222l12 49l-24 74l12 74l68 43l74 -18l55 -31l37 -74l12 -86l25 -68l86 -117 l56 -56l86 -209l99 -111l24 -49l148 191l25 55l-12 18l43 74l154 179l31 74l-13 49l31 105l62 56l55 6l25 12l49 -25l43 -55l-24 -74l6 -80l-31 -43l-25 -74l-148 -277l-92 -124l-49 -49l-80 -148l-19 -68l-37 -43l12 -74l93 -104l86 -25l62 -148l68 -80l-31 -37l6 -68 l25 -74l37 -68l61 -55l6 -80l-18 -18l43 -105q8 -31 43 -37l31 -74l-62 -31l-6 19q-29 7 -43 37l25 43l-105 37l-6 80l-31 68l-62 36l-104 117l-13 74l-31 56l-49 49l-86 123l-19 80l-37 74l-43 25l-43 -68l-98 -209l-93 -99l-18 -74l-37 -68l-50 -55l-61 -37l-50 -67v-68 l-104 -80l12 -62l-86 -24z" />
<glyph unicode="Y" horiz-adv-x="1345" d="M0 1543v61l283 243l61 -81l41 -91l81 -51l50 -81l51 -40l71 101l71 61l91 40l81 61l111 20l51 -81l81 -50l111 -162l-61 -31l-81 102l-101 20l-51 -41l-30 21l-91 -41l-111 -152l-21 -243l-30 -101l10 -121l-50 -213l40 -364l-10 -122l40 -444l-50 -183l-61 21l10 111 l-30 101l-112 152l-30 101l30 486l-10 253l102 384l-81 101l-41 91l-61 61l-50 81l-172 61l-21 -20z" />
<glyph unicode="Z" horiz-adv-x="1567" d="M0 1519l22 70l-17 217l27 21l44 11l103 -54l76 -16l86 16l81 -16l201 43l43 -11h81l103 22h92l76 27l168 -5l11 -17l22 -11l54 17q40 -7 49 -49l27 -76l38 -65l-22 -76l-33 -70l-119 119l6 -32l-38 -49l-54 -141l-44 -60l-21 -59l-98 -114l-32 -60l-49 -59l-33 -71 l-16 -65l-54 -43l-43 -60l-55 -48l-75 -136l-22 -65l-43 -54q-14 -32 -44 -49l-38 -48l-16 -71l-59 -92l119 -16l70 32l276 6l87 16l60 -5l16 10l97 22l98 -5q35 -2 65 -27l87 10q27 -22 32 -59l65 -141l-32 -76q-10 -36 -44 -59l-130 173l-76 27l-146 -60l-352 -48l-81 43 l-266 -43l-81 -6l-81 -27l22 -43l-11 -16q-26 -27 -65 -27l-49 60l22 69l-17 168l27 71l125 -33l54 87l22 114l-11 16l11 65l49 43l21 76l60 44l65 27q4 34 38 54l16 70l33 71l92 113q2 38 27 76l86 114l33 60l16 65l38 65l54 54l87 124l-16 44l-185 -27h-81l-97 -27l-92 43 l-244 -38l-103 -5l-98 32v-65l17 -54q-19 -30 -60 -33zM1029 1779q5 -10 16 -11zM1094 235q5 -10 16 -11zM1305 1405q9 29 27 59l44 -5l-33 -60l-11 -5zM1370 -139q9 30 27 60l44 -5l-33 -60l-11 -6z" />
<glyph unicode="[" horiz-adv-x="638" d="M0 808l12 198l-12 79l8 8l13 41l24 33l9 37l-4 50l-13 41l17 140l-13 83l21 103l-8 99l12 87l-8 33l4 12l37 -21v-20l45 -4l71 20h103l62 -20l57 8l17 -29l12 -45l37 -70l-20 -83l-25 -29l-17 33l-37 17l-20 37l-50 58l-45 8l-116 -50l-8 -24l8 -50l-16 -82l12 -79l-8 -8 l-12 -186l16 -99v-152l-8 -50l-17 -37l-16 -136l16 -41l9 -157l12 -41l-4 -103l-21 -87l13 -62l-17 -78v-46l95 -12l70 -37l45 -4l33 24l25 29l17 37l37 21l12 33l21 8l12 -16l29 -79l-45 -111l-4 -45l-29 -8l-58 12l-33 -20l-99 -5l-87 25l-49 -4l8 -45l-25 -13l-8 13 l-8 45l-46 62v49l-20 33l-8 95l16 74l-12 41l20 137l-24 45l-9 45v58l13 95zM107 -132q6 18 17 37l16 -28l-16 -13zM120 -251l12 24l17 -4l-13 -29zM231 1778q4 -7 12 -8zM256 37q4 -7 12 -8zM441 1493q7 22 21 46l33 -5l-25 -45l-8 -4z" />
<glyph unicode="\" horiz-adv-x="716" d="M0 1741l20 53l-11 20l20 29l53 -106l32 -126l36 -49l29 -118l53 -113l8 -69l16 -54l41 -32l41 -48l7 -61l66 -175l20 -122l28 -57l33 -179l28 -53l33 -110l28 -52l9 -57l-4 -57l20 -37l-25 -85l9 -37l-16 -16l-21 4v40l-29 49l-32 123l-36 52l-37 127l-33 52l-25 57 l-48 240v37l-16 20l-81 159l-62 182l-7 65l-54 110l-28 110l-49 105l-12 57l8 45zM553 -210l4 29l24 -11l-7 -18h-21zM561 -79l9 28l24 -16l-8 -25z" />
<glyph unicode="]" horiz-adv-x="637" d="M0 141l8 41l17 37l29 29l12 -37l37 -17l16 -37l54 -53l41 -8l74 37l45 12l50 4l16 37l-20 86l12 83l-25 98l13 206l24 123l-16 54l4 49l-25 87l-4 152l17 119l-17 103l9 62l-13 41l13 41l-21 91l16 82l-45 8l-70 37h-49l-54 -53l-16 -37l-37 -21l-13 -33l-28 17l-13 41 l-20 37l53 111l-4 33l41 16l41 -12l46 24h103l82 -24l45 8q6 18 17 37l24 -4l-8 -54l8 -12l4 -53l-8 -95l21 -103l-13 -78l17 -177l-8 -12l-13 -78l29 -42l29 -78l-12 -45l12 -197l-21 -132l13 -45l-4 -103l-25 -74l16 -124l-12 -57l12 -41l5 -46l-9 -45l-20 -33l4 -49 l-17 -41l-24 -29l-13 -45l-33 -20l-4 12l8 33l-49 16l-74 -20h-99l-37 12h-82zM37 1539l41 -8l8 -33l-8 -8q-31 11 -41 49zM264 42q3 -7 12 -8zM288 1778q4 -7 13 -8zM379 -250l4 29l25 -12l-9 -17h-20zM387 -118l8 29l25 -17l-8 -24z" />
<glyph unicode="_" horiz-adv-x="1335" d="M-30 15l10 33l-10 53l5 48l43 23l48 -14l95 -53l87 20l100 -15l91 34h225l48 14l57 -5l53 10l43 19l119 -5l44 -19h47l15 10l33 -10l10 -43l62 -129l-33 -91l-34 -28l-14 43l-43 19l-20 43l-62 66l-38 5l-148 -57l-173 -14l-105 -24l-86 38l-278 -38l-52 10l-43 19 l-19 -5l4 -62l-9 -10l24 -43l-48 -19l-28 33l-20 39l15 38l-5 52zM874 120q5 -8 15 -10zM1118 -210q8 26 24 53l39 -5l-29 -53l-10 -5z" />
<glyph unicode="a" horiz-adv-x="1293" d="M5 8l23 86l56 78l27 96l148 241l28 215l78 175l57 79l68 316l44 89l57 74l79 45q48 -8 96 -40l56 -66l17 -52l-6 -169l17 -112l107 -412l74 -186l44 -85l68 -61l45 -163l-11 -40l-6 -90l-51 -18l-22 23l17 52l-45 16q-18 41 -57 68l-61 -17l-29 27q-26 38 -27 91l10 91 l-50 106l-57 73l-40 91l-27 102l-62 10l-11 -130l-12 -16l-56 -34l-28 17l28 73l-11 17l5 56l-51 17l-56 -67l-90 -299l-51 -85l11 -152l-16 -55l-18 -7q-41 -16 -66 -55l5 -90l44 -84l-5 -52h-44q-5 50 -35 96l-67 63l-73 -57l-51 -17l-6 35l12 61zM202 -322q11 30 29 62 l44 -35l-27 -40zM529 854l44 -50l176 50l-17 40l-6 56l17 57l-50 89l10 57q-42 120 -61 152l-18 -164zM573 472l12 33l57 28l33 -12l-11 -39l-51 -23zM962 262l23 6q-3 13 -16 22zM1002 177q13 13 17 29zM1086 217l18 -17q-4 12 -18 17z" />
<glyph unicode="b" horiz-adv-x="988" d="M0 -32l13 68l30 61l-35 147l17 69l-12 143l34 74l-8 113l56 263v70l-13 34l5 39l42 51l10 49l-13 169l43 69l116 60l147 27l61 25l78 -13l130 -52l48 -44l25 -64l-77 -191l-5 -68l-35 -57l-125 -56l-26 -43l9 -9l68 -22l62 -30l146 -122l22 -73l35 -52l25 -64l5 -66 l-52 -151l-35 -52l-22 -69l-47 -44l-397 -184l12 -31l-30 -65l-30 -17l-17 26l13 18l-10 42l32 55l-35 57q2 29 25 57l52 8l18 -18l52 18l56 34l35 -21l13 17q6 30 38 48l61 26l22 69l55 30q7 34 40 57l8 34l-8 35l-5 78l-43 134l-39 52l-47 43l-65 13l-65 -26q-32 0 -48 34 q-32 -1 -60 -21l-30 -9l-40 61l196 190l55 27l113 211l-17 17l3 18l-8 61l-52 35l-60 17l-138 -39q-27 -13 -44 -44l-48 -34l-17 -69l-60 -118l17 -68l-22 -152l8 -31l-12 -34v-82l-13 -82l13 -57l-26 -60l-22 -27l30 -95l-42 -47l17 -143l-17 -90l25 -122l-8 -17l-22 -17 l-43 9q-1 32 -34 43l-10 -147q-5 -31 -39 -44l-8 62v86zM60 222q3 -8 14 -8zM95 -62q18 3 34 13l22 -39l-39 -13zM415 676q12 19 31 40l25 -5q-6 -30 -30 -51zM467 66q8 8 9 18zM549 1442l4 -12l13 4l-8 13z" />
<glyph unicode="c" horiz-adv-x="1341" d="M0 649l116 311l137 152l8 102l108 173l196 73l123 -7l94 43l116 -29l87 -58l72 -65l44 -102l65 -79l22 -7l7 -58l-15 -37l-101 -43l-109 36l-43 94l-80 66l-101 -22l-87 14l-101 36l-66 -72l-94 -51l-116 -166l-43 -102l36 -101l7 -101l-58 -124v-79l131 -181l101 -44 l109 -29l159 -14l203 50l43 95l80 65l116 22q49 -17 65 -73l-36 -101l-58 -87l-398 -166l-44 -102q-18 -45 -72 -72l-22 72l29 22l-51 58l-123 22l-145 137l-87 50l-166 124l-7 123l-37 101zM167 598l21 7l15 87q-9 16 -29 29zM608 -329l51 29l36 -58l-51 -22z" />
<glyph unicode="d" horiz-adv-x="1034" d="M0 546l11 40l26 29l36 26l18 35l36 22l18 37l8 36l18 41l36 21l26 29l15 44l25 29l29 22l139 76l83 25l44 -3l79 -22q13 4 22 22l37 203l21 37l4 120l-7 36l7 37l-18 73l11 7l-11 21l-26 103l26 33l33 72l22 33l44 3l32 15l25 -22l51 -62l4 -39l-29 -114l11 -11l-11 -68 l11 -77l-8 -11l8 -11l-11 -29l-37 -200l7 -25l-7 -7l11 -55l-29 -131l15 -44l3 -33l-28 -145l10 -7l-10 -37l10 -11l-10 -58l17 -146l-14 -79l14 -37l-7 -33l11 -22l-11 -14l4 -33l-11 -47l-40 -87l30 -76l-4 -33l-18 -33h-37l-18 33v33l14 3l-3 36l-70 -18l-36 -18l-40 -3 l-149 -70l-73 -7l-18 7l-15 -7l-65 29l-105 65l-63 55l-14 26l-50 58l-19 40l-29 113l4 40l-8 11l11 28zM197 393l54 -153l26 8l39 -30l22 -29l37 -11l11 8l25 -11l22 -26l142 37l25 18l4 33l40 57l3 22l-10 15l7 7l-7 22l21 70l-50 141l22 91l32 65l3 66l-14 30l3 24 l-21 40q-48 28 -65 33l-99 -58l-17 -29l-15 -51v-18l-18 7l11 11l-15 11l-11 37l-22 3l-4 -10l-25 -19l-15 -33l-25 -29l-15 -33l-47 -36l-14 -36l7 -11l-37 -91l19 -37l14 -7z" />
<glyph unicode="e" horiz-adv-x="1149" d="M0 492v284l39 122l61 100l17 55l39 46l43 33l62 21l33 46l22 55l84 78l105 49l62 17l72 -10l205 -112l39 -39l28 -55l39 -117v-144l-44 -189l-33 -51l-206 -189l-23 -49l-60 -5l-23 -56l-44 -39l-16 67v49l-67 17l-101 62l-5 55l39 39l83 -17l155 50l28 50l39 39l51 183 v128l-23 61l-83 77l-67 -4l-33 -46l11 -21l-33 -17l-51 17l-44 -33l-100 -140l-55 -105l-17 -61l5 -50l-11 -89l23 -205l55 -100l39 -45l95 -61l67 -16l71 -6l67 11l161 78l40 39l99 139l50 105l44 6l6 -34l-10 -56v-138l-62 -95l-161 -160l-155 -83l-129 -17l-33 -33l-45 5 l-16 -15l-17 -55l-27 -12l-29 45l12 43l-28 39l-156 83l-83 72l-61 105zM372 -189q14 25 34 46l38 -12l-10 -34l-50 -23zM534 322l38 10l28 -56l-39 -11z" />
<glyph unicode="f" horiz-adv-x="1026" d="M0 111l20 97l32 42l10 35l-6 87l-21 99l17 66l20 47l-5 138l16 125l-27 169l16 52l21 164l-26 83l10 113q39 53 52 67l195 -31l82 11l16 -11l129 16h231l67 -26l32 -42l4 -62l-15 -50l11 -16l-21 -77l45 -42l11 -20l-35 -26l-32 15q-10 24 -36 36l-46 98l-41 26l-62 11 l-26 -42l-41 -31q-26 1 -31 31l11 37l-15 10l-320 -16l-26 -118l16 -51l102 -22l68 22l71 -15l104 15l66 25l31 -20l41 -88l-15 -15l11 -26l-16 -119l-26 -46l31 -36l-16 -47l-25 -20l25 -46l-10 -15l-31 -10l-10 20l20 51l-20 103l10 11l-15 51l-42 31l-15 56l-36 11 l-36 -52l-35 -81l-31 24l25 47l-31 41l-51 16l-67 5l-46 -11l-47 -25l-11 -36l16 -98l-20 -104v-122l20 -52l6 -56l-52 -253l20 -103l-5 -62l15 -118l-30 -107l-20 -31l20 -42l-20 -45l-16 -16l-36 11l-36 30l-32 42l-9 40l9 11l-9 61l-22 52zM114 -372l31 63l30 -68 q-2 -29 -30 -53zM149 409l11 -10q-2 4 -11 10zM205 1428l37 -16q-15 11 -37 16zM345 1402q8 -7 20 -10zM607 1047l46 -62l11 46l-36 27z" />
<glyph unicode="g" horiz-adv-x="1279" d="M10 503l7 20l-4 9l5 31l25 53l19 25l21 19l14 27l43 152l-5 13l11 17l5 31l22 63l17 27l20 18l19 25l45 76l21 24l12 26l34 54l65 64l9 25l19 22l24 19l31 12l159 46l29 15l76 53l49 23l14 -3q12 3 26 7l54 -8l4 4l74 -24l58 -30l27 -18l62 -63l48 -72l10 -29l-7 -28 l-16 -25q-6 -10 -19 -15q-10 -11 -26 -12h-48l7 8l-23 -1l7 7l-19 -3l2 9l-15 17l-27 16l-35 48l-12 31l-31 4l-27 -16l-55 -19l-21 7l-7 -5l-27 18l-39 40l-16 8l-23 3l-37 -21l-17 -17l-2 -8l-20 -23l-48 -83l-12 -31l-25 -18l-17 -23l-41 -41l-53 -70l-141 -262l-10 -56 l4 -3l-6 -26l6 -5l-6 -20l6 -6l-6 -25l8 -22v-63l25 -80l43 -87l31 -45q12 -6 18 -21l28 -18l18 -18l78 -52l62 -13h70l67 17l18 20l25 16l34 9l26 16l63 11l21 21l17 26l29 80l2 131l-8 22l-2 30l-19 18h-101l-7 -4l-12 4l-31 -8l-21 4l-7 -7l-106 -16l-19 4l-28 -6l-19 5 l-11 -7l-16 -4l-37 18l-13 -3l-14 14l-6 29l6 4q9 12 25 19l64 17l27 12l22 21l31 7l29 2l35 -6l61 4l57 25l250 15l16 -9l19 -25l29 -84l9 -58l-19 -118l-17 -50l5 -3l-69 -132l-35 -52l-14 -29l-21 -18l-66 -98l-23 -18l-57 -16l-122 -21l-5 2l-26 -9l-33 -2l-52 -22 l-50 -34l-40 -48l-28 -7l-33 22l-49 106l-36 47l-45 37l-21 7l-18 17l-135 80l-22 23l-25 17l-52 71l-5 30l-13 26l-15 50l3 7z" />
<glyph unicode="h" horiz-adv-x="903" d="M0 247l14 57l-5 153l52 45l-38 29l-4 302l13 55v79l-13 88l-19 50l5 57l23 46l33 37l87 19l24 -10l14 -61l-14 -55v-69l37 -32l55 -10l61 10l195 -6l46 24l5 64l-14 52l14 112l32 105l50 89l47 23l55 -19l29 -42l9 -51l-47 -92l-41 -167l9 -60l-18 -51l-9 -61l9 -60 l-19 -111l33 -237l-14 -125l4 -56l51 -162l-5 -130l-22 -92l18 -23l-18 -28l-28 -10l-5 24l14 41l-102 190l-43 28l-8 83l27 89l-32 181l24 106l-33 125v70l-23 33q-30 -2 -37 -33l-34 -37l-32 -14l-18 24l5 27l13 10l14 27l-9 13l-65 -3l-60 8l-59 -8l-61 8l-14 -55v-121 l-18 -42l-5 -64l8 -61l-18 -120l23 -47l19 -101v-61l-14 -98l5 -46l18 -41l10 -52l-43 -91l-31 27l-33 129zM116 -220q4 29 13 57l38 -24l-24 -41zM148 -341l5 11l23 -19l-23 -11zM404 707q7 19 22 36h37l-22 -41zM677 -173q17 1 33 14l22 -28l-45 -22zM710 1365l17 -5 l19 47q-6 7 -19 9z" />
<glyph unicode="i" horiz-adv-x="491" d="M0 135l45 181l-3 42l15 90v46l15 41l7 98l-11 72l68 147l-49 60l-8 30l34 46l106 109q16 10 30 23l49 -12l29 -26l5 -26l-30 -91l7 -56l-26 -170l-19 -37l-4 -42l-15 -42l-7 -45l22 -91l4 -53l-7 -49l-12 -30v-196l19 -38l8 -34l-27 -49l-30 -26l-19 -33l-7 -49l-31 -35 l-26 15l-8 27v64l-22 30l-42 19l-30 22l-26 30zM124 1293l95 136l34 38l41 30l61 -19l26 -45l-39 -106l-6 -68l-27 -49l-49 -26l-26 -8l-68 46l-38 37z" />
<glyph unicode="j" horiz-adv-x="1106" d="M0 397l19 59l39 45l59 26l58 -33l123 -213l51 -33l46 -44l122 -46l142 32l46 124l135 207l27 57l-46 201l19 65l-38 129l13 65l32 52l59 -33l38 -45l26 -64l26 -130v-162l-26 -116l26 -111l-19 -129l-39 -52l-78 -174l-52 -33l-142 -32l-90 -76l-59 -71l-26 19l-32 58 l-45 39l-129 24l-39 53l-110 58l-39 45l-58 117zM149 385l26 -46q-3 26 -26 46zM505 -216l12 58l59 -19l-20 -53zM673 1348l52 103l83 46q49 -7 85 -46l38 -32l-13 -51l-45 -85l-90 -32l-85 -13l-12 27zM835 1341l19 7q-1 14 -14 26z" />
<glyph unicode="k" horiz-adv-x="1117" d="M0 13l12 39l14 24v41l13 61l11 20l6 36l-6 149l-11 67l3 74l29 88l-15 107l47 191l-11 61l17 30l21 60l6 35l-3 77l14 86l-7 44v35l23 95l13 26l22 19l27 14l20 -14l18 -25l17 -91l-23 -68l-14 -23l-6 -33l15 -27l2 -20l-5 -35l-24 -54l12 -29l12 -72l-6 -17l6 -8l20 -5 l35 16l88 29l66 57l73 47l48 71l47 32l17 24l9 30l15 106l30 52l21 18l56 25h35l15 -28l3 -35l-6 -35l-39 -83l-38 -121l-29 -53l-20 -18l-69 -91l-32 -10l-36 -3l-29 -11l-134 -145v-35l51 -151l18 -19l91 -263l44 -37l50 -70l12 -30l30 -9l59 -61l27 -12l35 -6l32 -48 l6 -67l-32 -39l29 9h33l30 -9l18 -22l20 -62v-68l15 -27l20 -17l18 -23l6 -20l-3 -10l-23 -18l-66 18l-50 70l-12 27l-20 21l-29 47l-6 33l6 32l-57 19l-46 31l-16 26l-133 185l-23 60l-131 146l-46 74l-40 42l-82 63l-9 -7l-21 -98l3 -117l-52 -254l6 -41l38 -83l-27 -94 l-41 -35l6 -34l-9 -72l6 -56l-9 -32l-15 -18l-12 -30l9 -59l-3 -9l-27 -16l-25 16l-12 31l-16 90l24 60l4 144l-30 51z" />
<glyph unicode="l" horiz-adv-x="525" d="M0 235v50l58 47l18 62q17 22 18 54l-33 50l11 58l22 51l7 54l-7 148l21 119l-14 72l11 65l22 58l-19 54l-10 65l32 51l18 61l-21 62l-8 50l8 69l36 47l10 25l-3 144l7 22l40 43l57 22q31 -5 62 -22l68 -47l4 -28l-29 -69l-43 -181l7 -54l-7 -83l14 -83l-25 -54l-14 -61 l-26 -195l4 -73l-25 -137l36 -191l-11 -58l-25 -54l-11 -72l7 -65l-4 -62l26 -58q-3 -26 -26 -50l-28 -47l-44 -36l-32 -51l-25 -7l-11 4l-11 21l-15 62l-36 43q-4 30 -25 58z" />
<glyph unicode="m" horiz-adv-x="1161" d="M0 277l13 68l61 131l-9 73l50 115l9 64l-9 52l19 37l41 142l-13 79l22 69l60 130l10 73l23 69l41 51l32 59l51 6l28 -14l27 -157l28 -69l9 -84l24 -68l27 -157l14 -28l32 18l41 143l121 254l41 51l33 60l54 37l74 18q35 -6 60 -37l9 -13l-13 -56l-43 -56l-26 -147 l23 -235l-15 -83l15 -97l-10 -74l13 -230l-8 -14l27 -65l33 -157l32 -59v-56l-13 -9q-23 -22 -24 -55q17 -29 19 -69l-32 -59l-15 -79l-22 -59q-30 -10 -41 -42q-2 -34 -24 -64l-32 -4l4 41l23 41l-18 9l18 50l23 28l-4 37l-24 65q-36 8 -50 45v60l13 9l10 23l-19 42l14 82 l-18 230l4 52l-13 106l13 37l-31 230l27 208l-13 78l-19 28l-24 -23l-31 -152l-60 -125q-32 -13 -52 -46l-26 -65l-70 -115l-23 -69l-47 -13l-4 22l18 74l-77 296l9 45l-5 19l-42 64l-37 23l-14 -19l-17 -156l-43 -143l10 -64l-33 -61l-22 -73l8 -74l-41 -144l15 -170 l32 -138l-10 -9q-18 -26 -19 -65l-50 -41l5 -77l-29 -70l-26 -9l-33 28l-14 61l14 95l-9 73l-28 64l-9 84zM839 -390q17 15 41 27l14 -31l-42 -16zM862 1103l18 9q-1 6 -9 9zM977 291q7 -9 19 -9z" />
<glyph unicode="n" horiz-adv-x="945" d="M0 -41l15 67l61 103v64l-19 84q8 29 30 53l19 61v68l12 72l-4 42l23 86l-4 213l19 80l-19 64l-8 61l8 7l19 61l11 73l27 56l42 43l30 8l19 -20l26 -56l42 -38l27 -58l7 -76l107 -387l26 -56l27 -133l19 -61l30 -53l34 -38l12 72l-12 68l12 107l-8 174l27 71l-23 145 l19 103l-8 33l-7 134l53 49l-38 117q6 28 34 50l49 30q30 -1 50 -27l41 -41l8 -76l-46 -201l-7 -68v-202l15 -33l-27 -190v-66l19 -154l-22 -201l7 -42l-30 -72l4 -27l-12 -68v-216l-26 -76l-15 -3v56l-57 106l-38 129v42l-42 79l-34 133l-27 53l-34 50l-23 57l-15 -69 l-30 -19l-12 23l8 95l-19 80l11 37v65l-72 178q-19 -10 -26 -33l-34 -134l-4 -53l11 -94l-57 -274l-4 -53l31 -129l-38 -75l-4 -34l38 -130l-19 -63l-34 10l7 23l-11 43q-11 23 -38 30l-4 -53l-30 -12l-8 35l-26 53l-34 -46l-19 8l7 46zM76 -253l4 25l34 -10l-12 -15h-26z M175 72l11 -12v27l-8 4zM414 539l7 -8l8 27l-8 7zM702 -349l23 12l30 -15l-26 -28z" />
<glyph unicode="o" horiz-adv-x="1389" d="M0 634l13 40l5 147l27 68l37 59l18 65l64 114l46 46l37 54l55 41l119 69l164 23l46 -10l22 19l73 18l46 -9l23 14l78 -18l59 -37q29 -10 50 -41l142 -141l132 -298l5 -73l18 -55l-27 -132l4 -87l-14 -73l-23 -51l-35 -55l-52 -45l-35 -55v-50l-55 -87l-42 -41l-63 -27 l-79 -19l-54 -36l-69 -27l-32 -60q-12 -32 -50 -45l-37 -18l-18 23l-9 72l-82 95h-50l-87 50l-41 51l-137 51l-50 40l-47 50l-22 69l-5 83l-55 132v73zM147 579l8 -47l37 -27l27 -41l41 -27l32 -32l37 -97l37 -27l86 -41l74 -50h54l33 -32h50l100 -19l50 19l27 36l37 32 l41 87l64 60l28 36l27 69l-9 14l50 145l-4 37l8 65l-22 109l-187 256l-124 73l-55 9l-36 -31l-60 -74l-59 -28l-73 28l-50 -18l-64 -64l-83 -51l-13 -50l-55 -72l-41 -87v-110zM521 889l13 9l10 50l18 42l46 -19l5 -36l-10 -9l-27 -87zM616 -289l32 28h42l-14 -65l23 -69 l-18 -5q-43 15 -55 65z" />
<glyph unicode="p" horiz-adv-x="994" d="M0 -197l18 72l-7 8l10 31v36l7 32l-4 49l-13 66l24 43v69l28 114l-10 11l7 24l-11 42l14 78l18 45l-14 60l-7 10l18 68l10 211l-17 95l10 54l-10 10l10 59l-7 39v78l10 42l42 102l60 39l39 13l78 15l179 78l36 -7l10 3l102 -42l64 -42l85 -74l66 -93l39 -186l-11 -7 l-3 -24l14 -57l-7 -39l-25 -32l-28 -21l-21 -34l-28 -18l-21 -29l-14 -39l-8 -42l-31 -16l-24 -29l-36 -67l-88 -71l-184 -66l-73 17l-39 18l-14 -35l-42 -219l-18 -36l7 -37l-4 -44l8 -123l10 -34l-10 -10l21 -57l-3 -29l10 -10l-46 -98l-17 -74l14 -38l3 -35l-32 -47 l-42 43l42 95l-14 7l-35 -4l-24 -10l-11 7l-18 28l-28 25zM246 742l15 -63l32 -57l21 -21l34 7l54 35l63 18l56 31l75 99l48 39l39 126q0 31 -24 57l24 56l11 54l-25 55l-7 68l-60 13l-35 42q-25 14 -60 15q-20 20 -49 35l-60 -24l-60 -15q-30 -12 -35 -42l-31 -50l-8 -45 l8 -7l-18 -95l7 -31l27 -54l15 -60l-15 -66l-27 -60z" />
<glyph unicode="q" horiz-adv-x="1446" d="M0 633l50 179l71 150l58 64l78 136l14 79l86 143l186 78l64 -14l93 7q33 14 72 36l100 -21l71 -43l114 -108l29 -85l107 -122l29 -86v-171l71 -279l-50 -178l-114 -229l28 -50l72 -43l107 -121l-64 -150l-57 -22l-15 8v71l15 21l-22 93l-78 28l-136 93l-72 -42l-85 -22 l-79 -35l-79 -150l-57 -22l-14 22l36 78l-50 50l-100 15l-72 42l-50 64l-271 179l-29 72zM164 605l22 7l14 86q-8 15 -29 28zM214 469l36 -57l150 -157l114 -43l215 -22l135 36l-28 36l-93 71l-29 50l-42 -28v-36q-40 18 -43 64l85 72l36 50l57 -29l50 -100l86 -79l129 186 l-29 129l-57 107l-7 72l21 128l-64 186l-72 86l-42 21l-65 -28l-214 57l-71 -93l-108 -50l-121 -200l-7 -57l28 -65l15 -121l-15 -14l-43 -115zM600 -309l50 28l36 -57l-50 -22zM1157 -259l8 28l42 -28h-50z" />
<glyph unicode="r" horiz-adv-x="1003" d="M0 173l25 62l12 53l-37 110l12 25l32 130l9 79l24 55l13 70q16 23 21 58l3 77l25 57v77l16 67l-25 121l66 180q3 30 28 53l61 24h62l69 25h77l201 -49l88 -78l9 -65l-28 -56l-16 -132l-26 -56l-32 -54l8 -20l-28 -25l25 -40l-14 -21l-36 17l13 28l-33 13l-8 16l-102 -33 l-25 -61l-68 -86l49 -107l40 -44l32 -49l29 -131l21 -52l61 -106l150 -180l16 -66l62 -104l8 -32l-17 -83l12 -8l9 -36l-21 -21l-23 -5l-9 30l9 40l-37 -12q-29 11 -42 45l-16 17l-4 101l-37 65l-36 45l-45 40l-33 46l-24 60l-94 156l-20 60l-40 41l-30 58q-23 12 -28 44 l-16 66l-32 53l-21 57l69 98l45 32l69 98l48 37l83 86l16 53v65l8 12l-12 57l-62 25l-118 20l-142 -41l-37 -44l-25 -58l-8 -73l25 -61l13 -69l-13 -61l-17 -224l-61 -107l5 -62l-8 -81l-26 -94l9 -32l-4 -37l29 -180l33 -89l-14 -34l-16 -19l9 -37l-41 -117q-29 0 -53 25 l-70 169zM799 -25h9l-5 8z" />
<glyph unicode="s" horiz-adv-x="1231" d="M0 -93l37 62l41 32l21 41l12 57l-5 37l58 49l54 21l119 12l61 -8l119 28h131l46 25l82 66l28 41l46 29l37 107l-8 61l-29 45l-41 33l-49 25l-54 16l-33 -41l-53 -21l-37 34l-20 118l-42 34l-45 24l-61 -4l-62 12l-45 29l-94 123l-25 50l-8 60l12 62l29 46l8 57l62 86 l45 25l37 37l53 13l58 -5l45 28l53 17l45 29h74l54 -21l41 -32l20 -53l42 -30l7 -36l-16 -5l-37 -41l-32 -94l12 -49l-25 -46l-49 12l-9 62l-53 91l-37 33l-57 -9l-103 -37l-33 -25l-20 -127l32 -36l144 -78h119l54 -37l143 -70l62 -13l49 -24l42 -33l32 -37l16 -123l21 -61 l-33 -108l-29 -36l-7 -58l-78 -127l-37 -111l-38 -33l-95 -45l-7 -17l-107 9l-58 16l-189 -4l-66 -21l-19 -44l-34 -37l-53 -16l-45 -25l-12 -57l-37 -65l7 -37l-20 -116l-28 -45l-42 -13l-12 9l-29 46l4 44l-45 115z" />
<glyph unicode="t" horiz-adv-x="1036" d="M0 1252l35 31l7 35l32 23l39 4l140 -11l128 23l47 54l8 39l50 51l39 -15l16 -36l-16 -35v-39l90 -11l171 31l31 -23l47 3l35 -15l27 -43l-11 -23l-28 -23h-144l-74 -28h-93l-39 11l-16 -22l-4 -63l24 -132l-11 -16l-32 -167l12 -39l4 -140l-20 -82l-4 -187l-8 -7l-7 -183 l7 -70l-19 -94v-68l-16 -28l-31 -8l-7 36l27 22l-24 31l8 50l-19 75l4 39l-27 58l-13 74l28 117l-19 124l19 82l16 280l-13 39l-3 46l19 132l-7 44l-27 23l-79 16l-70 -24l-77 8l-35 -32l-40 -7l-11 -31l16 -35l-8 -43l-12 -20l12 -7l-23 -31l-20 15l28 27l-24 24l-15 77 l11 40zM416 -148l12 43l27 -39v-31l-19 -5z" />
<glyph unicode="u" horiz-adv-x="1026" d="M0 576l46 242l-19 97l14 8l-14 101l147 265l23 96l27 37l88 46l32 32q24 -2 32 -27l-5 -32l27 -69l-13 -41l-51 -79l-9 -59l-50 -77l-59 -193l8 -114l-37 -92l-22 -101v-64l36 -137l28 -41l14 -41l32 -32l41 -27l46 -15l41 28l51 14l77 -51l46 19l32 37l69 187l22 115 l-27 146l19 46l4 46l-36 91v55l-73 179l17 49l24 37l36 24l36 8l37 -50l37 -27l46 -19l32 -37l23 -40l-18 -124l59 -311l-5 -60l-27 -41l-19 -46l-8 -51v-109l-14 -41l-82 -106l-56 -128l-50 -18l-36 -28l-47 -18l5 -49q0 -28 -27 -41l-32 -15l-56 15l-8 46l-32 30l-129 69 l-60 5l-41 27l-40 9l-29 32l-4 55l-14 46l-32 37l-18 37l-41 145l9 19z" />
<glyph unicode="v" horiz-adv-x="1072" d="M0 1375l10 48l16 5l36 36l31 -26l88 -36l36 -27l16 -30l15 -88l21 -46l15 -11l-10 -31l42 -139l4 -52l78 -180q2 -51 31 -99l26 -104l88 -154l57 56l-20 26l14 10v89l-14 9l36 58l5 46l46 124l-30 52l41 156v123l15 26l-47 83l-9 52l25 41q39 24 93 36q30 27 58 72 l82 -51l67 -62l-5 -52l-42 -114l-10 -57l-92 -232l5 -113l-17 -94l-56 -72l-16 -52l5 -26l-10 -16l-15 -103l15 -114l-15 -93l-26 -82l-10 -109l15 -81l-36 -145v-40h-94l-5 61l53 42l-84 106l-26 48v41l-51 77l-11 114l-46 82l-11 52l-31 36l-93 269l-46 78l-72 61l-27 41 l-36 130l11 16l-11 45l-57 151l6 41zM528 -328q8 25 25 47l57 -26l-25 -53l-52 7z" />
<glyph unicode="w" horiz-adv-x="1637" d="M0 1369q6 40 39 73l29 25l20 -39q42 -1 83 -25q30 -12 45 -44l9 -73l34 -69l30 -161l141 -392l16 -74l68 -103l53 50l-14 34l14 14l-19 98l15 11l44 151l24 49l-24 10v88l34 88l-4 181l-30 83l34 64l78 29q29 22 50 59l127 -93l14 -78l-39 -54v-83l49 -236l34 -78 q9 -39 40 -68l9 -98l39 -73l16 -73l43 -64q11 -31 44 -49l39 68l-10 59l10 34l-19 30l34 63l44 151l-19 6v78l29 78v88l19 84l-53 117l14 29q26 32 69 44q37 9 63 45l50 29l5 -24l58 -50q40 -9 44 -53l5 -54l-25 -25l-19 -53l-20 -93l-39 -69l-24 -88l-15 -14l5 -162 l-25 -73q-28 -24 -43 -64l-34 -157l4 -98l15 -24l-54 -201v-59l15 -83l-35 -131v-44h-88v59q32 21 39 64l-98 116l-14 73h-25l-19 162l-45 68q-6 39 -34 74l-107 298l-54 54l-30 -54l-53 -59l-34 -156l14 -181l-25 -74l-23 -171l9 -74l-29 -96v-59l-39 -5q-50 3 -54 54 l49 58l-98 118l-10 82q-41 17 -44 64l-10 88l-181 445q-16 33 -54 54l-53 55l-50 160l-5 79l-43 69l-11 48l6 34zM499 -235q8 22 25 43l54 -24l-25 -49l-48 5zM1116 -280q8 23 24 45l54 -25l-24 -50l-50 6z" />
<glyph unicode="x" horiz-adv-x="1220" d="M0 -263l21 31q7 26 36 36l10 62l31 47l-21 56l119 175l-10 36l10 15l-26 52l37 62l46 36l10 72l114 62l67 108l-10 57l-21 -5l-10 10l5 36l-67 119l-47 42l-26 61l-87 99l-16 51l-41 57l-93 186l10 41l-20 62l10 62l57 36l62 -15l46 -26l31 -62l11 -72l20 -57l72 -98 l47 -47l72 -175l83 -93l20 -41l124 160l21 46l-10 15l36 62l129 150l26 62l-11 42l26 87l52 47l46 5l21 10l41 -21l36 -46l-20 -62l5 -67l-26 -36l-21 -62l-124 -232l-77 -104l-41 -41l-67 -124l-16 -57l-31 -36l10 -62l78 -87l72 -21l52 -124l57 -67l-26 -31l5 -57l21 -62 l31 -57l51 -46l5 -66l-15 -15l36 -88q7 -26 36 -32l26 -61l-52 -27l-5 17q-24 6 -36 31l21 36l-88 31l-5 67l-26 57l-52 30l-87 97l-11 62l-26 47l-41 41l-72 103l-16 67l-31 62l-36 21l-36 -57l-82 -175l-78 -83l-15 -62l-31 -57l-42 -46l-51 -30l-42 -56v-57l-87 -67 l10 -52l-72 -20z" />
<glyph unicode="y" horiz-adv-x="1034" d="M0 1004l23 107l102 233l26 107l5 49l45 -27l45 -40l-23 -94l-9 -228l-58 -196l10 -58l39 -90l63 -71l49 -18l89 41l67 67l58 137l99 171l115 280l5 50q2 25 27 36h67l40 -27l13 -53l-17 -260l17 -62l27 -45l-23 -44l-53 13l-22 45l-13 49l-36 -89l-72 -260l-27 -44 l-30 -32v-67l-18 -111l-121 -443l9 -75l-22 -111l-36 -27l-59 -13l-26 36l8 -53l23 -45l-31 -42l-49 19l-22 45l4 413l26 108l100 232l7 54h-124l-143 58l-5 -27l36 -62l-26 -41l-49 -8l-36 31l-10 41l27 57l5 36l-80 134l-32 103z" />
<glyph unicode="z" horiz-adv-x="1313" d="M0 1228l18 57l-14 179l22 18l37 9l85 -45l62 -13l72 13l67 -13l165 36l36 -9h67l85 17h76l62 23l139 -4l9 -14l18 -9l45 14q33 -6 41 -41l22 -63l32 -53l-19 -63l-28 -58l-98 99l5 -26l-31 -41l-44 -117l-37 -49l-17 -49l-81 -94l-26 -50l-41 -48l-27 -59l-13 -53 l-45 -36l-35 -50l-46 -39l-62 -112l-18 -54l-36 -44q-11 -27 -36 -41l-31 -39l-14 -60l-49 -75l99 -13l58 26l228 5l71 13l50 -4l14 8l80 19l81 -5q28 -1 53 -22l72 8q23 -18 26 -48l54 -117l-26 -62q-9 -29 -37 -49l-108 143l-62 22l-120 -49l-291 -40l-67 35l-220 -35 l-67 -5l-67 -22l19 -35l-9 -14q-22 -21 -54 -21l-40 49l18 56l-15 139l23 59l104 -28l44 72l18 94l-9 13l9 54l40 36l18 62l49 37l54 22q4 27 31 44l13 58l28 58l76 94q2 32 22 63l71 94l27 50l14 53l31 54l45 44l72 103l-14 36l-152 -23h-67l-80 -21l-77 34l-201 -31 l-85 -3l-81 26v-54l14 -45q-16 -24 -50 -26zM850 1443q3 -9 13 -10zM903 167q4 -7 14 -8zM1078 1134q7 23 21 49l37 -5l-27 -49l-10 -5zM1131 -140q8 24 22 50l37 -5l-28 -49l-9 -6z" />
<glyph unicode="{" horiz-adv-x="968" d="M0 834l4 31l45 -17l36 26l89 45l99 27l17 36l-4 31l31 67l32 40l-23 108l18 169l-13 103l22 112l-13 98l18 85l-9 41l4 13l40 -31l45 -18l107 27h99l62 -23l49 5l27 -9l-4 -31l53 -135l-40 -93l-22 -9l-5 26l-40 27l-22 45l-32 36l-35 27h-54l-94 -45q-21 -1 -22 -23 l9 -58l-18 -107l13 -54l-13 -49l9 -58l-18 -116l18 -112l-14 -58l-22 -40l-31 -36l-81 -54l-35 -9l8 -13l50 -13l44 -23l54 -80l-13 -54l22 -232l13 -54v-67l-9 -58l-18 -49l9 -117l-17 -107l111 -26l90 -40l53 13l32 31l22 44l36 32l22 35l36 -13l31 -93l-45 -90l-9 -40 l5 -13l-45 -23l-53 14l-41 -27l-120 4l-67 23l-63 -5l9 -31l-4 -31l-27 9l-14 53l-31 36l-22 45l4 58l-22 44l-14 54l23 111l-9 50l13 111l-27 94l-4 63l13 116l-22 103v67l-152 36l-62 -5zM402 -301q6 20 18 40l18 -31l-18 -13zM416 -431l13 27l18 -4l-14 -32zM536 1769 q4 -8 14 -9zM563 -118q4 -7 13 -9zM764 1460q7 24 23 49l35 -4l-27 -49l-8 -5z" />
<glyph unicode="|" horiz-adv-x="297" d="M0 727v80l14 138l-14 67l22 54l36 48l-18 130l18 115l-9 156l18 63l-9 137l13 72l-9 44l5 18q31 -10 40 -44l54 -107l-5 -50l13 -8l18 -62l-18 -134l10 -58l-10 -49l4 -18l-12 -138l12 -67l6 -204l-32 -143v-53l-9 -13l35 -352l-8 -66l-18 -63l9 -72l-18 -133l9 -71 l-9 -163l-27 8l-22 62l-45 75l5 36l-23 53l-8 67l18 80l-14 67l18 94v62l-14 8l-12 67l-6 76l14 66zM116 -291q5 20 17 40l18 -31l-18 -13zM129 -420l14 26l18 -4l-14 -32z" />
<glyph unicode="}" horiz-adv-x="971" d="M0 -6l27 80l35 36l14 -40l44 -23l23 -44l31 -40l45 -18l53 14l94 40l58 4l9 49l-18 89l13 76l-26 107v67l13 53l4 129l23 108l-14 53l18 45l27 40l36 27l71 26l-107 58l-58 76l-18 49l18 129l-13 103l4 54l-13 53l13 54l-18 107l18 89h-22l-45 22l-98 31l-45 -22l-49 -80 l-44 -23l-23 -40l-26 40l-27 63l67 169l35 9l14 -9l35 -4l63 22l58 5l58 -9l49 -18l62 4q6 21 18 45l27 -4l-4 -36l8 -107l-8 -121l13 -53l13 -286l-22 -107l49 -84l13 -54l-8 -31l58 -31l49 -9l93 -40l36 -32l40 18l18 -9l-9 -31l-45 -13l-62 4l-112 -22l-58 4v-67 l-22 -147l14 -71l-14 -120l-22 -45l22 -147l-9 -14l-4 -40l18 -67l-5 -53l-40 -151l-27 -40l-13 -50l-27 -17l-13 13l9 36l-9 13l-45 5l-120 -27l-156 22l-14 -9l-40 9l-4 54zM45 1510l44 -9l9 -36l-9 -8q-34 12 -44 53zM290 -113q4 -7 13 -9zM317 1769q4 -8 13 -9z M415 -430l4 32l27 -14l-9 -18h-22zM424 -287l9 31l26 -17l-8 -27z" />
<glyph unicode="~" horiz-adv-x="1282" d="M0 676l40 88l-8 36l24 16l36 -4l68 52q21 8 44 20l104 -20l48 8l88 -44l104 -24l116 -72l100 -28l36 -28l44 -4l24 8l32 -8l40 -24l36 -12l16 4l32 28l24 44l8 40l-4 12l28 36v32l16 -4l28 -36l36 -28l12 -40l-40 -88l8 -36l-24 -16l-36 4l-68 -52l-44 -20l-104 20 l-48 -8l-88 44l-104 24l-116 72l-100 28l-36 28l-44 4l-24 -8l-32 8l-40 24l-36 12l-16 -4l-32 -28l-24 -44l-8 -40l4 -12l-28 -36v-32l-16 4l-28 36l-36 28zM48 540l16 8l32 -20l12 -20l-16 -8l-32 20zM236 828q6 -7 16 -8z" />
<glyph unicode="&#xa3;" horiz-adv-x="1521" d="M0 605l16 70l-16 154l21 57l54 17l79 -48l69 -26l68 21l144 -16l85 31l-11 271l53 319l27 68l37 59l63 31l22 65l37 57l42 49l70 26l73 11l80 -6l58 32l80 -16l106 -85l42 -53l27 -69l48 -47l32 -65l5 -79l-11 -85l-58 -10l-90 31l-38 49l-21 73l-31 65l-48 47l-74 -16 l-138 32l-37 -58l-64 -27l-74 -116l-10 -181l10 -84l-38 -288l186 21l11 -5l154 33l85 -6l63 -27l69 12l37 -12l-5 -47l64 -128l-48 -132l-27 -11l-5 42l-64 32l-32 64l-42 48l-59 10l-153 -63l-217 -21l11 -32l-33 -233l5 -80l-16 -159l86 -11h185l165 27l68 -27l44 -48 l26 -74l-49 -47l28 -127l-49 -54l-63 23l-10 42l37 90l-21 11l-49 -11l-74 21l-69 -26l-143 37l-91 -6l-68 -26l-26 -54q-10 -32 -49 -42l-42 53l-21 75l-10 460l21 234l-271 -37l-127 31l-16 -10l5 -59l-10 -21l32 -11l-16 -36l-49 -16l-10 26q-30 13 -37 47zM1003 844 q5 -9 16 -10zM1273 478q9 28 26 59l43 -5l-32 -59l-11 -5z" />
<glyph unicode="&#xa7;" horiz-adv-x="1063" d="M0 140l43 38l165 -63l13 21q12 29 43 47l51 42h59l81 30l47 43q32 -2 34 -34l-13 -22l17 5l119 93l60 30q20 25 21 60l-8 76l34 56l21 17l-8 42l-47 43q-26 -2 -51 -22l-60 -29q-24 -15 -30 -51l-76 -107q-37 12 -38 55l-22 60l-59 -17l-51 -43l-60 -29l-47 -9l-85 17 q-30 10 -51 38l-51 43l-13 60q16 27 47 38l119 -64l39 -4l12 30q18 25 51 42l51 38l81 5l-17 34l-132 8l-12 9l-60 13l-21 72l-56 34l-46 136v64l25 72l43 52l59 29l26 22l-9 34q-4 30 -30 59l-46 47l-26 60l-8 85l12 64l30 59l107 73l46 46l51 39q33 5 68 21l86 -9 q32 -3 59 -29q26 -18 43 -51l-22 -111l22 -26l-34 -55l17 -68l17 -34l-22 -17q-31 12 -51 42l-12 13l17 47l-9 85l13 21l-9 43l-68 26l-64 -26l-51 -38l-42 -47l-21 -68l4 -73l42 -51l51 -38l447 -98l51 -38l38 -56l9 -80l-4 -68l-77 -218l-25 -38l12 -8l39 -56l21 -68v-51 l-21 -106l-47 -137l-77 -106l-98 -81l-119 -64l5 -34l-17 -34q-25 -18 -39 -50l-25 -22l-34 13l-26 102l-34 -9l-47 -34l-123 -55l-60 5l-55 -30l-34 -55q-4 -34 -38 -47l-21 12l12 47l56 89l-9 26l-42 47zM9 -242q7 17 21 34l38 -22l-34 -30zM170 991l21 -42q-5 23 -21 42z M204 1477l21 -43q-4 23 -21 43zM221 1089h17l22 68l-13 5l-26 -34v-39zM255 1575h17l22 68l-13 4l-26 -34v-38zM277 1017l17 -47l34 -38l46 -30l124 -25l68 -5l115 -34l55 9l38 38l-8 106l34 56q20 19 21 51l-38 38l-43 30l-102 47l-59 -17l17 -73l-22 -29l13 -30l-8 -13 l-51 9l-9 68l9 42l-47 47q-23 14 -51 21l-90 -64l-34 -38l-21 -51zM689 247l39 25q8 13 8 30l-34 -30z" />
<glyph unicode="&#xab;" d="M0 1090v52l40 60v44l20 128l28 76q24 22 60 40l44 -8l76 -76l36 -68l-24 -76l-36 -56l-48 -104l-60 -84l-32 -20l-36 8l-56 44zM416 1082v52l40 60v44l20 128l28 76q24 22 60 40l44 -8l76 -76l36 -68l-24 -76l-36 -56l-48 -104l-60 -84l-32 -20l-36 8l-56 44z" />
<glyph unicode="&#xad;" horiz-adv-x="751" d="M0 808l7 20l-2 28l-5 7l5 18l-5 28l2 24l23 13l25 -8l51 -27l44 10l53 -8l48 18h117l25 7l31 -2l27 5l22 10l63 -2l22 -11h25l8 6l18 -6l4 -22l33 -68l-18 -48l-17 -14l-7 22l-23 9l-10 24l-33 35l-20 2l-78 -30l-90 -7l-55 -13l-44 20l-145 -20l-28 5l-23 10l-10 -2 l2 -33l-5 -5l13 -23l-25 -10l-15 18zM474 918q2 -4 7 -5zM601 745q4 14 12 28l21 -3l-15 -28l-6 -2z" />
<glyph unicode="&#xb0;" horiz-adv-x="546" d="M0 1498l12 52l44 84l32 36l8 44l24 44l44 20h52q21 5 44 16l52 -16l36 -28l20 -44l32 -32l16 -52l-4 -36l24 -112l-16 -52l-48 -80l-128 -64l-20 -44h-24l8 28l-76 44l-32 32l-44 20l-32 32zM72 1506l8 -8l4 28q-1 4 -8 8zM92 1462l8 -24l36 -40l56 -20h68q28 4 48 28 l40 60l-24 96l4 32l-36 76l-16 12l-36 -8l-56 16l-44 -36l-44 -84l16 -56l-12 -16zM204 1190q9 1 16 8l12 -24l-16 -4z" />
<glyph unicode="&#xb5;" horiz-adv-x="1058" d="M0 -209l21 53l37 37l32 95l-37 57l37 116l-6 142l16 58l-10 137l31 95l-10 11l-11 52l-10 16l47 79l-5 63l-21 53l10 63l26 48l22 174l57 163l27 47l37 37q28 5 58 16l58 -21l42 11l10 -11l-10 -53l5 -68l-26 -53l-37 -37l-27 -42l-52 -226l-6 -122l27 -68l-27 -53 l-26 -121l16 -53l84 -142l48 -26l31 -42l121 -27l58 16l48 26l15 53l48 100l63 84l32 74l-42 153l15 58l-58 163l-31 48l21 52l-58 85l-11 68l27 48l37 37l47 26l58 -21l37 -37l5 -16l-26 -100l10 -63l53 -169v-68l21 -116v-74l-26 -121l21 -74l-16 -111l-105 -195l-48 -26 l-68 -5l-48 -27l-110 -105l-37 37l-26 47l-64 11l-47 21l-84 58l-42 11l26 -137l-37 -105v-137l21 -85l-121 -153l-32 16l-15 58zM411 1466l26 32q30 -3 42 -37l-26 -10zM542 -56l11 47l47 -15l-15 -42zM811 1213l16 6q-1 11 -11 21z" />
<glyph unicode="&#xbb;" d="M0 1090v52l40 60v44l20 128l28 76q24 22 60 40l44 -8l76 -76l36 -68l-24 -76l-36 -56l-48 -104l-60 -84l-32 -20l-36 8l-56 44zM416 1082v52l40 60v44l20 128l28 76q24 22 60 40l44 -8l76 -76l36 -68l-24 -76l-36 -56l-48 -104l-60 -84l-32 -20l-36 8l-56 44z" />
<glyph unicode="&#x2000;" horiz-adv-x="926" />
<glyph unicode="&#x2001;" horiz-adv-x="1852" />
<glyph unicode="&#x2002;" horiz-adv-x="926" />
<glyph unicode="&#x2003;" horiz-adv-x="1852" />
<glyph unicode="&#x2004;" horiz-adv-x="617" />
<glyph unicode="&#x2005;" horiz-adv-x="463" />
<glyph unicode="&#x2006;" horiz-adv-x="308" />
<glyph unicode="&#x2007;" horiz-adv-x="308" />
<glyph unicode="&#x2008;" horiz-adv-x="231" />
<glyph unicode="&#x2009;" horiz-adv-x="370" />
<glyph unicode="&#x200a;" horiz-adv-x="102" />
<glyph unicode="&#x2010;" horiz-adv-x="751" d="M0 808l7 20l-2 28l-5 7l5 18l-5 28l2 24l23 13l25 -8l51 -27l44 10l53 -8l48 18h117l25 7l31 -2l27 5l22 10l63 -2l22 -11h25l8 6l18 -6l4 -22l33 -68l-18 -48l-17 -14l-7 22l-23 9l-10 24l-33 35l-20 2l-78 -30l-90 -7l-55 -13l-44 20l-145 -20l-28 5l-23 10l-10 -2 l2 -33l-5 -5l13 -23l-25 -10l-15 18zM474 918q2 -4 7 -5zM601 745q4 14 12 28l21 -3l-15 -28l-6 -2z" />
<glyph unicode="&#x2011;" horiz-adv-x="751" d="M0 808l7 20l-2 28l-5 7l5 18l-5 28l2 24l23 13l25 -8l51 -27l44 10l53 -8l48 18h117l25 7l31 -2l27 5l22 10l63 -2l22 -11h25l8 6l18 -6l4 -22l33 -68l-18 -48l-17 -14l-7 22l-23 9l-10 24l-33 35l-20 2l-78 -30l-90 -7l-55 -13l-44 20l-145 -20l-28 5l-23 10l-10 -2 l2 -33l-5 -5l13 -23l-25 -10l-15 18zM474 918q2 -4 7 -5zM601 745q4 14 12 28l21 -3l-15 -28l-6 -2z" />
<glyph unicode="&#x2012;" horiz-adv-x="751" d="M0 808l7 20l-2 28l-5 7l5 18l-5 28l2 24l23 13l25 -8l51 -27l44 10l53 -8l48 18h117l25 7l31 -2l27 5l22 10l63 -2l22 -11h25l8 6l18 -6l4 -22l33 -68l-18 -48l-17 -14l-7 22l-23 9l-10 24l-33 35l-20 2l-78 -30l-90 -7l-55 -13l-44 20l-145 -20l-28 5l-23 10l-10 -2 l2 -33l-5 -5l13 -23l-25 -10l-15 18zM474 918q2 -4 7 -5zM601 745q4 14 12 28l21 -3l-15 -28l-6 -2z" />
<glyph unicode="&#x2013;" horiz-adv-x="1134" d="M0 808l11 20l-3 28l-8 7l8 18l-8 28l3 24l37 13l40 -8l81 -27l71 10l84 -8l77 18h187l40 7l49 -2l43 5l36 10l100 -2l35 -11h40l13 6l29 -6l6 -22l53 -68l-29 -48l-27 -14l-11 22l-37 9l-16 24l-53 35l-31 2l-125 -30l-144 -7l-88 -13l-70 20l-232 -20l-44 5l-37 10 l-16 -2l3 -33l-8 -5l21 -23l-40 -10l-24 18zM757 918q3 -4 11 -5zM960 745q6 14 19 28l34 -3l-24 -28l-10 -2z" />
<glyph unicode="&#x2014;" horiz-adv-x="2158" d="M0 808l22 20l-6 28l-16 7l16 18l-16 28l6 24l74 13l80 -8l163 -27l140 10l170 -8l153 18h374l80 7l99 -2l86 5l70 10l202 -2l70 -11h80l25 6l58 -6l13 -22l105 -68l-58 -48l-54 -14l-22 22l-74 9l-32 24l-105 35l-64 2l-249 -30l-288 -7l-175 -13l-141 20l-463 -20l-90 5 l-73 10l-32 -2l6 -33l-16 -5l42 -23l-80 -10l-48 18zM1514 918q7 -4 23 -5zM1920 745q13 14 39 28l67 -3l-48 -28l-19 -2z" />
<glyph unicode="&#x2018;" horiz-adv-x="366" d="M0 1138v60l40 76v76q7 30 36 56l28 52q28 10 60 28l72 -20q19 -28 20 -64l-12 -148l-56 -124l-92 -80l-64 28z" />
<glyph unicode="&#x2019;" horiz-adv-x="366" d="M0 1138v60l40 76v76q7 30 36 56l28 52q28 10 60 28l72 -20q19 -28 20 -64l-12 -148l-56 -124l-92 -80l-64 28z" />
<glyph unicode="&#x201c;" d="M0 1090v52l40 60v44l20 128l28 76q24 22 60 40l44 -8l76 -76l36 -68l-24 -76l-36 -56l-48 -104l-60 -84l-32 -20l-36 8l-56 44zM416 1082v52l40 60v44l20 128l28 76q24 22 60 40l44 -8l76 -76l36 -68l-24 -76l-36 -56l-48 -104l-60 -84l-32 -20l-36 8l-56 44z" />
<glyph unicode="&#x201d;" d="M0 1090v52l40 60v44l20 128l28 76q24 22 60 40l44 -8l76 -76l36 -68l-24 -76l-36 -56l-48 -104l-60 -84l-32 -20l-36 8l-56 44zM416 1082v52l40 60v44l20 128l28 76q24 22 60 40l44 -8l76 -76l36 -68l-24 -76l-36 -56l-48 -104l-60 -84l-32 -20l-36 8l-56 44z" />
<glyph unicode="&#x202f;" horiz-adv-x="370" />
<glyph unicode="&#x2039;" horiz-adv-x="366" d="M0 1138v60l40 76v76q7 30 36 56l28 52q28 10 60 28l72 -20q19 -28 20 -64l-12 -148l-56 -124l-92 -80l-64 28z" />
<glyph unicode="&#x203a;" horiz-adv-x="366" d="M0 1138v60l40 76v76q7 30 36 56l28 52q28 10 60 28l72 -20q19 -28 20 -64l-12 -148l-56 -124l-92 -80l-64 28z" />
<glyph unicode="&#x205f;" horiz-adv-x="463" />
<glyph unicode="&#x20ac;" horiz-adv-x="1096" d="M0 474l58 260l-12 110l52 179l-23 29l-35 132l12 70l40 127l-6 69l18 63l29 52l46 41l52 115l40 40l98 70l63 17l64 -23l69 -12l64 6l121 -40l46 -41l69 -92l52 -115l46 -35l23 -35l-98 -17l-75 6l-52 34l-40 41l-52 29l-40 46l-122 -35l-98 18l-57 -64l-52 -115l-6 -41 l17 -86l110 29l75 -35h69l46 11l133 -57l86 -116l-23 -29l-17 -69l-63 -23l-75 6l-29 52l-64 11l-52 -28l-63 -6l-63 17l-47 -40l-28 -81l103 29l133 -29l63 6l122 -41l46 -34l34 -47l23 -52l-23 -57l-34 -52l-75 -6l-58 29l-35 46l-126 -40l-93 17l-63 -63l-52 -29 l-52 -116l-11 -69l40 -40l69 -104l52 -29l110 -29l224 35l75 -12l52 -35l-11 -63l-52 -29l-35 -46l-46 -40l-156 -52l29 -81l-11 -11l-35 6l-57 132l-127 40l-168 81l-46 40l-103 231zM490 -258l12 46l57 -23l-17 -35z" />
<glyph unicode="&#x25fc;" horiz-adv-x="1500" d="M0 0v1500h1500v-1500h-1500z" />
</font>
</defs>
</svg>
